<svg xmlns="http://www.w3.org/2000/svg" xmlns:xlink="http://www.w3.org/1999/xlink" width="91" zoomAndPan="magnify" viewBox="0 0 68.25 54" height="72" preserveAspectRatio="xMidYMid meet" version="1.2"><g id="328a6e727e"><path style=" stroke:none;fill-rule:nonzero;fill:#0400e9;fill-opacity:1;" d="M 33.753906 48.683594 C 33.300781 48.683594 32.847656 48.667969 32.394531 48.640625 C 31.941406 48.613281 31.492188 48.570312 31.042969 48.515625 C 30.589844 48.460938 30.144531 48.390625 29.695312 48.308594 C 29.25 48.226562 28.808594 48.128906 28.367188 48.019531 C 27.925781 47.910156 27.492188 47.785156 27.058594 47.648438 C 26.625 47.511719 26.199219 47.359375 25.773438 47.195312 C 25.351562 47.035156 24.933594 46.859375 24.519531 46.667969 C 24.109375 46.480469 23.703125 46.277344 23.300781 46.066406 C 22.902344 45.851562 22.507812 45.625 22.121094 45.386719 C 21.738281 45.148438 21.359375 44.898438 20.988281 44.636719 C 20.617188 44.375 20.253906 44.105469 19.898438 43.820312 C 19.546875 43.539062 19.199219 43.242188 18.863281 42.9375 C 18.527344 42.632812 18.199219 42.320312 17.882812 41.996094 C 17.566406 41.667969 17.261719 41.335938 16.964844 40.992188 C 16.667969 40.648438 16.382812 40.296875 16.109375 39.933594 C 15.832031 39.574219 15.570312 39.203125 15.316406 38.828125 C 15.066406 38.449219 14.824219 38.066406 14.597656 37.675781 C 14.367188 37.28125 14.152344 36.882812 13.949219 36.476562 C 13.746094 36.074219 13.554688 35.660156 13.375 35.246094 C 13.195312 34.828125 13.03125 34.40625 12.875 33.980469 C 12.722656 33.550781 12.585938 33.121094 12.457031 32.683594 C 12.332031 32.25 12.21875 31.808594 12.121094 31.367188 C 12.019531 30.925781 11.933594 30.480469 11.863281 30.03125 C 11.789062 29.582031 11.730469 29.132812 11.6875 28.679688 C 11.644531 28.230469 11.613281 27.777344 11.59375 27.324219 C 11.578125 26.871094 11.574219 26.417969 11.585938 25.964844 C 11.597656 25.511719 11.625 25.058594 11.664062 24.605469 C 11.703125 24.152344 11.753906 23.703125 11.820312 23.253906 C 11.886719 22.804688 11.96875 22.359375 12.0625 21.914062 C 12.15625 21.472656 12.261719 21.03125 12.382812 20.59375 C 12.503906 20.15625 12.640625 19.722656 12.785156 19.292969 C 12.933594 18.863281 13.09375 18.441406 13.269531 18.023438 C 13.441406 17.601562 13.628906 17.1875 13.828125 16.78125 C 14.027344 16.375 14.238281 15.972656 14.460938 15.578125 C 14.683594 15.183594 14.921875 14.796875 15.167969 14.414062 C 15.414062 14.035156 15.675781 13.664062 15.945312 13.296875 C 16.214844 12.933594 16.496094 12.578125 16.789062 12.230469 C 17.082031 11.882812 17.382812 11.546875 17.695312 11.21875 C 18.007812 10.890625 18.332031 10.570312 18.664062 10.261719 C 18.996094 9.953125 19.335938 9.652344 19.6875 9.367188 C 20.039062 9.078125 20.398438 8.800781 20.765625 8.535156 C 21.132812 8.269531 21.507812 8.015625 21.890625 7.773438 C 22.273438 7.53125 22.664062 7.300781 23.0625 7.082031 C 23.460938 6.863281 23.863281 6.65625 24.273438 6.460938 C 24.683594 6.269531 25.101562 6.085938 25.523438 5.917969 C 25.941406 5.75 26.367188 5.59375 26.800781 5.453125 C 27.230469 5.308594 27.664062 5.179688 28.105469 5.066406 C 28.542969 4.949219 28.984375 4.847656 29.429688 4.757812 C 29.875 4.671875 30.320312 4.59375 30.769531 4.535156 C 31.222656 4.472656 31.671875 4.425781 32.125 4.394531 C 32.578125 4.359375 33.03125 4.339844 33.484375 4.335938 C 33.9375 4.328125 34.390625 4.335938 34.84375 4.359375 C 35.296875 4.382812 35.75 4.417969 36.199219 4.46875 C 36.652344 4.519531 37.101562 4.582031 37.546875 4.660156 C 37.992188 4.738281 38.4375 4.828125 38.878906 4.933594 C 39.320312 5.039062 39.757812 5.15625 40.191406 5.289062 C 40.625 5.417969 41.058594 5.5625 41.480469 5.722656 C 41.90625 5.878906 42.328125 6.050781 42.742188 6.234375 C 43.15625 6.417969 43.566406 6.617188 43.96875 6.824219 C 44.371094 7.035156 44.765625 7.253906 45.15625 7.488281 C 45.546875 7.722656 45.925781 7.964844 46.300781 8.222656 C 46.675781 8.480469 47.039062 8.746094 47.398438 9.027344 C 47.757812 9.304688 48.105469 9.59375 48.445312 9.894531 C 48.785156 10.195312 49.113281 10.507812 49.4375 10.828125 C 49.625 11.015625 49.71875 11.242188 49.71875 11.507812 C 49.71875 11.777344 49.625 12.003906 49.4375 12.191406 C 49.246094 12.378906 49.019531 12.472656 48.753906 12.472656 C 48.488281 12.472656 48.261719 12.378906 48.074219 12.191406 C 47.53125 11.648438 46.957031 11.140625 46.359375 10.660156 C 45.757812 10.183594 45.132812 9.742188 44.480469 9.335938 C 43.832031 8.929688 43.160156 8.5625 42.464844 8.230469 C 41.773438 7.902344 41.066406 7.609375 40.339844 7.363281 C 39.613281 7.113281 38.878906 6.90625 38.128906 6.738281 C 37.378906 6.574219 36.625 6.449219 35.859375 6.371094 C 35.097656 6.292969 34.332031 6.253906 33.566406 6.261719 C 32.796875 6.269531 32.035156 6.320312 31.273438 6.414062 C 30.511719 6.507812 29.757812 6.644531 29.011719 6.824219 C 28.265625 7.003906 27.53125 7.226562 26.8125 7.488281 C 26.089844 7.753906 25.386719 8.054688 24.703125 8.398438 C 24.015625 8.742188 23.351562 9.121094 22.707031 9.542969 C 22.066406 9.960938 21.449219 10.414062 20.855469 10.902344 C 20.265625 11.390625 19.703125 11.910156 19.171875 12.464844 C 18.640625 13.015625 18.140625 13.597656 17.675781 14.207031 C 17.207031 14.816406 16.777344 15.449219 16.386719 16.109375 C 15.992188 16.765625 15.636719 17.445312 15.316406 18.144531 C 15 18.84375 14.726562 19.554688 14.488281 20.285156 C 14.253906 21.015625 14.058594 21.757812 13.910156 22.507812 C 13.757812 23.261719 13.648438 24.019531 13.582031 24.785156 C 13.519531 25.546875 13.496094 26.3125 13.519531 27.082031 C 13.539062 27.847656 13.605469 28.609375 13.710938 29.371094 C 13.820312 30.128906 13.972656 30.878906 14.167969 31.621094 C 14.359375 32.363281 14.59375 33.09375 14.871094 33.808594 C 15.148438 34.523438 15.464844 35.222656 15.820312 35.902344 C 16.175781 36.582031 16.570312 37.238281 17 37.875 C 17.429688 38.507812 17.894531 39.117188 18.394531 39.699219 C 18.894531 40.28125 19.425781 40.832031 19.988281 41.355469 C 20.550781 41.875 21.140625 42.363281 21.761719 42.816406 C 22.378906 43.273438 23.019531 43.691406 23.683594 44.074219 C 24.351562 44.453125 25.035156 44.796875 25.738281 45.101562 C 26.445312 45.402344 27.164062 45.667969 27.898438 45.890625 C 28.632812 46.109375 29.375 46.289062 30.132812 46.429688 C 30.886719 46.566406 31.644531 46.660156 32.410156 46.710938 C 33.175781 46.761719 33.941406 46.769531 34.710938 46.734375 C 35.476562 46.695312 36.238281 46.617188 36.996094 46.496094 C 37.75 46.371094 38.5 46.207031 39.238281 46 C 39.976562 45.789062 40.699219 45.542969 41.410156 45.253906 C 42.121094 44.960938 42.8125 44.632812 43.484375 44.265625 C 44.160156 43.894531 44.808594 43.488281 45.433594 43.046875 C 46.0625 42.605469 46.660156 42.128906 47.234375 41.617188 C 47.804688 41.105469 48.347656 40.566406 48.859375 39.992188 C 49.371094 39.421875 49.847656 38.820312 50.289062 38.195312 C 50.730469 37.570312 51.136719 36.917969 51.507812 36.246094 C 51.875 35.574219 52.207031 34.882812 52.496094 34.171875 C 52.785156 33.464844 53.035156 32.738281 53.242188 32 C 53.453125 31.261719 53.617188 30.515625 53.742188 29.757812 C 53.863281 29 53.945312 28.238281 53.980469 27.472656 L 33.753906 27.472656 C 33.488281 27.472656 33.261719 27.378906 33.074219 27.191406 C 32.886719 27 32.792969 26.773438 32.792969 26.507812 C 32.792969 26.242188 32.886719 26.015625 33.074219 25.828125 C 33.261719 25.636719 33.488281 25.542969 33.753906 25.542969 L 54.964844 25.542969 C 55.234375 25.542969 55.460938 25.636719 55.648438 25.828125 C 55.835938 26.015625 55.929688 26.242188 55.929688 26.507812 C 55.929688 27.234375 55.894531 27.957031 55.820312 28.679688 C 55.75 29.402344 55.644531 30.121094 55.5 30.832031 C 55.359375 31.542969 55.183594 32.246094 54.96875 32.941406 C 54.757812 33.636719 54.515625 34.320312 54.234375 34.988281 C 53.957031 35.660156 53.648438 36.316406 53.304688 36.957031 C 52.960938 37.597656 52.589844 38.21875 52.1875 38.820312 C 51.78125 39.425781 51.351562 40.007812 50.890625 40.570312 C 50.429688 41.128906 49.941406 41.667969 49.429688 42.179688 C 48.914062 42.695312 48.378906 43.179688 47.816406 43.640625 C 47.253906 44.101562 46.671875 44.535156 46.070312 44.9375 C 45.464844 45.34375 44.84375 45.714844 44.203125 46.058594 C 43.5625 46.398438 42.910156 46.710938 42.238281 46.988281 C 41.566406 47.265625 40.882812 47.511719 40.191406 47.722656 C 39.496094 47.933594 38.792969 48.109375 38.082031 48.253906 C 37.367188 48.394531 36.652344 48.503906 35.929688 48.574219 C 35.207031 48.644531 34.480469 48.683594 33.753906 48.683594 Z M 33.753906 48.683594 "/></g></svg>