<svg xmlns="http://www.w3.org/2000/svg" xmlns:xlink="http://www.w3.org/1999/xlink" width="91" zoomAndPan="magnify" viewBox="0 0 68.25 54" height="72" preserveAspectRatio="xMidYMid meet" version="1.2"><defs><clipPath id="659ddea5a4"><path d="M 15 6 L 53 6 L 53 47.722656 L 15 47.722656 Z M 15 6 "/></clipPath></defs><g id="db81b86fbf"><g clip-rule="nonzero" clip-path="url(#659ddea5a4)"><path style=" stroke:none;fill-rule:nonzero;fill:#0400e9;fill-opacity:1;" d="M 52.632812 45.203125 L 43.691406 33.382812 C 44.148438 32.886719 44.574219 32.359375 44.964844 31.808594 C 45.355469 31.257812 45.710938 30.683594 46.027344 30.089844 C 46.34375 29.492188 46.625 28.878906 46.863281 28.246094 C 47.105469 27.617188 47.304688 26.972656 47.460938 26.3125 C 47.621094 25.65625 47.734375 24.992188 47.808594 24.320312 C 47.882812 23.648438 47.914062 22.976562 47.902344 22.300781 C 47.890625 21.625 47.835938 20.953125 47.738281 20.285156 C 47.640625 19.617188 47.5 18.957031 47.320312 18.304688 C 47.140625 17.652344 46.917969 17.015625 46.65625 16.394531 C 46.394531 15.769531 46.09375 15.167969 45.753906 14.582031 C 45.414062 14 45.042969 13.4375 44.632812 12.898438 C 44.222656 12.363281 43.777344 11.855469 43.304688 11.375 C 42.828125 10.890625 42.328125 10.441406 41.796875 10.027344 C 41.261719 9.609375 40.707031 9.226562 40.128906 8.882812 C 39.546875 8.535156 38.949219 8.226562 38.328125 7.957031 C 37.707031 7.6875 37.074219 7.457031 36.425781 7.265625 C 35.777344 7.078125 35.121094 6.929688 34.453125 6.824219 C 33.785156 6.71875 33.113281 6.652344 32.4375 6.632812 C 31.761719 6.613281 31.089844 6.632812 30.417969 6.699219 C 29.742188 6.765625 29.078125 6.871094 28.417969 7.019531 C 27.761719 7.171875 27.113281 7.359375 26.480469 7.59375 C 25.84375 7.824219 25.226562 8.09375 24.625 8.40625 C 24.027344 8.714844 23.449219 9.0625 22.890625 9.445312 C 22.335938 9.828125 21.804688 10.246094 21.300781 10.699219 C 20.796875 11.148438 20.324219 11.628906 19.882812 12.140625 C 19.441406 12.652344 19.035156 13.1875 18.660156 13.75 C 18.285156 14.3125 17.949219 14.898438 17.648438 15.503906 C 17.347656 16.109375 17.089844 16.730469 16.867188 17.371094 C 16.648438 18.007812 16.46875 18.65625 16.328125 19.320312 C 16.191406 19.980469 16.097656 20.648438 16.042969 21.320312 C 15.988281 21.996094 15.980469 22.667969 16.011719 23.34375 C 16.042969 24.019531 16.117188 24.691406 16.234375 25.355469 C 16.351562 26.019531 16.511719 26.675781 16.714844 27.320312 C 16.914062 27.964844 17.15625 28.597656 17.433594 29.210938 C 17.714844 29.824219 18.035156 30.417969 18.390625 30.992188 C 18.746094 31.566406 19.136719 32.117188 19.5625 32.640625 C 19.988281 33.167969 20.449219 33.660156 20.9375 34.128906 C 21.425781 34.59375 21.941406 35.027344 22.484375 35.429688 C 23.03125 35.828125 23.597656 36.195312 24.1875 36.523438 C 24.777344 36.851562 25.386719 37.140625 26.015625 37.390625 C 26.640625 37.644531 27.28125 37.855469 27.9375 38.023438 C 28.589844 38.195312 29.25 38.320312 29.921875 38.40625 C 30.59375 38.492188 31.265625 38.535156 31.941406 38.539062 C 32.617188 38.539062 33.289062 38.496094 33.960938 38.410156 C 34.628906 38.324219 35.292969 38.199219 35.945312 38.027344 C 36.601562 37.859375 37.242188 37.648438 37.867188 37.398438 C 38.496094 37.148438 39.105469 36.859375 39.695312 36.53125 C 40.285156 36.203125 40.855469 35.835938 41.398438 35.4375 L 50.183594 47.058594 C 50.308594 47.222656 50.457031 47.355469 50.632812 47.457031 C 50.8125 47.5625 51 47.628906 51.203125 47.65625 C 51.40625 47.683594 51.605469 47.671875 51.804688 47.621094 C 52.003906 47.570312 52.183594 47.484375 52.347656 47.359375 C 52.511719 47.238281 52.644531 47.085938 52.746094 46.910156 C 52.851562 46.734375 52.917969 46.542969 52.945312 46.34375 C 52.972656 46.140625 52.960938 45.9375 52.910156 45.742188 C 52.859375 45.542969 52.773438 45.363281 52.648438 45.199219 Z M 18.578125 22.578125 C 18.578125 21.703125 18.664062 20.832031 18.835938 19.96875 C 19.007812 19.109375 19.261719 18.273438 19.597656 17.460938 C 19.933594 16.648438 20.34375 15.878906 20.832031 15.148438 C 21.320312 14.417969 21.875 13.742188 22.496094 13.121094 C 23.117188 12.5 23.792969 11.945312 24.523438 11.457031 C 25.25 10.96875 26.023438 10.558594 26.832031 10.222656 C 27.644531 9.886719 28.480469 9.632812 29.34375 9.460938 C 30.203125 9.289062 31.074219 9.203125 31.953125 9.203125 C 32.832031 9.203125 33.699219 9.289062 34.5625 9.460938 C 35.421875 9.632812 36.257812 9.886719 37.070312 10.222656 C 37.882812 10.558594 38.652344 10.96875 39.382812 11.457031 C 40.113281 11.945312 40.789062 12.5 41.410156 13.121094 C 42.03125 13.742188 42.585938 14.417969 43.074219 15.148438 C 43.558594 15.878906 43.972656 16.648438 44.308594 17.460938 C 44.644531 18.269531 44.898438 19.109375 45.070312 19.96875 C 45.242188 20.832031 45.328125 21.699219 45.328125 22.578125 C 45.328125 23.457031 45.242188 24.324219 45.070312 25.1875 C 44.898438 26.046875 44.644531 26.886719 44.308594 27.695312 C 43.972656 28.507812 43.558594 29.277344 43.070312 30.007812 C 42.582031 30.738281 42.03125 31.414062 41.410156 32.035156 C 40.789062 32.65625 40.113281 33.210938 39.382812 33.699219 C 38.652344 34.1875 37.878906 34.597656 37.070312 34.933594 C 36.257812 35.269531 35.421875 35.523438 34.558594 35.695312 C 33.699219 35.867188 32.828125 35.953125 31.949219 35.953125 C 31.074219 35.953125 30.203125 35.867188 29.34375 35.695312 C 28.480469 35.523438 27.644531 35.269531 26.832031 34.933594 C 26.023438 34.597656 25.253906 34.183594 24.523438 33.695312 C 23.792969 33.210938 23.117188 32.65625 22.496094 32.035156 C 21.875 31.414062 21.320312 30.738281 20.832031 30.007812 C 20.34375 29.277344 19.933594 28.507812 19.597656 27.695312 C 19.261719 26.886719 19.007812 26.050781 18.835938 25.1875 C 18.664062 24.328125 18.578125 23.457031 18.578125 22.578125 Z M 18.578125 22.578125 "/></g></g></svg>