<svg xmlns="http://www.w3.org/2000/svg" xmlns:xlink="http://www.w3.org/1999/xlink" width="91" zoomAndPan="magnify" viewBox="0 0 68.25 54" height="72" preserveAspectRatio="xMidYMid meet" version="1.2"><defs><clipPath id="25108f37fd"><path d="M 16.085938 8.835938 L 51.429688 8.835938 L 51.429688 44.183594 L 16.085938 44.183594 Z M 16.085938 8.835938 "/></clipPath></defs><g id="e2cd4ce5ac"><g clip-rule="nonzero" clip-path="url(#25108f37fd)"><path style=" stroke:none;fill-rule:nonzero;fill:#3b2de0;fill-opacity:1;" d="M 47.484375 8.835938 L 20.027344 8.835938 C 17.871094 8.835938 16.085938 10.621094 16.085938 12.78125 L 16.085938 40.238281 C 16.085938 42.433594 17.871094 44.183594 20.027344 44.183594 L 47.484375 44.183594 C 49.679688 44.183594 51.429688 42.394531 51.429688 40.238281 L 51.429688 12.78125 C 51.429688 10.621094 49.644531 8.835938 47.484375 8.835938 Z M 49.457031 12.78125 L 49.457031 17.171875 L 26.425781 17.171875 L 26.425781 10.808594 L 47.484375 10.808594 C 48.566406 10.808594 49.457031 11.703125 49.457031 12.78125 Z M 24.417969 27.511719 L 24.417969 33.875 L 18.054688 33.875 L 18.054688 27.511719 Z M 18.054688 25.503906 L 18.054688 19.179688 L 24.417969 19.179688 L 24.417969 25.542969 L 18.054688 25.542969 Z M 26.425781 27.511719 L 49.457031 27.511719 L 49.457031 33.875 L 26.425781 33.875 Z M 26.425781 25.503906 L 26.425781 19.179688 L 49.457031 19.179688 L 49.457031 25.542969 L 26.425781 25.542969 Z M 20.027344 10.808594 L 24.417969 10.808594 L 24.417969 17.171875 L 18.054688 17.171875 L 18.054688 12.78125 C 18.054688 11.703125 18.949219 10.808594 20.027344 10.808594 Z M 18.054688 40.238281 L 18.054688 35.847656 L 24.417969 35.847656 L 24.417969 42.210938 L 20.027344 42.210938 C 18.949219 42.210938 18.054688 41.316406 18.054688 40.238281 Z M 47.484375 42.210938 L 26.425781 42.210938 L 26.425781 35.847656 L 49.457031 35.847656 L 49.457031 40.238281 C 49.457031 41.316406 48.566406 42.210938 47.484375 42.210938 Z M 47.484375 42.210938 "/></g></g></svg>