<svg xmlns="http://www.w3.org/2000/svg" xmlns:xlink="http://www.w3.org/1999/xlink" width="91" zoomAndPan="magnify" viewBox="0 0 68.25 54" height="72" preserveAspectRatio="xMidYMid meet" version="1.2"><defs><clipPath id="986ea1a4a3"><path d="M 9.640625 3.144531 L 58 3.144531 L 58 49.535156 L 9.640625 49.535156 Z M 9.640625 3.144531 "/></clipPath></defs><g id="ca670b7e92"><g clip-rule="nonzero" clip-path="url(#986ea1a4a3)"><path style=" stroke:none;fill-rule:nonzero;fill:#0400e9;fill-opacity:1;" d="M 24.371094 18.628906 C 24.382812 17.917969 24.832031 17.539062 25.429688 17.660156 C 25.664062 17.703125 25.890625 17.792969 26.117188 17.875 C 36.253906 21.527344 46.390625 25.179688 56.523438 28.828125 C 56.636719 28.867188 56.75 28.917969 56.859375 28.957031 C 57.191406 29.085938 57.476562 29.261719 57.492188 29.660156 C 57.507812 30.050781 57.324219 30.359375 57 30.5625 C 56.820312 30.679688 56.613281 30.757812 56.414062 30.835938 C 52.207031 32.519531 47.996094 34.207031 43.777344 35.871094 C 43.308594 36.054688 43.050781 36.332031 42.859375 36.785156 C 41.179688 40.792969 39.484375 44.792969 37.792969 48.792969 C 37.667969 49.082031 37.554688 49.378906 37.191406 49.445312 C 36.792969 49.523438 36.511719 49.328125 36.296875 48.792969 C 35.839844 47.65625 35.398438 46.515625 34.949219 45.378906 C 31.488281 36.65625 28.027344 27.933594 24.570312 19.210938 C 24.480469 18.992188 24.417969 18.757812 24.375 18.628906 Z M 55.082031 29.871094 C 53.953125 29.292969 26.722656 19.542969 26.179688 19.515625 C 29.789062 28.613281 33.390625 37.699219 37.035156 46.886719 C 37.175781 46.601562 37.269531 46.4375 37.34375 46.265625 C 38.796875 42.84375 40.257812 39.425781 41.6875 35.992188 C 41.960938 35.34375 42.359375 34.9375 43.015625 34.679688 C 45.519531 33.707031 48.007812 32.695312 50.5 31.699219 C 51.992188 31.105469 53.484375 30.507812 55.082031 29.871094 Z M 16.535156 34.410156 C 18.011719 32.796875 19.46875 31.171875 20.933594 29.546875 C 21.042969 29.425781 21.164062 29.296875 21.242188 29.15625 C 21.402344 28.863281 21.335938 28.496094 21.105469 28.300781 C 20.863281 28.09375 20.523438 28.078125 20.238281 28.285156 C 20.105469 28.386719 19.996094 28.515625 19.882812 28.640625 C 18.433594 30.246094 16.980469 31.847656 15.535156 33.453125 C 15.378906 33.628906 15.207031 33.816406 15.117188 34.027344 C 14.917969 34.480469 15.234375 34.933594 15.886719 34.929688 C 16.035156 34.816406 16.320312 34.644531 16.535156 34.410156 Z M 20.957031 12.90625 C 19.386719 11.398438 17.796875 9.898438 16.214844 8.398438 C 16.078125 8.269531 15.929688 8.136719 15.765625 8.046875 C 15.453125 7.875 15.117188 7.933594 14.921875 8.1875 C 14.71875 8.441406 14.714844 8.71875 14.898438 8.984375 C 14.988281 9.121094 15.105469 9.246094 15.226562 9.359375 C 16.824219 10.882812 18.421875 12.398438 20.027344 13.914062 C 20.179688 14.058594 20.355469 14.203125 20.550781 14.285156 C 21.011719 14.476562 21.441406 14.167969 21.425781 13.503906 C 21.328125 13.375 21.175781 13.109375 20.960938 12.90625 Z M 36.300781 14.109375 C 37.816406 12.570312 39.316406 11.011719 40.820312 9.464844 C 40.902344 9.378906 40.992188 9.292969 41.054688 9.191406 C 41.230469 8.902344 41.203125 8.539062 41 8.320312 C 40.792969 8.105469 40.425781 8.050781 40.132812 8.21875 C 40.011719 8.285156 39.902344 8.390625 39.804688 8.492188 C 38.300781 10.046875 36.800781 11.597656 35.300781 13.15625 C 35.136719 13.324219 34.976562 13.519531 34.890625 13.734375 C 34.714844 14.164062 35.007812 14.582031 35.628906 14.605469 C 35.785156 14.492188 36.078125 14.339844 36.300781 14.109375 Z M 13.921875 20.816406 C 13.035156 20.816406 12.148438 20.8125 11.261719 20.820312 C 10.902344 20.824219 10.542969 20.835938 10.1875 20.882812 C 9.867188 20.921875 9.6875 21.144531 9.664062 21.472656 C 9.636719 21.800781 9.832031 22.078125 10.167969 22.15625 C 10.351562 22.199219 10.546875 22.195312 10.738281 22.191406 C 12.871094 22.148438 15 22.101562 17.132812 22.054688 C 17.273438 22.050781 17.421875 22.046875 17.558594 22.007812 C 17.886719 21.914062 18.089844 21.628906 18.054688 21.3125 C 18.019531 20.988281 17.828125 20.785156 17.511719 20.734375 C 17.320312 20.707031 17.128906 20.714844 16.9375 20.710938 C 15.929688 20.710938 14.921875 20.710938 13.917969 20.710938 L 13.917969 20.816406 Z M 27.257812 7.355469 C 27.257812 8.316406 27.257812 9.277344 27.257812 10.234375 C 27.257812 10.425781 27.257812 10.621094 27.285156 10.808594 C 27.339844 11.128906 27.535156 11.324219 27.863281 11.351562 C 28.195312 11.378906 28.425781 11.207031 28.535156 10.914062 C 28.597656 10.738281 28.601562 10.539062 28.609375 10.347656 C 28.648438 8.332031 28.6875 6.3125 28.714844 4.296875 C 28.71875 4.0625 28.679688 3.820312 28.609375 3.59375 C 28.527344 3.3125 28.285156 3.136719 28.003906 3.195312 C 27.796875 3.238281 27.550781 3.390625 27.449219 3.566406 C 27.328125 3.78125 27.308594 4.074219 27.304688 4.332031 C 27.289062 5.339844 27.300781 6.347656 27.300781 7.359375 L 27.257812 7.359375 Z M 27.257812 7.355469 "/></g></g></svg>