<svg xmlns="http://www.w3.org/2000/svg" xmlns:xlink="http://www.w3.org/1999/xlink" width="91" zoomAndPan="magnify" viewBox="0 0 68.25 54" height="72" preserveAspectRatio="xMidYMid meet" version="1.2"><defs><clipPath id="78e0e7e590"><path d="M 11.703125 6 L 55 6 L 55 48.636719 L 11.703125 48.636719 Z M 11.703125 6 "/></clipPath></defs><g id="2846610ed4"><path style=" stroke:none;fill-rule:nonzero;fill:#3b2de0;fill-opacity:1;" d="M 31.671875 28.386719 L 31.671875 38.703125 C 31.136719 38.546875 30.636719 38.3125 30.179688 37.992188 C 29.71875 37.675781 29.320312 37.292969 28.988281 36.847656 C 28.652344 36.402344 28.394531 35.914062 28.21875 35.382812 C 28.039062 34.855469 27.949219 34.308594 27.949219 33.75 C 27.949219 33.589844 27.917969 33.4375 27.859375 33.289062 C 27.796875 33.140625 27.710938 33.011719 27.597656 32.898438 C 27.484375 32.785156 27.351562 32.699219 27.203125 32.636719 C 27.058594 32.574219 26.902344 32.542969 26.742188 32.542969 C 26.582031 32.542969 26.429688 32.574219 26.28125 32.636719 C 26.132812 32.699219 26.003906 32.785156 25.890625 32.898438 C 25.777344 33.011719 25.691406 33.140625 25.628906 33.289062 C 25.566406 33.4375 25.535156 33.589844 25.535156 33.75 C 25.535156 34.1875 25.574219 34.621094 25.648438 35.050781 C 25.722656 35.484375 25.832031 35.902344 25.980469 36.316406 C 26.128906 36.726562 26.308594 37.121094 26.527344 37.5 C 26.742188 37.878906 26.988281 38.238281 27.265625 38.578125 C 27.542969 38.914062 27.847656 39.222656 28.179688 39.507812 C 28.511719 39.792969 28.867188 40.046875 29.242188 40.269531 C 29.617188 40.492188 30.007812 40.683594 30.417969 40.839844 C 30.824219 40.992188 31.242188 41.113281 31.671875 41.195312 L 31.671875 43.710938 C 31.671875 43.871094 31.703125 44.027344 31.765625 44.171875 C 31.824219 44.320312 31.914062 44.453125 32.023438 44.566406 C 32.136719 44.679688 32.269531 44.765625 32.417969 44.828125 C 32.566406 44.886719 32.71875 44.917969 32.878906 44.917969 C 33.039062 44.917969 33.191406 44.886719 33.339844 44.828125 C 33.488281 44.765625 33.617188 44.679688 33.730469 44.566406 C 33.84375 44.453125 33.933594 44.320312 33.992188 44.171875 C 34.054688 44.027344 34.085938 43.871094 34.085938 43.710938 L 34.085938 41.25 C 34.539062 41.191406 34.980469 41.09375 35.417969 40.957031 C 35.851562 40.820312 36.269531 40.644531 36.671875 40.429688 C 37.074219 40.214844 37.457031 39.96875 37.816406 39.683594 C 38.171875 39.402344 38.503906 39.089844 38.804688 38.75 C 39.105469 38.40625 39.375 38.039062 39.609375 37.648438 C 39.84375 37.257812 40.042969 36.847656 40.203125 36.421875 C 40.363281 35.996094 40.488281 35.558594 40.570312 35.109375 C 40.652344 34.660156 40.691406 34.207031 40.691406 33.75 C 40.691406 33.296875 40.652344 32.84375 40.570312 32.394531 C 40.488281 31.945312 40.363281 31.507812 40.203125 31.082031 C 40.042969 30.652344 39.84375 30.246094 39.609375 29.855469 C 39.375 29.464844 39.105469 29.097656 38.804688 28.753906 C 38.503906 28.410156 38.171875 28.097656 37.816406 27.816406 C 37.457031 27.535156 37.074219 27.285156 36.671875 27.074219 C 36.269531 26.859375 35.851562 26.683594 35.417969 26.546875 C 34.980469 26.40625 34.539062 26.308594 34.085938 26.253906 L 34.085938 15.9375 C 34.621094 16.09375 35.117188 16.328125 35.578125 16.648438 C 36.039062 16.964844 36.433594 17.347656 36.769531 17.792969 C 37.105469 18.238281 37.363281 18.726562 37.539062 19.257812 C 37.71875 19.785156 37.804688 20.332031 37.808594 20.890625 C 37.808594 21.050781 37.839844 21.203125 37.898438 21.351562 C 37.960938 21.5 38.046875 21.628906 38.160156 21.742188 C 38.273438 21.855469 38.40625 21.941406 38.550781 22.003906 C 38.699219 22.066406 38.855469 22.09375 39.015625 22.09375 C 39.175781 22.09375 39.328125 22.066406 39.476562 22.003906 C 39.625 21.941406 39.753906 21.855469 39.867188 21.742188 C 39.980469 21.628906 40.066406 21.5 40.128906 21.351562 C 40.191406 21.203125 40.222656 21.050781 40.222656 20.890625 C 40.222656 20.453125 40.183594 20.019531 40.109375 19.589844 C 40.035156 19.15625 39.921875 18.738281 39.777344 18.324219 C 39.628906 17.914062 39.445312 17.519531 39.230469 17.140625 C 39.015625 16.757812 38.769531 16.402344 38.492188 16.0625 C 38.214844 15.726562 37.910156 15.417969 37.578125 15.132812 C 37.246094 14.847656 36.890625 14.59375 36.515625 14.371094 C 36.140625 14.148438 35.75 13.957031 35.339844 13.800781 C 34.933594 13.648438 34.515625 13.527344 34.085938 13.445312 L 34.085938 10.941406 C 34.085938 10.78125 34.054688 10.625 33.992188 10.480469 C 33.933594 10.332031 33.84375 10.199219 33.730469 10.085938 C 33.617188 9.972656 33.488281 9.886719 33.339844 9.824219 C 33.191406 9.765625 33.039062 9.734375 32.878906 9.734375 C 32.71875 9.734375 32.566406 9.765625 32.417969 9.824219 C 32.269531 9.886719 32.136719 9.972656 32.023438 10.085938 C 31.914062 10.199219 31.824219 10.332031 31.765625 10.480469 C 31.703125 10.625 31.671875 10.78125 31.671875 10.941406 L 31.671875 13.390625 C 31.21875 13.449219 30.777344 13.546875 30.339844 13.683594 C 29.90625 13.820312 29.488281 13.996094 29.085938 14.210938 C 28.679688 14.425781 28.300781 14.671875 27.941406 14.953125 C 27.585938 15.238281 27.253906 15.550781 26.953125 15.890625 C 26.652344 16.234375 26.382812 16.601562 26.148438 16.992188 C 25.914062 17.382812 25.714844 17.792969 25.554688 18.21875 C 25.390625 18.644531 25.269531 19.082031 25.1875 19.53125 C 25.105469 19.980469 25.066406 20.433594 25.066406 20.890625 C 25.066406 21.34375 25.105469 21.796875 25.1875 22.246094 C 25.269531 22.695312 25.390625 23.132812 25.554688 23.558594 C 25.714844 23.988281 25.914062 24.394531 26.148438 24.785156 C 26.382812 25.175781 26.652344 25.542969 26.953125 25.886719 C 27.253906 26.226562 27.585938 26.539062 27.941406 26.824219 C 28.300781 27.105469 28.679688 27.355469 29.085938 27.566406 C 29.488281 27.78125 29.90625 27.957031 30.339844 28.09375 C 30.777344 28.234375 31.21875 28.332031 31.671875 28.386719 Z M 38.261719 33.75 C 38.261719 34.351562 38.160156 34.929688 37.957031 35.492188 C 37.753906 36.058594 37.460938 36.570312 37.082031 37.03125 C 36.699219 37.492188 36.253906 37.878906 35.738281 38.183594 C 35.222656 38.488281 34.671875 38.699219 34.085938 38.8125 L 34.085938 28.695312 C 34.671875 28.808594 35.222656 29.019531 35.738281 29.324219 C 36.25 29.628906 36.699219 30.015625 37.078125 30.476562 C 37.460938 30.9375 37.75 31.449219 37.953125 32.011719 C 38.15625 32.574219 38.257812 33.152344 38.261719 33.75 Z M 31.671875 15.855469 L 31.671875 25.945312 C 31.09375 25.824219 30.550781 25.609375 30.042969 25.300781 C 29.539062 24.992188 29.101562 24.609375 28.726562 24.152344 C 28.351562 23.691406 28.066406 23.183594 27.871094 22.625 C 27.671875 22.066406 27.570312 21.492188 27.570312 20.902344 C 27.570312 20.308594 27.671875 19.734375 27.871094 19.175781 C 28.066406 18.617188 28.351562 18.109375 28.726562 17.652344 C 29.101562 17.191406 29.539062 16.808594 30.042969 16.5 C 30.550781 16.191406 31.09375 15.976562 31.671875 15.855469 Z M 31.671875 15.855469 "/><g clip-rule="nonzero" clip-path="url(#78e0e7e590)"><path style=" stroke:none;fill-rule:nonzero;fill:#3b2de0;fill-opacity:1;" d="M 32.878906 48.527344 C 33.574219 48.527344 34.265625 48.492188 34.957031 48.425781 C 35.648438 48.355469 36.335938 48.253906 37.015625 48.117188 C 37.695312 47.984375 38.371094 47.816406 39.035156 47.613281 C 39.699219 47.410156 40.351562 47.175781 40.992188 46.910156 C 41.636719 46.644531 42.261719 46.347656 42.875 46.023438 C 43.488281 45.695312 44.082031 45.339844 44.660156 44.953125 C 45.238281 44.566406 45.792969 44.152344 46.332031 43.710938 C 46.867188 43.273438 47.382812 42.804688 47.875 42.316406 C 48.363281 41.824219 48.832031 41.308594 49.269531 40.773438 C 49.710938 40.234375 50.125 39.679688 50.511719 39.101562 C 50.898438 38.523438 51.253906 37.929688 51.582031 37.316406 C 51.90625 36.703125 52.203125 36.078125 52.46875 35.433594 C 52.734375 34.792969 52.96875 34.140625 53.171875 33.476562 C 53.375 32.8125 53.542969 32.136719 53.675781 31.457031 C 53.8125 30.777344 53.914062 30.089844 53.984375 29.398438 C 54.050781 28.707031 54.085938 28.015625 54.085938 27.320312 C 54.085938 26.625 54.050781 25.933594 53.984375 25.242188 C 53.914062 24.550781 53.8125 23.863281 53.675781 23.183594 C 53.542969 22.5 53.375 21.828125 53.171875 21.164062 C 52.96875 20.5 52.734375 19.847656 52.46875 19.203125 C 52.203125 18.5625 51.90625 17.9375 51.582031 17.324219 C 51.253906 16.710938 50.898438 16.117188 50.511719 15.539062 C 50.125 14.960938 49.710938 14.402344 49.269531 13.867188 C 48.832031 13.332031 48.363281 12.816406 47.875 12.324219 C 47.382812 11.835938 46.867188 11.367188 46.332031 10.925781 C 45.792969 10.488281 45.238281 10.074219 44.660156 9.6875 C 44.082031 9.300781 43.488281 8.945312 42.875 8.617188 C 42.261719 8.289062 41.636719 7.992188 40.992188 7.726562 C 40.351562 7.460938 39.699219 7.230469 39.035156 7.027344 C 38.371094 6.824219 37.695312 6.65625 37.015625 6.523438 C 36.335938 6.386719 35.648438 6.285156 34.957031 6.214844 C 34.265625 6.148438 33.574219 6.113281 32.878906 6.113281 C 32.183594 6.113281 31.492188 6.148438 30.800781 6.214844 C 30.109375 6.285156 29.421875 6.386719 28.742188 6.523438 C 28.058594 6.65625 27.386719 6.824219 26.722656 7.027344 C 26.058594 7.230469 25.40625 7.460938 24.761719 7.726562 C 24.121094 7.992188 23.496094 8.289062 22.882812 8.617188 C 22.269531 8.945312 21.675781 9.300781 21.097656 9.6875 C 20.519531 10.074219 19.960938 10.488281 19.425781 10.925781 C 18.890625 11.367188 18.375 11.835938 17.882812 12.324219 C 17.390625 12.816406 16.925781 13.332031 16.484375 13.867188 C 16.046875 14.402344 15.632812 14.960938 15.246094 15.539062 C 14.859375 16.117188 14.503906 16.710938 14.175781 17.324219 C 13.847656 17.9375 13.550781 18.5625 13.285156 19.203125 C 13.019531 19.847656 12.789062 20.5 12.585938 21.164062 C 12.382812 21.828125 12.214844 22.5 12.078125 23.183594 C 11.945312 23.863281 11.84375 24.550781 11.773438 25.242188 C 11.707031 25.933594 11.671875 26.625 11.671875 27.320312 C 11.671875 28.015625 11.707031 28.707031 11.777344 29.398438 C 11.84375 30.089844 11.949219 30.773438 12.085938 31.457031 C 12.21875 32.136719 12.390625 32.808594 12.589844 33.472656 C 12.792969 34.136719 13.027344 34.789062 13.292969 35.429688 C 13.558594 36.074219 13.855469 36.699219 14.183594 37.3125 C 14.511719 37.925781 14.867188 38.519531 15.253906 39.097656 C 15.640625 39.671875 16.054688 40.230469 16.492188 40.765625 C 16.933594 41.304688 17.398438 41.816406 17.890625 42.308594 C 18.382812 42.800781 18.894531 43.265625 19.433594 43.707031 C 19.96875 44.144531 20.527344 44.558594 21.101562 44.945312 C 21.679688 45.332031 22.273438 45.6875 22.886719 46.015625 C 23.5 46.34375 24.125 46.640625 24.765625 46.90625 C 25.410156 47.171875 26.0625 47.40625 26.726562 47.609375 C 27.390625 47.808594 28.0625 47.980469 28.742188 48.113281 C 29.425781 48.25 30.109375 48.351562 30.800781 48.421875 C 31.492188 48.492188 32.183594 48.523438 32.878906 48.527344 Z M 32.878906 8.527344 C 33.492188 8.527344 34.109375 8.558594 34.71875 8.617188 C 35.332031 8.679688 35.941406 8.769531 36.542969 8.886719 C 37.148438 9.007812 37.746094 9.15625 38.332031 9.335938 C 38.921875 9.515625 39.5 9.722656 40.070312 9.957031 C 40.640625 10.191406 41.195312 10.457031 41.738281 10.746094 C 42.28125 11.035156 42.808594 11.351562 43.320312 11.695312 C 43.832031 12.035156 44.324219 12.402344 44.800781 12.792969 C 45.277344 13.183594 45.730469 13.597656 46.167969 14.03125 C 46.601562 14.464844 47.015625 14.921875 47.40625 15.398438 C 47.796875 15.875 48.164062 16.367188 48.503906 16.878906 C 48.847656 17.390625 49.164062 17.917969 49.453125 18.460938 C 49.742188 19.003906 50.003906 19.558594 50.242188 20.128906 C 50.476562 20.695312 50.683594 21.277344 50.863281 21.863281 C 51.039062 22.453125 51.191406 23.050781 51.308594 23.652344 C 51.429688 24.257812 51.519531 24.867188 51.582031 25.476562 C 51.640625 26.089844 51.671875 26.703125 51.671875 27.320312 C 51.671875 27.9375 51.640625 28.550781 51.582031 29.164062 C 51.519531 29.773438 51.429688 30.382812 51.308594 30.988281 C 51.191406 31.589844 51.039062 32.1875 50.863281 32.773438 C 50.683594 33.363281 50.476562 33.941406 50.242188 34.511719 C 50.003906 35.082031 49.742188 35.636719 49.453125 36.179688 C 49.164062 36.722656 48.847656 37.25 48.503906 37.761719 C 48.164062 38.273438 47.796875 38.765625 47.40625 39.242188 C 47.015625 39.71875 46.601562 40.171875 46.167969 40.609375 C 45.730469 41.042969 45.277344 41.457031 44.800781 41.847656 C 44.324219 42.238281 43.832031 42.605469 43.320312 42.945312 C 42.808594 43.289062 42.28125 43.605469 41.738281 43.894531 C 41.195312 44.183594 40.640625 44.445312 40.070312 44.683594 C 39.5 44.917969 38.921875 45.125 38.332031 45.304688 C 37.746094 45.480469 37.148438 45.632812 36.542969 45.75 C 35.941406 45.871094 35.332031 45.960938 34.71875 46.023438 C 34.109375 46.082031 33.492188 46.113281 32.878906 46.113281 C 32.261719 46.113281 31.648438 46.082031 31.035156 46.023438 C 30.425781 45.960938 29.816406 45.871094 29.210938 45.75 C 28.609375 45.632812 28.011719 45.480469 27.421875 45.304688 C 26.835938 45.125 26.253906 44.917969 25.6875 44.683594 C 25.117188 44.445312 24.5625 44.183594 24.019531 43.894531 C 23.476562 43.605469 22.949219 43.289062 22.4375 42.945312 C 21.925781 42.605469 21.433594 42.238281 20.957031 41.847656 C 20.480469 41.457031 20.023438 41.042969 19.589844 40.609375 C 19.15625 40.171875 18.742188 39.71875 18.351562 39.242188 C 17.960938 38.765625 17.59375 38.273438 17.253906 37.761719 C 16.910156 37.25 16.59375 36.722656 16.304688 36.179688 C 16.015625 35.636719 15.75 35.082031 15.515625 34.511719 C 15.28125 33.941406 15.074219 33.363281 14.894531 32.773438 C 14.714844 32.1875 14.566406 31.589844 14.445312 30.988281 C 14.328125 30.382812 14.238281 29.773438 14.175781 29.164062 C 14.117188 28.550781 14.085938 27.9375 14.085938 27.320312 C 14.085938 26.703125 14.117188 26.089844 14.179688 25.480469 C 14.238281 24.867188 14.328125 24.257812 14.449219 23.65625 C 14.570312 23.050781 14.71875 22.457031 14.898438 21.867188 C 15.078125 21.277344 15.285156 20.699219 15.519531 20.132812 C 15.757812 19.5625 16.019531 19.007812 16.308594 18.464844 C 16.601562 17.921875 16.917969 17.394531 17.257812 16.882812 C 17.601562 16.371094 17.964844 15.878906 18.355469 15.402344 C 18.746094 14.925781 19.160156 14.472656 19.59375 14.035156 C 20.03125 13.601562 20.484375 13.1875 20.960938 12.796875 C 21.4375 12.40625 21.929688 12.042969 22.441406 11.699219 C 22.953125 11.359375 23.480469 11.042969 24.023438 10.75 C 24.566406 10.460938 25.121094 10.199219 25.691406 9.960938 C 26.257812 9.726562 26.835938 9.519531 27.425781 9.339844 C 28.015625 9.160156 28.609375 9.011719 29.214844 8.890625 C 29.816406 8.769531 30.425781 8.679688 31.039062 8.621094 C 31.648438 8.558594 32.261719 8.527344 32.878906 8.527344 Z M 32.878906 8.527344 "/></g></g></svg>