<svg xmlns="http://www.w3.org/2000/svg" xmlns:xlink="http://www.w3.org/1999/xlink" width="91" zoomAndPan="magnify" viewBox="0 0 68.25 54" height="72" preserveAspectRatio="xMidYMid meet" version="1.2"><defs><clipPath id="292c309499"><path d="M 9.191406 7.59375 L 58 7.59375 L 58 45.148438 L 9.191406 45.148438 Z M 9.191406 7.59375 "/></clipPath><clipPath id="d0fddbf2a9"><path d="M 9.191406 14 L 58 14 L 58 17 L 9.191406 17 Z M 9.191406 14 "/></clipPath></defs><g id="f973c70e65"><g clip-rule="nonzero" clip-path="url(#292c309499)"><path style=" stroke:none;fill-rule:nonzero;fill:#0400e9;fill-opacity:1;" d="M 12.203125 9.53125 C 11.667969 9.53125 11.230469 9.96875 11.230469 10.5 L 11.230469 42.21875 C 11.230469 42.753906 11.667969 43.191406 12.203125 43.191406 L 54.957031 43.191406 C 55.492188 43.191406 55.929688 42.753906 55.929688 42.21875 L 55.929688 10.5 C 55.929688 9.96875 55.492188 9.53125 54.957031 9.53125 Z M 54.957031 45.136719 L 12.203125 45.136719 C 10.597656 45.136719 9.289062 43.828125 9.289062 42.21875 L 9.289062 10.5 C 9.289062 8.894531 10.597656 7.585938 12.203125 7.585938 L 54.957031 7.585938 C 56.5625 7.585938 57.871094 8.894531 57.871094 10.5 L 57.871094 42.21875 C 57.871094 43.828125 56.5625 45.136719 54.957031 45.136719 "/></g><g clip-rule="nonzero" clip-path="url(#d0fddbf2a9)"><path style=" stroke:none;fill-rule:nonzero;fill:#0400e9;fill-opacity:1;" d="M 56.898438 16.71875 L 10.257812 16.71875 C 9.722656 16.71875 9.289062 16.285156 9.289062 15.746094 C 9.289062 15.210938 9.722656 14.777344 10.257812 14.777344 L 56.898438 14.777344 C 57.4375 14.777344 57.871094 15.210938 57.871094 15.746094 C 57.871094 16.285156 57.4375 16.71875 56.898438 16.71875 "/></g><path style=" stroke:none;fill-rule:nonzero;fill:#0400e9;fill-opacity:1;" d="M 53.351562 13.125 C 53.101562 13.125 52.84375 13.019531 52.671875 12.835938 C 52.484375 12.660156 52.378906 12.40625 52.378906 12.15625 C 52.378906 12.085938 52.390625 12.027344 52.398438 11.960938 C 52.410156 11.902344 52.429688 11.84375 52.460938 11.773438 C 52.476562 11.714844 52.515625 11.667969 52.546875 11.613281 C 52.585938 11.5625 52.621094 11.515625 52.671875 11.464844 C 53.03125 11.105469 53.683594 11.105469 54.042969 11.464844 C 54.226562 11.648438 54.324219 11.890625 54.324219 12.15625 C 54.324219 12.40625 54.226562 12.660156 54.042969 12.835938 C 53.996094 12.882812 53.945312 12.921875 53.898438 12.960938 C 53.835938 12.988281 53.789062 13.027344 53.722656 13.050781 C 53.664062 13.078125 53.605469 13.097656 53.546875 13.105469 C 53.476562 13.117188 53.421875 13.125 53.351562 13.125 "/><path style=" stroke:none;fill-rule:nonzero;fill:#0400e9;fill-opacity:1;" d="M 49.523438 13.125 C 49.269531 13.125 49.019531 13.019531 48.832031 12.835938 C 48.660156 12.660156 48.550781 12.40625 48.550781 12.15625 C 48.550781 12.027344 48.570312 11.902344 48.621094 11.773438 C 48.679688 11.660156 48.746094 11.550781 48.832031 11.464844 C 49.066406 11.242188 49.398438 11.132812 49.707031 11.203125 C 49.777344 11.210938 49.835938 11.230469 49.894531 11.25 C 49.953125 11.28125 50.007812 11.308594 50.058594 11.347656 C 50.117188 11.378906 50.164062 11.414062 50.214844 11.464844 C 50.390625 11.648438 50.496094 11.902344 50.496094 12.15625 C 50.496094 12.40625 50.390625 12.660156 50.214844 12.835938 C 50.164062 12.882812 50.117188 12.921875 50.058594 12.960938 C 50.007812 12.988281 49.953125 13.027344 49.894531 13.050781 C 49.835938 13.078125 49.777344 13.097656 49.707031 13.105469 C 49.648438 13.117188 49.582031 13.125 49.523438 13.125 "/><path style=" stroke:none;fill-rule:nonzero;fill:#0400e9;fill-opacity:1;" d="M 45.683594 13.125 C 45.433594 13.125 45.1875 13.019531 45.003906 12.835938 C 44.957031 12.796875 44.917969 12.746094 44.878906 12.691406 C 44.851562 12.640625 44.820312 12.582031 44.792969 12.523438 C 44.773438 12.464844 44.753906 12.40625 44.742188 12.339844 C 44.722656 12.28125 44.722656 12.210938 44.722656 12.15625 C 44.722656 12.085938 44.722656 12.027344 44.742188 11.960938 C 44.753906 11.902344 44.773438 11.835938 44.792969 11.773438 C 44.820312 11.714844 44.851562 11.667969 44.878906 11.613281 C 44.917969 11.5625 44.957031 11.515625 45.003906 11.464844 C 45.09375 11.378906 45.199219 11.308594 45.316406 11.25 C 45.5 11.183594 45.695312 11.164062 45.878906 11.203125 C 45.9375 11.210938 46.003906 11.230469 46.066406 11.25 C 46.121094 11.28125 46.179688 11.308594 46.230469 11.347656 C 46.289062 11.378906 46.339844 11.414062 46.375 11.464844 C 46.425781 11.515625 46.464844 11.5625 46.5 11.613281 C 46.53125 11.667969 46.5625 11.714844 46.589844 11.773438 C 46.609375 11.84375 46.628906 11.902344 46.648438 11.960938 C 46.660156 12.027344 46.667969 12.085938 46.667969 12.15625 C 46.667969 12.210938 46.660156 12.28125 46.648438 12.339844 C 46.628906 12.40625 46.609375 12.464844 46.589844 12.523438 C 46.5625 12.582031 46.53125 12.640625 46.5 12.691406 C 46.464844 12.746094 46.425781 12.796875 46.375 12.835938 C 46.339844 12.882812 46.289062 12.921875 46.230469 12.960938 C 46.179688 13 46.121094 13.027344 46.066406 13.050781 C 46.003906 13.078125 45.9375 13.097656 45.878906 13.105469 C 45.820312 13.117188 45.753906 13.125 45.683594 13.125 "/></g></svg>