<svg xmlns="http://www.w3.org/2000/svg" xmlns:xlink="http://www.w3.org/1999/xlink" width="91" zoomAndPan="magnify" viewBox="0 0 68.25 54" height="72" preserveAspectRatio="xMidYMid meet" version="1.2"><defs><clipPath id="71faa1b1d4"><path d="M 5.296875 9.859375 L 63.46875 9.859375 L 63.46875 42.261719 L 5.296875 42.261719 Z M 5.296875 9.859375 "/></clipPath></defs><g id="437f62d2c7"><path style=" stroke:none;fill-rule:nonzero;fill:#3b2de0;fill-opacity:1;" d="M 34.382812 20.707031 C 31.441406 20.707031 29.054688 23.097656 29.054688 26.035156 C 29.054688 28.976562 31.441406 31.367188 34.382812 31.367188 C 37.320312 31.367188 39.714844 28.976562 39.714844 26.035156 C 39.714844 23.097656 37.320312 20.707031 34.382812 20.707031 "/><g clip-rule="nonzero" clip-path="url(#71faa1b1d4)"><path style=" stroke:none;fill-rule:nonzero;fill:#3b2de0;fill-opacity:1;" d="M 59.8125 26.375 C 59.4375 26.796875 52.277344 34.757812 42.519531 38.050781 C 46.289062 35.449219 48.761719 31.101562 48.761719 26.1875 C 48.761719 20.871094 45.867188 16.21875 41.570312 13.722656 C 51.8125 16.796875 59.425781 25.265625 59.8125 25.703125 L 60.113281 26.039062 Z M 8.949219 26.375 L 8.652344 26.039062 L 8.945312 25.707031 C 9.335938 25.269531 16.929688 16.894531 27.050781 13.777344 C 22.804688 16.285156 19.949219 20.910156 19.949219 26.1875 C 19.949219 31.074219 22.394531 35.398438 26.125 38.003906 C 16.441406 34.6875 9.324219 26.792969 8.949219 26.375 Z M 34.355469 37.835938 C 27.933594 37.835938 22.707031 32.609375 22.707031 26.1875 C 22.707031 19.765625 27.933594 14.539062 34.355469 14.539062 C 40.78125 14.539062 46.003906 19.765625 46.003906 26.1875 C 46.003906 32.609375 40.78125 37.835938 34.355469 37.835938 Z M 62.988281 25.121094 L 61.875 23.871094 C 61.371094 23.300781 49.285156 9.859375 34.382812 9.859375 C 28.148438 9.859375 21.691406 12.152344 15.195312 16.675781 C 10.386719 20.019531 7.234375 23.484375 6.886719 23.871094 L 5.777344 25.121094 C 5.316406 25.644531 5.316406 26.429688 5.777344 26.953125 L 6.890625 28.203125 C 7.226562 28.585938 10.34375 32.03125 15.1875 35.402344 C 21.6875 39.921875 28.144531 42.214844 34.382812 42.214844 C 49.285156 42.214844 61.371094 28.773438 61.875 28.203125 L 62.988281 26.953125 C 63.449219 26.429688 63.449219 25.644531 62.988281 25.121094 "/></g></g></svg>