<svg xmlns="http://www.w3.org/2000/svg" xmlns:xlink="http://www.w3.org/1999/xlink" width="91" zoomAndPan="magnify" viewBox="0 0 68.25 54" height="72" preserveAspectRatio="xMidYMid meet" version="1.2"><defs><clipPath id="4cf777c7e6"><path d="M 9.125 1.878906 L 58.460938 1.878906 L 58.460938 51.214844 L 9.125 51.214844 Z M 9.125 1.878906 "/></clipPath></defs><g id="8867e914bf"><g clip-rule="nonzero" clip-path="url(#4cf777c7e6)"><path style=" stroke:none;fill-rule:nonzero;fill:#0400e9;fill-opacity:1;" d="M 50.804688 1.878906 L 16.703125 1.878906 C 16.207031 1.878906 15.714844 1.925781 15.226562 2.023438 C 14.738281 2.121094 14.265625 2.265625 13.804688 2.457031 C 13.34375 2.648438 12.910156 2.882812 12.496094 3.15625 C 12.082031 3.433594 11.699219 3.746094 11.347656 4.101562 C 10.996094 4.453125 10.679688 4.835938 10.40625 5.246094 C 10.128906 5.660156 9.894531 6.097656 9.703125 6.558594 C 9.515625 7.015625 9.371094 7.488281 9.273438 7.976562 C 9.175781 8.464844 9.125 8.957031 9.125 9.457031 L 9.125 43.554688 C 9.125 44.054688 9.175781 44.546875 9.273438 45.035156 C 9.371094 45.519531 9.515625 45.996094 9.703125 46.453125 C 9.894531 46.914062 10.128906 47.351562 10.40625 47.765625 C 10.679688 48.175781 10.996094 48.558594 11.347656 48.910156 C 11.699219 49.261719 12.082031 49.578125 12.496094 49.855469 C 12.910156 50.128906 13.34375 50.363281 13.804688 50.554688 C 14.265625 50.746094 14.738281 50.890625 15.226562 50.988281 C 15.714844 51.082031 16.207031 51.132812 16.703125 51.132812 L 50.804688 51.132812 C 51.300781 51.132812 51.792969 51.082031 52.28125 50.988281 C 52.769531 50.890625 53.242188 50.746094 53.703125 50.554688 C 54.160156 50.363281 54.597656 50.128906 55.011719 49.855469 C 55.425781 49.578125 55.808594 49.261719 56.160156 48.910156 C 56.511719 48.558594 56.824219 48.175781 57.101562 47.765625 C 57.378906 47.351562 57.613281 46.914062 57.800781 46.453125 C 57.992188 45.996094 58.136719 45.519531 58.234375 45.035156 C 58.332031 44.546875 58.378906 44.054688 58.382812 43.554688 L 58.382812 9.457031 C 58.378906 8.957031 58.332031 8.464844 58.234375 7.976562 C 58.136719 7.488281 57.992188 7.015625 57.800781 6.558594 C 57.613281 6.097656 57.378906 5.660156 57.101562 5.246094 C 56.824219 4.835938 56.511719 4.453125 56.160156 4.101562 C 55.808594 3.746094 55.425781 3.433594 55.011719 3.15625 C 54.597656 2.882812 54.160156 2.648438 53.703125 2.457031 C 53.242188 2.265625 52.769531 2.121094 52.28125 2.023438 C 51.792969 1.925781 51.300781 1.878906 50.804688 1.878906 Z M 50.804688 16.085938 C 50.804688 16.523438 50.761719 16.953125 50.675781 17.378906 C 50.589844 17.808594 50.464844 18.222656 50.296875 18.625 C 50.132812 19.027344 49.929688 19.40625 49.6875 19.769531 C 49.445312 20.132812 49.167969 20.46875 48.863281 20.773438 C 48.554688 21.082031 48.21875 21.355469 47.855469 21.597656 C 47.496094 21.839844 47.113281 22.046875 46.710938 22.210938 C 46.308594 22.378906 45.894531 22.503906 45.464844 22.589844 C 45.039062 22.675781 44.609375 22.714844 44.171875 22.714844 C 43.738281 22.714844 43.304688 22.675781 42.878906 22.589844 C 42.453125 22.503906 42.039062 22.378906 41.636719 22.210938 C 41.234375 22.046875 40.851562 21.839844 40.488281 21.597656 C 40.128906 21.355469 39.792969 21.082031 39.484375 20.773438 C 39.175781 20.46875 38.902344 20.132812 38.660156 19.769531 C 38.417969 19.40625 38.214844 19.027344 38.046875 18.625 C 37.878906 18.222656 37.753906 17.808594 37.667969 17.378906 C 37.585938 16.953125 37.542969 16.523438 37.542969 16.085938 C 37.542969 15.652344 37.585938 15.21875 37.667969 14.792969 C 37.753906 14.367188 37.878906 13.949219 38.046875 13.546875 C 38.214844 13.148438 38.417969 12.765625 38.660156 12.402344 C 38.902344 12.039062 39.175781 11.707031 39.484375 11.398438 C 39.792969 11.089844 40.128906 10.816406 40.488281 10.574219 C 40.851562 10.332031 41.234375 10.125 41.636719 9.960938 C 42.039062 9.792969 42.453125 9.667969 42.878906 9.582031 C 43.304688 9.496094 43.738281 9.457031 44.171875 9.457031 C 44.609375 9.457031 45.039062 9.5 45.464844 9.585938 C 45.894531 9.667969 46.308594 9.796875 46.710938 9.960938 C 47.109375 10.128906 47.492188 10.332031 47.855469 10.574219 C 48.214844 10.816406 48.550781 11.09375 48.859375 11.398438 C 49.167969 11.707031 49.441406 12.042969 49.683594 12.402344 C 49.925781 12.765625 50.128906 13.148438 50.296875 13.550781 C 50.464844 13.953125 50.589844 14.367188 50.675781 14.792969 C 50.761719 15.21875 50.804688 15.652344 50.804688 16.085938 Z M 54.59375 43.554688 C 54.59375 44.058594 54.496094 44.542969 54.304688 45.003906 C 54.109375 45.46875 53.835938 45.878906 53.480469 46.234375 C 53.125 46.589844 52.714844 46.863281 52.253906 47.054688 C 51.789062 47.246094 51.304688 47.34375 50.804688 47.34375 L 16.703125 47.34375 C 16.199219 47.34375 15.71875 47.246094 15.253906 47.054688 C 14.789062 46.863281 14.378906 46.589844 14.023438 46.234375 C 13.671875 45.878906 13.394531 45.46875 13.203125 45.003906 C 13.011719 44.542969 12.914062 44.058594 12.914062 43.554688 L 12.914062 42.257812 L 21.0625 30.617188 C 21.414062 30.105469 21.863281 29.710938 22.414062 29.421875 C 22.960938 29.136719 23.542969 28.996094 24.164062 29 L 24.210938 29 C 24.835938 29.003906 25.425781 29.15625 25.976562 29.453125 C 26.527344 29.753906 26.976562 30.164062 27.320312 30.6875 L 34.070312 40.816406 C 34.421875 41.34375 34.914062 41.625 35.546875 41.65625 C 36.175781 41.683594 36.695312 41.457031 37.101562 40.980469 L 42.269531 34.777344 C 42.625 34.347656 43.058594 34.015625 43.5625 33.777344 C 44.066406 33.539062 44.597656 33.417969 45.15625 33.414062 C 45.714844 33.390625 46.253906 33.496094 46.765625 33.726562 C 47.277344 33.960938 47.707031 34.296875 48.058594 34.738281 L 54.59375 42.363281 Z M 54.59375 43.554688 "/></g></g></svg>