<svg xmlns="http://www.w3.org/2000/svg" xmlns:xlink="http://www.w3.org/1999/xlink" width="91" zoomAndPan="magnify" viewBox="0 0 68.25 54" height="72" preserveAspectRatio="xMidYMid meet" version="1.2"><defs><clipPath id="810066facc"><path d="M 3.96875 4.539062 L 63.613281 4.539062 L 63.613281 48.722656 L 3.96875 48.722656 Z M 3.96875 4.539062 "/></clipPath></defs><g id="20cbe9bc72"><g clip-rule="nonzero" clip-path="url(#810066facc)"><path style=" stroke:none;fill-rule:nonzero;fill:#0400e9;fill-opacity:1;" d="M 13.914062 4.539062 C 8.453125 4.539062 3.992188 9 3.992188 14.460938 L 3.992188 38.550781 C 3.992188 44.007812 8.453125 48.46875 13.914062 48.46875 L 53.589844 48.46875 C 59.046875 48.46875 63.507812 44.007812 63.507812 38.550781 L 63.507812 14.460938 C 63.507812 9 59.046875 4.539062 53.589844 4.539062 Z M 13.914062 8.792969 L 53.589844 8.792969 C 56.765625 8.792969 59.257812 11.28125 59.257812 14.460938 L 59.257812 38.550781 C 59.257812 41.726562 56.765625 44.21875 53.589844 44.21875 L 13.914062 44.21875 C 10.734375 44.21875 8.246094 41.726562 8.246094 38.550781 L 8.246094 14.460938 C 8.246094 11.28125 10.734375 8.792969 13.914062 8.792969 Z M 28.859375 15.167969 C 28.570312 15.160156 28.292969 15.207031 28.023438 15.3125 C 27.757812 15.414062 27.519531 15.566406 27.3125 15.765625 C 27.105469 15.96875 26.945312 16.199219 26.835938 16.464844 C 26.722656 16.730469 26.664062 17.007812 26.667969 17.292969 L 26.667969 35.714844 C 26.664062 35.980469 26.710938 36.234375 26.804688 36.480469 C 26.898438 36.726562 27.03125 36.949219 27.207031 37.144531 C 27.382812 37.34375 27.589844 37.5 27.824219 37.621094 C 28.058594 37.738281 28.308594 37.8125 28.570312 37.839844 C 29.007812 37.890625 29.421875 37.808594 29.808594 37.597656 L 46.816406 28.386719 C 47.160156 28.203125 47.429688 27.941406 47.632812 27.605469 C 47.832031 27.269531 47.929688 26.90625 47.929688 26.515625 C 47.929688 26.125 47.832031 25.761719 47.632812 25.425781 C 47.429688 25.089844 47.160156 24.832031 46.816406 24.644531 L 29.808594 15.433594 C 29.515625 15.269531 29.195312 15.179688 28.859375 15.167969 Z M 30.917969 20.882812 L 41.324219 26.503906 L 30.917969 32.152344 Z M 30.917969 20.882812 "/></g></g></svg>