<svg xmlns="http://www.w3.org/2000/svg" xmlns:xlink="http://www.w3.org/1999/xlink" width="91" zoomAndPan="magnify" viewBox="0 0 68.25 54" height="72" preserveAspectRatio="xMidYMid meet" version="1.2"><defs><clipPath id="dee14d5e7b"><path d="M 4.015625 5 L 63 5 L 63 49.449219 L 4.015625 49.449219 Z M 4.015625 5 "/></clipPath></defs><g id="bb9d3aae4a"><g clip-rule="nonzero" clip-path="url(#dee14d5e7b)"><path style=" stroke:none;fill-rule:nonzero;fill:#0400e9;fill-opacity:1;" d="M 54.316406 21.332031 C 54.144531 21.332031 53.972656 21.34375 53.800781 21.355469 C 53.964844 20.546875 54.058594 19.730469 54.074219 18.910156 C 54.089844 18.085938 54.027344 17.265625 53.894531 16.453125 C 53.757812 15.640625 53.550781 14.847656 53.269531 14.074219 C 52.984375 13.300781 52.636719 12.558594 52.21875 11.847656 C 51.800781 11.140625 51.320312 10.472656 50.777344 9.851562 C 50.238281 9.230469 49.644531 8.664062 48.996094 8.152344 C 48.351562 7.640625 47.664062 7.195312 46.9375 6.808594 C 46.207031 6.425781 45.449219 6.109375 44.664062 5.863281 C 43.878906 5.617188 43.074219 5.449219 42.257812 5.351562 C 41.4375 5.253906 40.621094 5.230469 39.796875 5.285156 C 38.976562 5.339844 38.164062 5.46875 37.367188 5.671875 C 36.570312 5.878906 35.796875 6.152344 35.046875 6.5 C 34.300781 6.84375 33.589844 7.257812 32.921875 7.734375 C 32.25 8.210938 31.625 8.746094 31.054688 9.335938 C 30.480469 9.929688 29.964844 10.570312 29.511719 11.253906 C 29.054688 11.941406 28.667969 12.664062 28.347656 13.421875 C 27.71875 12.886719 27.03125 12.449219 26.277344 12.113281 C 25.527344 11.773438 24.742188 11.550781 23.925781 11.4375 C 23.105469 11.324219 22.289062 11.328125 21.476562 11.449219 C 20.660156 11.570312 19.875 11.800781 19.128906 12.148438 C 18.378906 12.492188 17.695312 12.9375 17.070312 13.476562 C 16.449219 14.019531 15.917969 14.636719 15.472656 15.332031 C 15.027344 16.027344 14.691406 16.769531 14.457031 17.5625 C 14.226562 18.351562 14.109375 19.160156 14.109375 19.984375 C 14.113281 20.460938 14.15625 20.929688 14.242188 21.398438 C 13.894531 21.355469 13.546875 21.332031 13.195312 21.332031 C 12.6875 21.332031 12.183594 21.375 11.679688 21.464844 C 11.179688 21.554688 10.691406 21.683594 10.214844 21.859375 C 9.738281 22.035156 9.277344 22.25 8.839844 22.507812 C 8.398438 22.761719 7.988281 23.054688 7.601562 23.386719 C 7.210938 23.714844 6.855469 24.074219 6.535156 24.46875 C 6.210938 24.859375 5.921875 25.277344 5.675781 25.722656 C 5.425781 26.164062 5.214844 26.625 5.046875 27.105469 C 4.878906 27.585938 4.757812 28.078125 4.675781 28.578125 C 4.59375 29.082031 4.558594 29.585938 4.566406 30.09375 C 4.574219 30.601562 4.628906 31.105469 4.726562 31.605469 C 4.824219 32.105469 4.964844 32.589844 5.148438 33.066406 C 5.332031 33.539062 5.558594 33.992188 5.820312 34.425781 C 6.085938 34.863281 6.386719 35.269531 6.722656 35.652344 C 7.058594 36.03125 7.425781 36.378906 7.824219 36.695312 C 8.222656 37.011719 8.648438 37.292969 9.09375 37.53125 C 9.542969 37.773438 10.007812 37.972656 10.492188 38.132812 L 10.492188 44.523438 C 10.492188 44.828125 10.519531 45.128906 10.578125 45.425781 C 10.636719 45.722656 10.726562 46.011719 10.84375 46.292969 C 10.957031 46.574219 11.101562 46.839844 11.269531 47.09375 C 11.4375 47.347656 11.628906 47.582031 11.84375 47.796875 C 12.058594 48.011719 12.292969 48.203125 12.542969 48.371094 C 12.796875 48.542969 13.0625 48.683594 13.34375 48.800781 C 13.625 48.917969 13.914062 49.007812 14.210938 49.066406 C 14.507812 49.125 14.808594 49.15625 15.113281 49.15625 L 52.398438 49.15625 C 52.703125 49.15625 53.003906 49.125 53.300781 49.066406 C 53.597656 49.007812 53.886719 48.917969 54.167969 48.800781 C 54.449219 48.683594 54.714844 48.542969 54.96875 48.371094 C 55.21875 48.203125 55.453125 48.011719 55.667969 47.796875 C 55.882812 47.582031 56.074219 47.347656 56.242188 47.09375 C 56.410156 46.839844 56.554688 46.574219 56.671875 46.292969 C 56.785156 46.011719 56.875 45.722656 56.933594 45.425781 C 56.992188 45.128906 57.023438 44.828125 57.023438 44.523438 L 57.023438 38.132812 C 57.503906 37.972656 57.96875 37.773438 58.417969 37.53125 C 58.867188 37.292969 59.289062 37.011719 59.6875 36.695312 C 60.085938 36.378906 60.453125 36.03125 60.789062 35.652344 C 61.125 35.269531 61.425781 34.863281 61.691406 34.425781 C 61.953125 33.992188 62.179688 33.539062 62.363281 33.066406 C 62.546875 32.589844 62.6875 32.105469 62.785156 31.605469 C 62.882812 31.105469 62.9375 30.601562 62.945312 30.09375 C 62.953125 29.585938 62.917969 29.082031 62.835938 28.578125 C 62.757812 28.078125 62.632812 27.585938 62.464844 27.105469 C 62.296875 26.625 62.085938 26.164062 61.839844 25.722656 C 61.589844 25.277344 61.300781 24.859375 60.980469 24.46875 C 60.65625 24.074219 60.300781 23.714844 59.914062 23.386719 C 59.523438 23.054688 59.113281 22.761719 58.671875 22.507812 C 58.234375 22.25 57.777344 22.035156 57.296875 21.859375 C 56.820312 21.683594 56.332031 21.554688 55.832031 21.464844 C 55.332031 21.375 54.824219 21.332031 54.316406 21.332031 Z M 17.550781 36.460938 C 17.808594 36.796875 18.128906 37.054688 18.511719 37.242188 C 18.890625 37.425781 19.292969 37.519531 19.714844 37.519531 C 20.304688 37.515625 20.863281 37.648438 21.390625 37.90625 C 21.917969 38.164062 22.363281 38.527344 22.722656 38.996094 C 23.085938 39.46875 23.324219 40 23.441406 40.585938 C 23.558594 41.175781 23.542969 41.757812 23.390625 42.335938 C 23.210938 42.984375 22.886719 43.546875 22.40625 44.023438 C 21.929688 44.496094 21.367188 44.824219 20.71875 44.996094 C 20.386719 45.082031 20.054688 45.125 19.714844 45.125 C 19.210938 45.125 18.726562 45.027344 18.261719 44.835938 C 17.792969 44.640625 17.382812 44.367188 17.027344 44.011719 C 16.667969 43.65625 16.394531 43.242188 16.203125 42.777344 C 16.007812 42.3125 15.910156 41.828125 15.910156 41.324219 C 15.910156 41.171875 15.964844 41.046875 16.070312 40.941406 C 16.175781 40.835938 16.300781 40.785156 16.449219 40.785156 C 16.597656 40.785156 16.722656 40.839844 16.828125 40.945312 C 16.933594 41.046875 16.984375 41.175781 16.988281 41.324219 C 16.984375 41.746094 17.074219 42.144531 17.261719 42.523438 C 17.449219 42.902344 17.707031 43.222656 18.042969 43.476562 C 18.382812 43.742188 18.765625 43.917969 19.191406 44 C 19.613281 44.085938 20.03125 44.066406 20.449219 43.953125 C 20.910156 43.832031 21.3125 43.601562 21.648438 43.265625 C 21.988281 42.925781 22.21875 42.527344 22.34375 42.066406 C 22.457031 41.648438 22.46875 41.230469 22.386719 40.808594 C 22.300781 40.386719 22.128906 40.003906 21.871094 39.664062 C 21.613281 39.328125 21.296875 39.066406 20.917969 38.878906 C 20.539062 38.691406 20.136719 38.597656 19.714844 38.597656 C 19.253906 38.597656 18.808594 38.515625 18.378906 38.351562 C 17.945312 38.191406 17.558594 37.957031 17.210938 37.65625 C 16.863281 37.351562 16.582031 36.996094 16.363281 36.589844 C 16.144531 36.1875 16.003906 35.753906 15.945312 35.300781 C 15.882812 34.84375 15.902344 34.390625 16.003906 33.941406 C 16.105469 33.492188 16.285156 33.074219 16.539062 32.691406 C 16.792969 32.304688 17.105469 31.980469 17.476562 31.707031 C 17.851562 31.4375 18.257812 31.242188 18.703125 31.117188 C 19.277344 30.964844 19.859375 30.945312 20.445312 31.066406 C 21.03125 31.183594 21.558594 31.421875 22.03125 31.785156 C 22.5 32.144531 22.867188 32.585938 23.128906 33.113281 C 23.390625 33.644531 23.519531 34.203125 23.519531 34.792969 C 23.519531 34.941406 23.464844 35.066406 23.359375 35.171875 C 23.253906 35.277344 23.128906 35.332031 22.980469 35.332031 C 22.832031 35.332031 22.703125 35.277344 22.597656 35.171875 C 22.492188 35.066406 22.441406 34.941406 22.441406 34.792969 C 22.441406 34.371094 22.347656 33.96875 22.160156 33.589844 C 21.972656 33.210938 21.710938 32.894531 21.375 32.636719 C 21.03125 32.375 20.648438 32.203125 20.226562 32.121094 C 19.804688 32.039062 19.386719 32.050781 18.972656 32.164062 C 18.507812 32.285156 18.105469 32.515625 17.769531 32.855469 C 17.429688 33.195312 17.199219 33.597656 17.074219 34.058594 C 16.964844 34.476562 16.949219 34.894531 17.035156 35.316406 C 17.117188 35.738281 17.289062 36.121094 17.550781 36.460938 Z M 28.746094 45.125 C 28.410156 45.128906 28.078125 45.089844 27.753906 45.007812 C 27.425781 44.925781 27.113281 44.804688 26.820312 44.644531 C 26.523438 44.488281 26.25 44.292969 26.003906 44.066406 C 25.753906 43.839844 25.539062 43.585938 25.355469 43.304688 C 25.171875 43.023438 25.023438 42.726562 24.914062 42.40625 C 24.804688 42.089844 24.734375 41.761719 24.707031 41.429688 C 24.679688 41.09375 24.691406 40.761719 24.746094 40.429688 C 24.800781 40.097656 24.898438 39.777344 25.03125 39.46875 C 25.167969 39.160156 25.339844 38.875 25.542969 38.609375 C 25.75 38.34375 25.988281 38.109375 26.253906 37.902344 C 26.519531 37.699219 26.804688 37.527344 27.113281 37.390625 C 27.421875 37.257812 27.742188 37.164062 28.070312 37.109375 C 28.402344 37.054688 28.738281 37.042969 29.070312 37.070312 C 29.40625 37.097656 29.734375 37.167969 30.050781 37.277344 C 30.367188 37.386719 30.667969 37.535156 30.949219 37.71875 C 31.226562 37.90625 31.480469 38.121094 31.707031 38.371094 L 31.707031 37.59375 C 31.707031 37.445312 31.761719 37.316406 31.867188 37.214844 C 31.972656 37.109375 32.097656 37.054688 32.246094 37.054688 C 32.394531 37.054688 32.523438 37.109375 32.628906 37.214844 C 32.734375 37.316406 32.785156 37.445312 32.785156 37.59375 L 32.785156 44.585938 C 32.785156 44.738281 32.734375 44.863281 32.628906 44.96875 C 32.523438 45.074219 32.394531 45.125 32.246094 45.125 C 32.097656 45.125 31.972656 45.074219 31.867188 44.96875 C 31.761719 44.863281 31.707031 44.738281 31.707031 44.585938 L 31.707031 43.8125 C 31.328125 44.230469 30.882812 44.554688 30.367188 44.78125 C 29.851562 45.011719 29.308594 45.125 28.746094 45.125 Z M 38.164062 45.125 C 37.898438 45.125 37.636719 45.101562 37.375 45.050781 C 37.117188 44.996094 36.863281 44.921875 36.621094 44.820312 C 36.375 44.71875 36.140625 44.59375 35.921875 44.445312 C 35.703125 44.300781 35.496094 44.132812 35.308594 43.945312 C 35.121094 43.757812 34.957031 43.554688 34.808594 43.332031 C 34.660156 43.113281 34.535156 42.878906 34.433594 42.636719 C 34.332031 42.390625 34.257812 42.136719 34.207031 41.878906 C 34.152344 41.617188 34.128906 41.355469 34.128906 41.089844 C 34.128906 40.824219 34.152344 40.5625 34.207031 40.304688 C 34.257812 40.042969 34.332031 39.792969 34.433594 39.546875 C 34.535156 39.300781 34.660156 39.070312 34.808594 38.847656 C 34.957031 38.628906 35.121094 38.425781 35.308594 38.238281 C 35.496094 38.050781 35.703125 37.882812 35.921875 37.734375 C 36.140625 37.589844 36.375 37.464844 36.621094 37.363281 C 36.863281 37.261719 37.117188 37.183594 37.375 37.132812 C 37.636719 37.082031 37.898438 37.054688 38.164062 37.054688 C 38.726562 37.054688 39.265625 37.167969 39.78125 37.398438 C 40.292969 37.625 40.738281 37.949219 41.117188 38.371094 L 41.117188 37.59375 C 41.117188 37.445312 41.167969 37.316406 41.273438 37.214844 C 41.378906 37.109375 41.507812 37.054688 41.65625 37.054688 C 41.804688 37.054688 41.929688 37.109375 42.035156 37.214844 C 42.140625 37.316406 42.195312 37.445312 42.195312 37.59375 L 42.195312 44.585938 C 42.195312 44.738281 42.140625 44.863281 42.035156 44.96875 C 41.929688 45.074219 41.804688 45.125 41.65625 45.125 C 41.507812 45.125 41.378906 45.074219 41.273438 44.96875 C 41.167969 44.863281 41.117188 44.738281 41.117188 44.585938 L 41.117188 43.8125 C 40.738281 44.230469 40.292969 44.554688 39.78125 44.785156 C 39.265625 45.011719 38.726562 45.128906 38.164062 45.125 Z M 51.472656 42.335938 C 51.296875 42.984375 50.972656 43.546875 50.496094 44.023438 C 50.023438 44.496094 49.460938 44.824219 48.808594 44.996094 C 48.480469 45.082031 48.148438 45.125 47.808594 45.125 C 47.304688 45.125 46.820312 45.027344 46.351562 44.835938 C 45.886719 44.640625 45.476562 44.367188 45.117188 44.011719 C 44.761719 43.652344 44.484375 43.242188 44.289062 42.777344 C 44.09375 42.3125 43.996094 41.828125 43.992188 41.324219 C 43.996094 41.175781 44.050781 41.046875 44.152344 40.945312 C 44.257812 40.839844 44.382812 40.785156 44.53125 40.785156 C 44.679688 40.785156 44.808594 40.835938 44.914062 40.941406 C 45.019531 41.046875 45.070312 41.171875 45.070312 41.324219 C 45.070312 41.746094 45.164062 42.148438 45.351562 42.527344 C 45.539062 42.90625 45.800781 43.222656 46.136719 43.476562 C 46.476562 43.742188 46.859375 43.917969 47.28125 44 C 47.707031 44.085938 48.125 44.066406 48.542969 43.953125 C 49.003906 43.828125 49.402344 43.597656 49.742188 43.261719 C 50.078125 42.925781 50.3125 42.527344 50.4375 42.066406 C 50.546875 41.648438 50.5625 41.230469 50.480469 40.808594 C 50.394531 40.386719 50.222656 40.003906 49.964844 39.664062 C 49.707031 39.324219 49.386719 39.0625 49.003906 38.875 C 48.625 38.6875 48.222656 38.59375 47.796875 38.597656 C 47.207031 38.597656 46.652344 38.46875 46.121094 38.207031 C 45.59375 37.949219 45.148438 37.585938 44.789062 37.121094 C 44.425781 36.648438 44.1875 36.117188 44.070312 35.53125 C 43.953125 34.949219 43.96875 34.367188 44.121094 33.789062 C 44.300781 33.140625 44.625 32.574219 45.101562 32.097656 C 45.582031 31.621094 46.144531 31.292969 46.796875 31.117188 C 47.371094 30.964844 47.953125 30.945312 48.539062 31.066406 C 49.121094 31.183594 49.652344 31.421875 50.125 31.785156 C 50.589844 32.144531 50.953125 32.589844 51.214844 33.117188 C 51.472656 33.644531 51.601562 34.203125 51.601562 34.792969 C 51.601562 34.941406 51.550781 35.066406 51.445312 35.171875 C 51.339844 35.277344 51.210938 35.332031 51.0625 35.332031 C 50.914062 35.332031 50.785156 35.277344 50.683594 35.171875 C 50.578125 35.066406 50.523438 34.941406 50.523438 34.792969 C 50.523438 34.371094 50.433594 33.96875 50.246094 33.589844 C 50.0625 33.210938 49.800781 32.894531 49.46875 32.636719 C 49.125 32.378906 48.742188 32.207031 48.320312 32.121094 C 47.898438 32.039062 47.480469 32.050781 47.066406 32.164062 C 46.601562 32.285156 46.199219 32.515625 45.863281 32.855469 C 45.523438 33.195312 45.292969 33.597656 45.167969 34.058594 C 45.058594 34.476562 45.042969 34.894531 45.128906 35.316406 C 45.210938 35.738281 45.382812 36.121094 45.640625 36.460938 C 45.902344 36.792969 46.21875 37.054688 46.597656 37.238281 C 46.976562 37.425781 47.375 37.515625 47.796875 37.519531 C 48.089844 37.519531 48.378906 37.550781 48.667969 37.617188 C 48.953125 37.683594 49.226562 37.78125 49.488281 37.910156 C 49.753906 38.039062 49.996094 38.199219 50.222656 38.386719 C 50.449219 38.570312 50.652344 38.78125 50.832031 39.015625 C 51.007812 39.246094 51.15625 39.5 51.277344 39.765625 C 51.398438 40.035156 51.484375 40.3125 51.539062 40.601562 C 51.597656 40.886719 51.617188 41.179688 51.605469 41.472656 C 51.59375 41.765625 51.550781 42.050781 51.472656 42.335938 Z M 57.023438 36.980469 L 57.023438 31.589844 C 57.023438 31.289062 56.992188 30.988281 56.933594 30.6875 C 56.875 30.390625 56.785156 30.101562 56.671875 29.820312 C 56.554688 29.539062 56.410156 29.273438 56.242188 29.019531 C 56.074219 28.769531 55.882812 28.535156 55.667969 28.320312 C 55.453125 28.105469 55.21875 27.910156 54.96875 27.742188 C 54.714844 27.574219 54.449219 27.429688 54.167969 27.3125 C 53.886719 27.195312 53.597656 27.109375 53.300781 27.046875 C 53.003906 26.988281 52.703125 26.957031 52.398438 26.957031 L 15.113281 26.957031 C 14.808594 26.957031 14.507812 26.988281 14.210938 27.046875 C 13.914062 27.109375 13.625 27.195312 13.34375 27.3125 C 13.0625 27.429688 12.796875 27.574219 12.542969 27.742188 C 12.292969 27.910156 12.058594 28.105469 11.84375 28.320312 C 11.628906 28.535156 11.4375 28.769531 11.269531 29.019531 C 11.101562 29.273438 10.957031 29.539062 10.84375 29.820312 C 10.726562 30.101562 10.636719 30.390625 10.578125 30.6875 C 10.519531 30.988281 10.492188 31.289062 10.492188 31.589844 L 10.492188 36.980469 C 10.082031 36.824219 9.691406 36.632812 9.3125 36.410156 C 8.9375 36.1875 8.585938 35.929688 8.253906 35.644531 C 7.921875 35.359375 7.617188 35.046875 7.339844 34.710938 C 7.066406 34.371094 6.820312 34.011719 6.605469 33.628906 C 6.390625 33.246094 6.210938 32.851562 6.066406 32.4375 C 5.921875 32.023438 5.8125 31.601562 5.742188 31.171875 C 5.671875 30.738281 5.636719 30.304688 5.640625 29.867188 C 5.644531 29.429688 5.6875 28.996094 5.765625 28.566406 C 5.847656 28.136719 5.964844 27.71875 6.117188 27.308594 C 6.269531 26.898438 6.457031 26.503906 6.679688 26.125 C 6.898438 25.75 7.152344 25.394531 7.4375 25.0625 C 7.71875 24.726562 8.027344 24.421875 8.367188 24.144531 C 8.703125 23.863281 9.0625 23.617188 9.441406 23.398438 C 9.820312 23.183594 10.214844 23 10.628906 22.851562 C 11.039062 22.703125 11.460938 22.59375 11.894531 22.519531 C 12.324219 22.445312 12.757812 22.410156 13.195312 22.410156 C 13.742188 22.417969 14.285156 22.476562 14.824219 22.59375 C 15.015625 22.628906 15.179688 22.578125 15.316406 22.441406 C 15.457031 22.296875 15.5 22.128906 15.449219 21.9375 C 15.28125 21.296875 15.195312 20.648438 15.1875 19.984375 C 15.1875 19.234375 15.296875 18.496094 15.519531 17.777344 C 15.738281 17.058594 16.058594 16.386719 16.480469 15.761719 C 16.898438 15.136719 17.402344 14.589844 17.988281 14.113281 C 18.570312 13.640625 19.214844 13.261719 19.910156 12.980469 C 20.609375 12.699219 21.332031 12.523438 22.082031 12.460938 C 22.832031 12.394531 23.574219 12.4375 24.3125 12.597656 C 25.046875 12.753906 25.746094 13.011719 26.402344 13.378906 C 27.0625 13.742188 27.652344 14.195312 28.175781 14.738281 C 28.238281 14.804688 28.316406 14.851562 28.40625 14.878906 C 28.496094 14.90625 28.585938 14.910156 28.675781 14.890625 C 28.765625 14.871094 28.847656 14.828125 28.917969 14.765625 C 28.988281 14.707031 29.039062 14.632812 29.070312 14.542969 C 29.332031 13.800781 29.660156 13.085938 30.058594 12.40625 C 30.457031 11.722656 30.917969 11.085938 31.4375 10.492188 C 31.960938 9.898438 32.535156 9.363281 33.15625 8.878906 C 33.78125 8.398438 34.449219 7.976562 35.152344 7.625 C 35.859375 7.269531 36.589844 6.984375 37.351562 6.769531 C 38.109375 6.558594 38.882812 6.417969 39.671875 6.351562 C 40.457031 6.289062 41.242188 6.296875 42.027344 6.382812 C 42.8125 6.46875 43.582031 6.628906 44.335938 6.863281 C 45.089844 7.097656 45.816406 7.402344 46.511719 7.773438 C 47.207031 8.148438 47.859375 8.585938 48.472656 9.085938 C 49.082031 9.582031 49.640625 10.136719 50.144531 10.742188 C 50.652344 11.347656 51.09375 12 51.476562 12.691406 C 51.855469 13.382812 52.167969 14.105469 52.40625 14.855469 C 52.648438 15.605469 52.816406 16.375 52.910156 17.160156 C 53.003906 17.941406 53.023438 18.726562 52.964844 19.515625 C 52.910156 20.300781 52.777344 21.078125 52.570312 21.839844 C 52.519531 22.03125 52.558594 22.199219 52.691406 22.34375 C 52.824219 22.488281 52.984375 22.539062 53.175781 22.507812 C 53.554688 22.445312 53.933594 22.414062 54.316406 22.410156 C 54.753906 22.410156 55.1875 22.445312 55.621094 22.519531 C 56.050781 22.59375 56.472656 22.703125 56.882812 22.851562 C 57.296875 23 57.691406 23.183594 58.070312 23.398438 C 58.453125 23.617188 58.808594 23.863281 59.148438 24.144531 C 59.484375 24.421875 59.792969 24.726562 60.078125 25.0625 C 60.359375 25.394531 60.613281 25.75 60.835938 26.125 C 61.054688 26.503906 61.242188 26.898438 61.394531 27.308594 C 61.550781 27.71875 61.664062 28.136719 61.746094 28.566406 C 61.824219 28.996094 61.867188 29.429688 61.871094 29.867188 C 61.875 30.304688 61.84375 30.738281 61.769531 31.171875 C 61.699219 31.601562 61.589844 32.023438 61.445312 32.4375 C 61.300781 32.851562 61.121094 33.246094 60.90625 33.628906 C 60.695312 34.011719 60.449219 34.371094 60.171875 34.710938 C 59.894531 35.046875 59.589844 35.359375 59.257812 35.644531 C 58.925781 35.929688 58.574219 36.1875 58.199219 36.410156 C 57.824219 36.632812 57.429688 36.824219 57.023438 36.980469 Z M 57.023438 36.980469 "/></g><path style=" stroke:none;fill-rule:nonzero;fill:#0400e9;fill-opacity:1;" d="M 38.164062 38.132812 C 37.769531 38.132812 37.394531 38.207031 37.03125 38.355469 C 36.667969 38.503906 36.347656 38.71875 36.070312 38.996094 C 35.792969 39.273438 35.578125 39.589844 35.425781 39.953125 C 35.277344 40.316406 35.199219 40.691406 35.199219 41.085938 C 35.199219 41.476562 35.273438 41.855469 35.421875 42.21875 C 35.574219 42.582031 35.785156 42.902344 36.0625 43.179688 C 36.339844 43.457031 36.660156 43.671875 37.019531 43.820312 C 37.382812 43.972656 37.761719 44.046875 38.152344 44.046875 C 38.546875 44.050781 38.921875 43.976562 39.285156 43.824219 C 39.648438 43.675781 39.96875 43.464844 40.246094 43.1875 C 40.523438 42.910156 40.738281 42.589844 40.890625 42.226562 C 41.039062 41.867188 41.117188 41.488281 41.117188 41.097656 C 41.117188 40.703125 41.042969 40.328125 40.890625 39.964844 C 40.742188 39.601562 40.53125 39.28125 40.253906 39.003906 C 39.976562 38.726562 39.65625 38.511719 39.292969 38.359375 C 38.933594 38.210938 38.554688 38.132812 38.164062 38.132812 Z M 38.164062 38.132812 "/><path style=" stroke:none;fill-rule:nonzero;fill:#0400e9;fill-opacity:1;" d="M 28.746094 38.132812 C 28.351562 38.132812 27.976562 38.210938 27.613281 38.359375 C 27.253906 38.511719 26.933594 38.722656 26.65625 39 C 26.378906 39.277344 26.167969 39.597656 26.015625 39.960938 C 25.867188 40.324219 25.792969 40.699219 25.792969 41.09375 C 25.792969 41.484375 25.867188 41.863281 26.019531 42.222656 C 26.167969 42.585938 26.382812 42.90625 26.660156 43.183594 C 26.9375 43.460938 27.253906 43.671875 27.617188 43.824219 C 27.980469 43.972656 28.355469 44.046875 28.75 44.046875 C 29.140625 44.050781 29.519531 43.972656 29.878906 43.824219 C 30.242188 43.675781 30.5625 43.460938 30.839844 43.183594 C 31.117188 42.90625 31.332031 42.589844 31.480469 42.226562 C 31.632812 41.863281 31.707031 41.488281 31.707031 41.097656 C 31.710938 40.703125 31.632812 40.324219 31.484375 39.960938 C 31.335938 39.597656 31.121094 39.277344 30.84375 39 C 30.5625 38.722656 30.242188 38.507812 29.878906 38.355469 C 29.515625 38.207031 29.136719 38.132812 28.746094 38.132812 Z M 28.746094 38.132812 "/><path style=" stroke:none;fill-rule:nonzero;fill:#0400e9;fill-opacity:1;" d="M 38.160156 23.527344 L 21.417969 23.527344 C 21.269531 23.527344 21.140625 23.582031 21.035156 23.6875 C 20.929688 23.792969 20.878906 23.917969 20.878906 24.066406 C 20.878906 24.214844 20.929688 24.34375 21.035156 24.449219 C 21.140625 24.554688 21.269531 24.605469 21.417969 24.605469 L 38.160156 24.605469 C 38.308594 24.605469 38.4375 24.554688 38.542969 24.449219 C 38.648438 24.34375 38.699219 24.214844 38.699219 24.066406 C 38.699219 23.917969 38.648438 23.792969 38.542969 23.6875 C 38.4375 23.582031 38.308594 23.527344 38.160156 23.527344 Z M 38.160156 23.527344 "/><path style=" stroke:none;fill-rule:nonzero;fill:#0400e9;fill-opacity:1;" d="M 44.539062 23.527344 L 42.734375 23.527344 C 42.582031 23.527344 42.457031 23.582031 42.351562 23.6875 C 42.246094 23.792969 42.195312 23.917969 42.195312 24.066406 C 42.195312 24.214844 42.246094 24.34375 42.351562 24.449219 C 42.457031 24.554688 42.582031 24.605469 42.734375 24.605469 L 44.539062 24.605469 C 44.6875 24.605469 44.8125 24.554688 44.917969 24.449219 C 45.023438 24.34375 45.078125 24.214844 45.078125 24.066406 C 45.078125 23.917969 45.023438 23.792969 44.917969 23.6875 C 44.8125 23.582031 44.6875 23.527344 44.539062 23.527344 Z M 44.539062 23.527344 "/></g></svg>