<svg xmlns="http://www.w3.org/2000/svg" xmlns:xlink="http://www.w3.org/1999/xlink" width="91" zoomAndPan="magnify" viewBox="0 0 68.25 54" height="72" preserveAspectRatio="xMidYMid meet" version="1.2"><defs><clipPath id="87c86efe3d"><path d="M 34 26 L 57.699219 26 L 57.699219 50.484375 L 34 50.484375 Z M 34 26 "/></clipPath><clipPath id="2f0fb87cbd"><path d="M 49 30 L 57.699219 30 L 57.699219 50.484375 L 49 50.484375 Z M 49 30 "/></clipPath></defs><g id="0e01b6bbcf"><path style=" stroke:none;fill-rule:nonzero;fill:#dcc0fd;fill-opacity:1;" d="M 21.546875 31.308594 L 21.332031 31.828125 L 21.390625 32.242188 L 21.789062 31.277344 Z M 19.734375 17.847656 L 19.519531 18.371094 L 19.574219 18.785156 L 19.972656 17.816406 Z M 22.617188 31.164062 L 22.378906 31.195312 L 21.527344 33.265625 L 21.574219 33.625 L 21.605469 33.617188 Z M 24.277344 30.941406 L 24.039062 30.972656 L 23.027344 33.429688 L 23.265625 33.394531 Z M 22.4375 33.507812 L 23.449219 31.054688 L 23.207031 31.085938 L 22.199219 33.539062 Z M 20.804688 17.707031 L 20.5625 17.738281 L 19.714844 19.804688 L 19.761719 20.164062 L 19.792969 20.160156 L 20.800781 17.707031 Z M 20.625 20.046875 L 21.632812 17.59375 L 21.394531 17.625 L 20.382812 20.082031 Z M 23.941406 19.601562 L 24.953125 17.148438 L 24.710938 17.179688 L 23.703125 19.632812 Z M 27.441406 16.8125 L 27.203125 16.847656 L 26.191406 19.300781 L 26.429688 19.269531 Z M 24.121094 17.257812 L 23.882812 17.292969 L 22.871094 19.746094 L 23.113281 19.714844 Z M 22.28125 19.824219 L 23.292969 17.371094 L 23.054688 17.402344 L 22.042969 19.859375 Z M 25.363281 19.410156 L 25.601562 19.378906 L 26.609375 16.925781 L 26.371094 16.957031 Z M 22.464844 17.480469 L 22.222656 17.515625 L 21.214844 19.96875 L 21.453125 19.9375 Z M 25.78125 17.035156 L 25.542969 17.070312 L 24.53125 19.523438 L 24.769531 19.492188 Z M 30.914062 30.050781 L 30.675781 30.082031 L 29.664062 32.535156 L 29.902344 32.503906 Z M 32.574219 29.828125 L 32.332031 29.859375 L 31.324219 32.3125 L 31.5625 32.28125 Z M 24.097656 33.285156 L 25.105469 30.828125 L 24.867188 30.863281 L 23.855469 33.316406 Z M 33.402344 29.714844 L 33.164062 29.746094 L 32.152344 32.203125 L 32.394531 32.171875 Z M 35.0625 29.492188 L 34.824219 29.523438 L 33.8125 31.980469 L 34.050781 31.945312 Z M 34.234375 29.605469 L 33.992188 29.636719 L 32.984375 32.089844 L 33.222656 32.058594 Z M 31.742188 29.9375 L 31.503906 29.96875 L 30.496094 32.425781 L 30.734375 32.394531 Z M 30.085938 30.160156 L 29.84375 30.195312 L 28.835938 32.648438 L 29.074219 32.617188 Z M 25.753906 33.0625 L 26.765625 30.605469 L 26.527344 30.640625 L 25.515625 33.09375 Z M 25.9375 30.71875 L 25.695312 30.75 L 24.6875 33.207031 L 24.925781 33.171875 Z M 27.59375 30.496094 L 27.355469 30.527344 L 26.347656 32.980469 L 26.585938 32.949219 Z M 29.253906 30.273438 L 29.015625 30.304688 L 28.003906 32.757812 L 28.246094 32.726562 Z M 27.414062 32.839844 L 28.425781 30.382812 L 28.1875 30.417969 L 27.175781 32.871094 Z M 40.476562 15.0625 L 39.464844 17.515625 L 39.707031 17.484375 L 40.714844 15.03125 Z M 41.746094 28.171875 L 41.984375 28.140625 L 42.835938 26.074219 L 42.789062 25.714844 L 42.757812 25.71875 Z M 42.816406 28.03125 L 43.03125 27.507812 L 42.976562 27.09375 L 42.578125 28.0625 Z M 38.816406 15.285156 L 37.804688 17.738281 L 38.046875 17.707031 L 39.054688 15.253906 Z M 41.363281 17.261719 L 41.578125 16.742188 L 41.523438 16.328125 L 41.125 17.292969 Z M 35.890625 29.382812 L 35.652344 29.414062 L 34.640625 31.867188 L 34.882812 31.835938 Z M 38.636719 17.628906 L 38.875 17.597656 L 39.886719 15.140625 L 39.644531 15.175781 Z M 40.296875 17.40625 L 40.535156 17.375 L 41.386719 15.304688 L 41.335938 14.945312 L 41.304688 14.949219 Z M 38.609375 26.277344 L 37.597656 28.730469 L 37.835938 28.699219 L 38.847656 26.242188 Z M 38.429688 28.617188 L 38.667969 28.585938 L 39.675781 26.132812 L 39.4375 26.164062 Z M 36.949219 26.5 L 35.9375 28.953125 L 36.179688 28.921875 L 37.1875 26.464844 Z M 40.269531 26.054688 L 39.257812 28.507812 L 39.496094 28.476562 L 40.507812 26.019531 Z M 27.019531 19.1875 L 27.261719 19.15625 L 28.269531 16.703125 L 28.03125 16.734375 Z M 40.085938 28.394531 L 40.328125 28.363281 L 41.335938 25.910156 L 41.097656 25.941406 Z M 41.925781 25.828125 L 40.917969 28.285156 L 41.15625 28.253906 L 42.167969 25.796875 Z M 32 18.519531 L 32.238281 18.488281 L 33.25 16.035156 L 33.007812 16.066406 Z M 36.976562 17.851562 L 37.214844 17.820312 L 38.226562 15.363281 L 37.988281 15.398438 Z M 31.167969 18.632812 L 31.410156 18.601562 L 32.417969 16.144531 L 32.179688 16.175781 Z M 30.339844 18.742188 L 30.578125 18.710938 L 31.589844 16.257812 L 31.347656 16.289062 Z M 27.851562 19.078125 L 28.089844 19.046875 L 29.101562 16.589844 L 28.859375 16.621094 Z M 28.679688 18.964844 L 28.917969 18.933594 L 29.929688 16.480469 L 29.691406 16.511719 Z M 29.511719 18.855469 L 29.75 18.824219 L 30.757812 16.367188 L 30.519531 16.398438 Z M 35.316406 18.074219 L 35.558594 18.042969 L 36.566406 15.585938 L 36.328125 15.621094 Z M 37.15625 15.507812 L 36.148438 17.964844 L 36.386719 17.929688 L 37.398438 15.476562 Z M 35.496094 15.730469 L 34.488281 18.1875 L 34.726562 18.152344 L 35.738281 15.699219 Z M 32.828125 18.410156 L 33.066406 18.375 L 34.078125 15.921875 L 33.839844 15.953125 Z M 34.667969 15.84375 L 33.65625 18.296875 L 33.898438 18.265625 L 34.90625 15.8125 Z M 36.769531 28.839844 L 37.007812 28.808594 L 38.019531 26.355469 L 37.777344 26.386719 Z M 22.101562 14.789062 L 21.859375 14.824219 L 20.851562 17.277344 L 21.089844 17.246094 Z M 20.441406 15.011719 L 20.203125 15.046875 L 19.351562 17.113281 L 19.398438 17.472656 L 19.429688 17.46875 Z M 20.261719 17.355469 L 21.269531 14.902344 L 21.03125 14.933594 L 20.019531 17.390625 Z M 19.371094 15.15625 L 19.15625 15.679688 L 19.210938 16.09375 L 19.609375 15.125 Z M 22.980469 33.855469 L 22.742188 33.886719 L 21.890625 35.957031 L 21.9375 36.316406 L 21.96875 36.3125 Z M 21.910156 34 L 21.695312 34.519531 L 21.753906 34.933594 L 22.152344 33.96875 Z M 23.757812 14.566406 L 23.519531 14.601562 L 22.507812 17.054688 L 22.75 17.023438 Z M 25 16.71875 L 25.238281 16.6875 L 26.25 14.234375 L 26.007812 14.265625 Z M 25.828125 16.609375 L 26.066406 16.578125 L 27.078125 14.121094 L 26.839844 14.152344 Z M 25.417969 14.34375 L 25.179688 14.375 L 24.167969 16.832031 L 24.410156 16.800781 Z M 21.917969 17.132812 L 22.929688 14.679688 L 22.691406 14.710938 L 21.679688 17.164062 Z M 22.800781 36.199219 L 23.808594 33.746094 L 23.570312 33.777344 L 22.558594 36.230469 Z M 23.339844 16.941406 L 23.578125 16.910156 L 24.589844 14.457031 L 24.347656 14.488281 Z M 31.277344 32.742188 L 31.039062 32.773438 L 30.027344 35.226562 L 30.265625 35.195312 Z M 32.105469 32.628906 L 31.867188 32.664062 L 30.855469 35.117188 L 31.097656 35.085938 Z M 26.65625 16.496094 L 26.898438 16.464844 L 27.90625 14.011719 L 27.667969 14.042969 Z M 30.449219 32.851562 L 30.207031 32.886719 L 29.199219 35.339844 L 29.4375 35.308594 Z M 33.765625 32.40625 L 33.527344 32.441406 L 32.515625 34.894531 L 32.753906 34.863281 Z M 29.617188 32.964844 L 29.378906 32.996094 L 28.367188 35.453125 L 28.609375 35.417969 Z M 24.640625 33.632812 L 24.398438 33.664062 L 23.390625 36.121094 L 23.628906 36.085938 Z M 32.9375 32.519531 L 32.695312 32.550781 L 31.6875 35.003906 L 31.925781 34.972656 Z M 26.300781 33.410156 L 26.058594 33.441406 L 25.050781 35.898438 L 25.289062 35.863281 Z M 24.460938 35.976562 L 25.46875 33.523438 L 25.230469 33.554688 L 24.21875 36.007812 Z M 26.117188 35.753906 L 27.128906 33.300781 L 26.890625 33.332031 L 25.878906 35.785156 Z M 28.789062 33.074219 L 28.546875 33.109375 L 27.539062 35.5625 L 27.777344 35.53125 Z M 27.957031 33.1875 L 27.71875 33.21875 L 26.707031 35.675781 L 26.949219 35.640625 Z M 36.792969 12.816406 L 35.785156 15.269531 L 36.023438 15.238281 L 37.035156 12.785156 Z M 43.179688 30.722656 L 43.394531 30.199219 L 43.335938 29.785156 L 42.9375 30.753906 Z M 27.488281 16.386719 L 27.726562 16.355469 L 28.734375 13.898438 L 28.496094 13.929688 Z M 41 14.570312 L 41.214844 14.050781 L 41.160156 13.636719 L 40.761719 14.601562 Z M 42.289062 28.523438 L 41.277344 30.976562 L 41.519531 30.945312 L 42.527344 28.488281 Z M 39.929688 14.714844 L 40.171875 14.683594 L 41.023438 12.613281 L 40.972656 12.253906 L 40.941406 12.257812 L 39.933594 14.714844 Z M 38.273438 14.9375 L 38.511719 14.90625 L 39.523438 12.449219 L 39.28125 12.484375 Z M 40.113281 12.371094 L 39.101562 14.824219 L 39.339844 14.792969 L 40.351562 12.339844 Z M 38.96875 28.96875 L 37.960938 31.421875 L 38.199219 31.390625 L 39.210938 28.9375 Z M 34.59375 32.296875 L 34.355469 32.328125 L 33.34375 34.78125 L 33.585938 34.75 Z M 37.550781 29.160156 L 37.3125 29.191406 L 36.300781 31.644531 L 36.539062 31.613281 Z M 40.449219 31.089844 L 40.6875 31.054688 L 41.699219 28.601562 L 41.460938 28.632812 Z M 38.789062 31.3125 L 39.03125 31.277344 L 40.039062 28.824219 L 39.800781 28.855469 Z M 40.628906 28.746094 L 39.621094 31.199219 L 39.859375 31.167969 L 40.867188 28.710938 Z M 42.109375 30.863281 L 42.347656 30.832031 L 43.199219 28.765625 L 43.152344 28.40625 L 43.121094 28.410156 Z M 29.976562 16.050781 L 30.214844 16.019531 L 31.226562 13.566406 L 30.984375 13.597656 Z M 30.804688 15.941406 L 31.042969 15.90625 L 32.054688 13.453125 L 31.816406 13.484375 Z M 31.636719 15.828125 L 31.875 15.796875 L 32.882812 13.34375 L 32.644531 13.375 Z M 32.464844 15.71875 L 32.703125 15.683594 L 33.714844 13.230469 L 33.476562 13.261719 Z M 29.144531 16.164062 L 29.386719 16.128906 L 30.394531 13.675781 L 30.15625 13.707031 Z M 28.316406 16.273438 L 28.554688 16.242188 L 29.566406 13.789062 L 29.328125 13.820312 Z M 36.613281 15.160156 L 36.851562 15.128906 L 37.863281 12.671875 L 37.621094 12.707031 Z M 33.292969 15.605469 L 33.535156 15.574219 L 34.542969 13.117188 L 34.304688 13.152344 Z M 38.453125 12.59375 L 37.441406 15.046875 L 37.683594 15.015625 L 38.691406 12.5625 Z M 35.472656 31.757812 L 35.710938 31.722656 L 36.722656 29.269531 L 36.480469 29.300781 Z M 35.964844 12.929688 L 34.953125 15.382812 L 35.191406 15.351562 L 36.203125 12.894531 Z M 34.125 15.496094 L 34.363281 15.460938 L 35.375 13.007812 L 35.132812 13.039062 Z M 37.128906 31.535156 L 37.371094 31.5 L 38.378906 29.046875 L 38.140625 29.078125 Z M 20.824219 25.925781 L 20.609375 26.445312 L 20.664062 26.859375 L 21.0625 25.890625 Z M 23.550781 25.558594 L 23.3125 25.589844 L 22.300781 28.042969 L 22.542969 28.011719 Z M 26.507812 22.421875 L 26.265625 22.453125 L 25.257812 24.90625 L 25.496094 24.875 Z M 21.710938 28.125 L 22.722656 25.667969 L 22.480469 25.703125 L 21.472656 28.15625 Z M 25.03125 27.679688 L 26.039062 25.222656 L 25.800781 25.253906 L 24.789062 27.710938 Z M 25.210938 25.335938 L 24.972656 25.367188 L 23.960938 27.820312 L 24.199219 27.789062 Z M 23.371094 27.902344 L 24.382812 25.445312 L 24.140625 25.476562 L 23.132812 27.933594 Z M 24.847656 22.644531 L 24.609375 22.675781 L 23.597656 25.128906 L 23.835938 25.097656 Z M 24.667969 24.984375 L 25.675781 22.53125 L 25.4375 22.5625 L 24.429688 25.019531 Z M 23.007812 25.210938 L 24.019531 22.753906 L 23.777344 22.785156 L 22.769531 25.242188 Z M 21.527344 23.089844 L 21.289062 23.121094 L 20.4375 25.1875 L 20.488281 25.546875 L 20.519531 25.542969 Z M 21.347656 25.433594 L 22.359375 22.976562 L 22.121094 23.007812 L 21.109375 25.464844 Z M 23.1875 22.867188 L 22.949219 22.898438 L 21.9375 25.351562 L 22.179688 25.320312 Z M 21.890625 25.78125 L 21.652344 25.8125 L 20.800781 27.878906 L 20.851562 28.238281 L 20.878906 28.234375 Z M 33.085938 26.597656 L 33.328125 26.5625 L 34.335938 24.109375 L 34.097656 24.140625 Z M 31.429688 26.820312 L 31.667969 26.785156 L 32.675781 24.332031 L 32.4375 24.363281 Z M 34.925781 24.03125 L 33.917969 26.484375 L 34.15625 26.453125 L 35.167969 23.996094 Z M 33.507812 24.21875 L 33.269531 24.253906 L 32.257812 26.707031 L 32.496094 26.675781 Z M 36.40625 26.148438 L 36.644531 26.117188 L 37.65625 23.664062 L 37.414062 23.695312 Z M 36.585938 23.808594 L 35.578125 26.261719 L 35.816406 26.230469 L 36.824219 23.773438 Z M 28.347656 27.230469 L 29.359375 24.777344 L 29.121094 24.808594 L 28.109375 27.265625 Z M 28.527344 24.890625 L 28.289062 24.921875 L 27.28125 27.375 L 27.519531 27.34375 Z M 26.871094 25.113281 L 26.628906 25.144531 L 25.621094 27.597656 L 25.859375 27.566406 Z M 26.691406 27.457031 L 27.699219 25 L 27.460938 25.03125 L 26.449219 27.488281 Z M 30.1875 24.667969 L 29.949219 24.699219 L 28.9375 27.152344 L 29.179688 27.121094 Z M 31.847656 24.441406 L 31.609375 24.476562 L 30.597656 26.929688 L 30.835938 26.898438 Z M 30.007812 27.007812 L 31.019531 24.554688 L 30.777344 24.585938 L 29.769531 27.042969 Z M 34.746094 26.371094 L 34.984375 26.339844 L 35.996094 23.886719 L 35.757812 23.917969 Z M 41.203125 20.445312 L 40.191406 22.902344 L 40.429688 22.867188 L 41.441406 20.414062 Z M 41.019531 22.789062 L 41.261719 22.757812 L 42.113281 20.691406 L 42.0625 20.332031 L 42.03125 20.335938 L 41.023438 22.789062 Z M 20.460938 23.234375 L 20.246094 23.753906 L 20.300781 24.167969 L 20.699219 23.199219 Z M 42.453125 25.335938 L 42.667969 24.816406 L 42.613281 24.402344 L 42.214844 25.371094 Z M 39.363281 23.011719 L 39.601562 22.980469 L 40.609375 20.527344 L 40.371094 20.558594 Z M 39.542969 20.667969 L 38.53125 23.125 L 38.773438 23.089844 L 39.78125 20.636719 Z M 26.328125 24.761719 L 27.335938 22.308594 L 27.097656 22.339844 L 26.085938 24.796875 Z M 28.21875 41.375 L 27.976562 41.40625 L 26.96875 43.859375 L 27.207031 43.828125 Z M 43.742188 41.609375 C 43.785156 41.550781 43.828125 41.492188 43.867188 41.433594 L 44.507812 39.882812 C 44.546875 39.65625 44.566406 39.421875 44.566406 39.1875 L 43.5625 41.632812 Z M 37.703125 23.234375 L 37.941406 23.203125 L 38.953125 20.75 L 38.710938 20.78125 Z M 19.171875 6.960938 C 19.128906 7.019531 19.085938 7.078125 19.042969 7.136719 L 18.40625 8.6875 C 18.367188 8.914062 18.34375 9.148438 18.34375 9.382812 L 19.351562 6.9375 Z M 34.695312 7.195312 L 34.933594 7.164062 L 35.945312 4.710938 L 35.707031 4.742188 Z M 23.464844 39.273438 L 22.617188 41.339844 L 22.648438 41.59375 C 22.65625 41.628906 22.660156 41.664062 22.667969 41.699219 L 22.695312 41.695312 L 23.707031 39.238281 Z M 40.246094 6.871094 L 40.214844 6.875 L 39.207031 9.332031 L 39.445312 9.296875 L 40.296875 7.230469 L 40.261719 6.976562 C 40.257812 6.941406 40.25 6.90625 40.246094 6.871094 Z M 29.824219 21.972656 L 29.585938 22.007812 L 28.574219 24.460938 L 28.816406 24.429688 Z M 29.40625 24.351562 L 29.644531 24.316406 L 30.65625 21.863281 L 30.414062 21.894531 Z M 37.882812 20.890625 L 36.871094 23.347656 L 37.109375 23.316406 L 38.121094 20.859375 Z M 28.164062 22.199219 L 27.925781 22.230469 L 26.914062 24.683594 L 27.15625 24.652344 Z M 27.984375 24.539062 L 28.996094 22.085938 L 28.753906 22.117188 L 27.746094 24.574219 Z M 32.3125 21.640625 L 32.074219 21.671875 L 31.0625 24.128906 L 31.304688 24.09375 Z M 31.484375 21.75 L 31.246094 21.785156 L 30.234375 24.238281 L 30.472656 24.207031 Z M 34.382812 23.679688 L 34.621094 23.648438 L 35.632812 21.195312 L 35.394531 21.226562 Z M 36.042969 23.457031 L 36.28125 23.425781 L 37.292969 20.972656 L 37.050781 21.003906 Z M 32.722656 23.902344 L 32.964844 23.871094 L 33.972656 21.417969 L 33.734375 21.449219 Z M 34.5625 21.339844 L 33.554688 23.792969 L 33.792969 23.761719 L 34.800781 21.304688 Z M 32.902344 21.5625 L 31.894531 24.015625 L 32.132812 23.984375 L 33.144531 21.527344 Z M 40.835938 17.753906 L 39.828125 20.210938 L 40.066406 20.175781 L 41.078125 17.722656 Z M 22.253906 28.472656 L 22.015625 28.503906 L 21.164062 30.570312 L 21.210938 30.929688 L 21.242188 30.925781 Z M 22.074219 30.816406 L 23.085938 28.359375 L 22.84375 28.394531 L 21.835938 30.847656 Z M 21.1875 28.617188 L 20.972656 29.136719 L 21.027344 29.550781 L 21.425781 28.582031 Z M 20.097656 20.539062 L 19.882812 21.0625 L 19.9375 21.476562 L 20.335938 20.507812 Z M 23.734375 30.59375 L 24.742188 28.136719 L 24.503906 28.171875 L 23.492188 30.625 Z M 25.574219 28.027344 L 25.332031 28.058594 L 24.324219 30.511719 L 24.5625 30.480469 Z M 23.914062 28.25 L 23.675781 28.28125 L 22.664062 30.738281 L 22.902344 30.703125 Z M 24.484375 19.953125 L 24.246094 19.984375 L 23.234375 22.4375 L 23.476562 22.40625 Z M 22.644531 22.515625 L 23.65625 20.0625 L 23.414062 20.09375 L 22.40625 22.550781 Z M 24.304688 22.292969 L 25.316406 19.839844 L 25.074219 19.871094 L 24.066406 22.328125 Z M 20.984375 22.738281 L 21.996094 20.285156 L 21.757812 20.316406 L 20.746094 22.773438 Z M 22.824219 20.175781 L 22.585938 20.207031 L 21.574219 22.660156 L 21.816406 22.628906 Z M 21.167969 20.398438 L 20.925781 20.429688 L 20.074219 22.496094 L 20.125 22.855469 L 20.15625 22.851562 L 21.164062 20.398438 Z M 27.234375 27.804688 L 26.992188 27.835938 L 25.984375 30.289062 L 26.222656 30.257812 Z M 25.394531 30.371094 L 26.402344 27.914062 L 26.164062 27.949219 L 25.152344 30.402344 Z M 33.039062 27.023438 L 32.800781 27.054688 L 31.789062 29.511719 L 32.03125 29.476562 Z M 32.210938 27.136719 L 31.972656 27.167969 L 30.960938 29.621094 L 31.199219 29.589844 Z M 31.382812 27.246094 L 31.140625 27.277344 L 30.132812 29.734375 L 30.371094 29.699219 Z M 33.449219 29.289062 L 33.691406 29.253906 L 34.699219 26.800781 L 34.460938 26.832031 Z M 35.53125 26.6875 L 35.289062 26.722656 L 34.28125 29.175781 L 34.519531 29.144531 Z M 33.871094 26.914062 L 33.628906 26.945312 L 32.621094 29.398438 L 32.859375 29.367188 Z M 27.050781 30.148438 L 28.0625 27.691406 L 27.824219 27.722656 L 26.8125 30.179688 Z M 26.144531 19.726562 L 25.90625 19.761719 L 24.894531 22.214844 L 25.132812 22.183594 Z M 28.710938 29.925781 L 29.722656 27.46875 L 29.480469 27.5 L 28.472656 29.957031 Z M 30.550781 27.359375 L 30.3125 27.390625 L 29.300781 29.84375 L 29.542969 29.8125 Z M 28.890625 27.582031 L 28.652344 27.613281 L 27.640625 30.066406 L 27.882812 30.035156 Z M 30.703125 21.433594 L 30.941406 21.402344 L 31.953125 18.949219 L 31.710938 18.980469 Z M 35.109375 29.066406 L 35.347656 29.03125 L 36.359375 26.578125 L 36.121094 26.609375 Z M 39 20.320312 L 39.238281 20.289062 L 40.25 17.832031 L 40.007812 17.867188 Z M 40.65625 20.097656 L 40.898438 20.066406 L 41.75 18 L 41.699219 17.640625 L 41.667969 17.644531 L 40.660156 20.097656 Z M 41.726562 19.953125 L 41.941406 19.433594 L 41.886719 19.019531 L 41.488281 19.984375 Z M 37.339844 20.542969 L 37.578125 20.511719 L 38.589844 18.058594 L 38.351562 18.089844 Z M 39.179688 17.976562 L 38.167969 20.433594 L 38.410156 20.398438 L 39.417969 17.945312 Z M 38.066406 25.925781 L 38.304688 25.894531 L 39.316406 23.441406 L 39.074219 23.472656 Z M 39.90625 23.359375 L 38.894531 25.816406 L 39.132812 25.785156 L 40.144531 23.328125 Z M 39.722656 25.703125 L 39.964844 25.671875 L 40.972656 23.21875 L 40.734375 23.25 Z M 37.519531 18.199219 L 36.511719 20.65625 L 36.75 20.621094 L 37.757812 18.167969 Z M 41.382812 25.480469 L 41.625 25.449219 L 42.472656 23.382812 L 42.425781 23.023438 L 42.394531 23.027344 L 41.386719 25.480469 Z M 41.5625 23.136719 L 40.554688 25.59375 L 40.792969 25.5625 L 41.804688 23.105469 Z M 42.089844 22.644531 L 42.304688 22.125 L 42.25 21.710938 L 41.851562 22.679688 Z M 27.382812 21.878906 L 27.625 21.847656 L 28.632812 19.394531 L 28.394531 19.425781 Z M 29.464844 19.28125 L 29.222656 19.316406 L 28.214844 21.769531 L 28.453125 21.738281 Z M 38.246094 23.582031 L 37.234375 26.039062 L 37.476562 26.007812 L 38.484375 23.550781 Z M 29.871094 21.546875 L 30.113281 21.515625 L 31.121094 19.058594 L 30.882812 19.09375 Z M 29.042969 21.65625 L 29.28125 21.625 L 30.292969 19.171875 L 30.054688 19.203125 Z M 27.804688 19.503906 L 27.5625 19.539062 L 26.554688 21.992188 L 26.792969 21.960938 Z M 25.964844 22.070312 L 26.972656 19.617188 L 26.734375 19.648438 L 25.722656 22.105469 Z M 34.019531 20.988281 L 34.261719 20.957031 L 35.269531 18.503906 L 35.03125 18.535156 Z M 35.859375 18.421875 L 34.851562 20.878906 L 35.089844 20.84375 L 36.101562 18.390625 Z M 35.679688 20.765625 L 35.917969 20.734375 L 36.929688 18.28125 L 36.691406 18.3125 Z M 33.371094 18.757812 L 32.363281 21.210938 L 32.601562 21.179688 L 33.609375 18.726562 Z M 34.203125 18.644531 L 33.191406 21.101562 L 33.429688 21.070312 L 34.441406 18.613281 Z M 31.53125 21.324219 L 31.769531 21.292969 L 32.78125 18.835938 L 32.542969 18.867188 Z M 36.222656 21.113281 L 35.214844 23.570312 L 35.453125 23.539062 L 36.464844 21.082031 Z M 19.171875 9.28125 L 20.179688 6.828125 L 19.941406 6.859375 L 18.929688 9.3125 Z M 19.761719 9.203125 L 20 9.167969 L 21.011719 6.714844 L 20.769531 6.746094 Z M 20.589844 9.089844 L 20.832031 9.058594 L 21.839844 6.605469 L 21.601562 6.636719 Z M 21.421875 8.980469 L 21.660156 8.945312 L 22.671875 6.492188 L 22.429688 6.523438 Z M 19.652344 6.441406 C 19.640625 6.457031 19.625 6.46875 19.609375 6.480469 L 19.640625 6.476562 Z M 23 42.074219 L 22.855469 42.425781 C 22.890625 42.519531 22.925781 42.613281 22.96875 42.703125 L 23.238281 42.042969 Z M 26.398438 8.308594 L 26.636719 8.277344 L 27.648438 5.824219 L 27.410156 5.855469 Z M 25.570312 8.421875 L 25.808594 8.390625 L 26.816406 5.933594 L 26.578125 5.96875 Z M 24.738281 8.535156 L 24.976562 8.5 L 25.988281 6.046875 L 25.75 6.078125 Z M 23.828125 41.964844 L 23.289062 43.277344 C 23.335938 43.34375 23.382812 43.410156 23.433594 43.476562 L 24.070312 41.929688 Z M 22.25 8.867188 L 22.488281 8.835938 L 23.5 6.378906 L 23.261719 6.414062 Z M 23.078125 8.757812 L 23.320312 8.722656 L 24.328125 6.269531 L 24.089844 6.300781 Z M 23.910156 8.644531 L 24.148438 8.613281 L 25.160156 6.15625 L 24.917969 6.191406 Z M 32.363281 40.816406 L 32.125 40.847656 L 31.113281 43.304688 L 31.355469 43.273438 Z M 31.535156 40.929688 L 31.296875 40.960938 L 30.285156 43.414062 L 30.523438 43.382812 Z M 33.195312 40.707031 L 32.953125 40.738281 L 31.945312 43.191406 L 32.183594 43.160156 Z M 27.226562 8.199219 L 27.46875 8.167969 L 28.476562 5.710938 L 28.238281 5.746094 Z M 24.660156 41.851562 L 23.8125 43.90625 C 23.867188 43.957031 23.921875 44.007812 23.976562 44.054688 L 24.898438 41.820312 Z M 34.855469 40.484375 L 34.613281 40.515625 L 33.605469 42.96875 L 33.84375 42.9375 Z M 35.683594 40.371094 L 35.445312 40.402344 L 34.433594 42.859375 L 34.675781 42.824219 Z M 34.023438 40.59375 L 33.785156 40.625 L 32.773438 43.082031 L 33.015625 43.046875 Z M 30.707031 41.039062 L 30.464844 41.070312 L 29.457031 43.527344 L 29.695312 43.496094 Z M 25.488281 41.742188 L 24.476562 44.195312 L 24.71875 44.164062 L 25.726562 41.707031 Z M 27.386719 41.484375 L 27.148438 41.519531 L 26.136719 43.972656 L 26.378906 43.941406 Z M 26.558594 41.597656 L 26.316406 41.628906 L 25.308594 44.082031 L 25.546875 44.050781 Z M 29.046875 41.261719 L 28.808594 41.296875 L 27.796875 43.75 L 28.035156 43.71875 Z M 36.515625 40.261719 L 36.273438 40.292969 L 35.265625 42.746094 L 35.503906 42.714844 Z M 29.875 41.152344 L 29.636719 41.183594 L 28.625 43.636719 L 28.867188 43.605469 Z M 41.539062 39.164062 L 41.777344 39.132812 L 42.789062 36.675781 L 42.546875 36.707031 Z M 41.957031 36.789062 L 41.71875 36.820312 L 40.707031 39.273438 L 40.949219 39.242188 Z M 43.617188 36.566406 L 43.378906 36.597656 L 42.367188 39.050781 L 42.609375 39.019531 Z M 41.128906 36.898438 L 40.890625 36.929688 L 39.878906 39.386719 L 40.117188 39.355469 Z M 44.265625 38.796875 L 44.480469 38.277344 L 44.425781 37.863281 L 44.027344 38.828125 Z M 43.199219 38.941406 L 43.4375 38.910156 L 44.289062 36.839844 L 44.238281 36.480469 L 44.207031 36.484375 Z M 39.914062 6.496094 L 40.058594 6.144531 C 40.023438 6.050781 39.984375 5.957031 39.945312 5.867188 L 39.671875 6.527344 Z M 36.980469 37.457031 L 36.742188 37.488281 L 35.730469 39.945312 L 35.96875 39.910156 Z M 36.152344 37.566406 L 35.910156 37.601562 L 34.902344 40.054688 L 35.140625 40.023438 Z M 37.808594 37.34375 L 37.570312 37.378906 L 36.558594 39.832031 L 36.800781 39.800781 Z M 40.300781 37.011719 L 40.058594 37.042969 L 39.050781 39.496094 L 39.289062 39.464844 Z M 39.46875 37.121094 L 39.230469 37.15625 L 38.21875 39.609375 L 38.460938 39.578125 Z M 28.058594 8.085938 L 28.296875 8.054688 L 29.308594 5.601562 L 29.066406 5.632812 Z M 38.640625 37.234375 L 38.398438 37.265625 L 37.390625 39.71875 L 37.628906 39.6875 Z M 31.375 7.640625 L 31.617188 7.609375 L 32.625 5.15625 L 32.386719 5.1875 Z M 32.207031 7.53125 L 32.445312 7.5 L 33.457031 5.042969 L 33.214844 5.074219 Z M 33.035156 7.417969 L 33.273438 7.386719 L 34.285156 4.933594 L 34.046875 4.964844 Z M 39.082031 6.605469 L 39.625 5.292969 C 39.578125 5.226562 39.53125 5.160156 39.480469 5.09375 L 38.84375 6.640625 Z M 28.886719 7.976562 L 29.125 7.945312 L 30.136719 5.488281 L 29.898438 5.519531 Z M 29.71875 7.863281 L 29.957031 7.832031 L 30.964844 5.378906 L 30.726562 5.410156 Z M 30.546875 7.753906 L 30.785156 7.722656 L 31.796875 5.265625 L 31.558594 5.296875 Z M 38.253906 6.71875 L 39.097656 4.664062 C 39.042969 4.613281 38.988281 4.5625 38.933594 4.515625 L 38.011719 6.75 Z M 37.421875 6.828125 L 38.433594 4.375 L 38.195312 4.40625 L 37.183594 6.863281 Z M 35.523438 7.085938 L 35.765625 7.050781 L 36.773438 4.597656 L 36.535156 4.628906 Z M 33.863281 7.308594 L 34.105469 7.273438 L 35.113281 4.820312 L 34.875 4.851562 Z M 36.355469 6.972656 L 36.59375 6.941406 L 37.605469 4.488281 L 37.363281 4.519531 Z M 24.9375 5.027344 L 24.699219 5.058594 L 24.378906 5.839844 L 24.617188 5.808594 Z M 26.390625 45.03125 C 26.464844 45.035156 26.539062 45.035156 26.613281 45.035156 L 26.921875 44.289062 L 26.679688 44.320312 Z M 27.1875 44.992188 L 27.429688 44.957031 L 27.75 44.175781 L 27.511719 44.210938 Z M 28.847656 44.769531 L 29.089844 44.734375 L 29.410156 43.953125 L 29.171875 43.988281 Z M 28.019531 44.878906 L 28.257812 44.847656 L 28.578125 44.066406 L 28.339844 44.097656 Z M 30.507812 44.546875 L 30.746094 44.511719 L 31.070312 43.730469 L 30.828125 43.765625 Z M 29.679688 44.65625 L 29.917969 44.625 L 30.238281 43.84375 L 30 43.875 Z M 22.449219 5.363281 L 22.210938 5.394531 L 21.886719 6.175781 L 22.128906 6.144531 Z M 25.648438 44.921875 C 25.71875 44.941406 25.789062 44.953125 25.859375 44.96875 L 26.089844 44.402344 L 25.851562 44.433594 Z M 21.617188 5.476562 C 21.535156 5.492188 21.449219 5.511719 21.371094 5.53125 L 21.058594 6.289062 L 21.296875 6.253906 Z M 23.277344 5.25 L 23.039062 5.285156 L 22.71875 6.0625 L 22.957031 6.03125 Z M 31.335938 44.433594 L 31.578125 44.402344 L 31.898438 43.621094 L 31.65625 43.652344 Z M 20.722656 5.75 C 20.625 5.792969 20.53125 5.839844 20.4375 5.886719 L 20.230469 6.398438 L 20.46875 6.367188 Z M 24.960938 44.6875 C 25.027344 44.714844 25.089844 44.742188 25.15625 44.765625 L 25.261719 44.511719 L 25.023438 44.542969 Z M 32.996094 44.210938 L 33.238281 44.179688 L 33.558594 43.398438 L 33.316406 43.429688 Z M 32.167969 44.320312 L 32.40625 44.289062 L 32.726562 43.507812 L 32.488281 43.542969 Z M 40.464844 43.207031 L 40.703125 43.175781 L 41.023438 42.394531 L 40.785156 42.425781 Z M 38.804688 43.429688 L 39.042969 43.398438 L 39.367188 42.617188 L 39.125 42.648438 Z M 37.976562 43.542969 L 38.214844 43.511719 L 38.535156 42.730469 L 38.296875 42.761719 Z M 42.191406 42.820312 C 42.289062 42.777344 42.382812 42.730469 42.472656 42.683594 L 42.683594 42.171875 L 42.445312 42.203125 Z M 41.296875 43.089844 C 41.378906 43.078125 41.460938 43.058594 41.542969 43.039062 L 41.855469 42.28125 L 41.613281 42.316406 Z M 39.636719 43.320312 L 39.875 43.285156 L 40.195312 42.503906 L 39.957031 42.539062 Z M 37.144531 43.652344 L 37.386719 43.621094 L 37.707031 42.839844 L 37.46875 42.871094 Z M 33.828125 44.097656 L 34.066406 44.066406 L 34.386719 43.285156 L 34.148438 43.316406 Z M 24.109375 5.140625 L 23.867188 5.171875 L 23.546875 5.953125 L 23.785156 5.921875 Z M 34.65625 43.988281 L 34.894531 43.957031 L 35.21875 43.175781 L 34.976562 43.207031 Z M 36.316406 43.765625 L 36.554688 43.734375 L 36.875 42.953125 L 36.636719 42.984375 Z M 35.484375 43.875 L 35.726562 43.84375 L 36.046875 43.0625 L 35.808594 43.09375 Z M 30.746094 4.246094 L 30.507812 4.28125 L 30.183594 5.0625 L 30.425781 5.027344 Z M 37.949219 3.882812 C 37.886719 3.855469 37.824219 3.828125 37.757812 3.800781 L 37.652344 4.058594 L 37.890625 4.027344 L 37.953125 3.882812 Z M 43.261719 42.128906 C 43.273438 42.113281 43.289062 42.101562 43.300781 42.089844 L 43.273438 42.09375 L 43.257812 42.128906 Z M 35.320312 37.679688 L 35.082031 37.710938 L 34.074219 40.167969 L 34.3125 40.132812 Z M 36.523438 3.539062 C 36.449219 3.535156 36.375 3.535156 36.296875 3.535156 L 35.992188 4.28125 L 36.230469 4.25 Z M 37.261719 3.648438 C 37.195312 3.628906 37.125 3.617188 37.054688 3.601562 L 36.820312 4.167969 L 37.0625 4.136719 Z M 43.152344 39.367188 L 42.910156 39.402344 L 41.902344 41.855469 L 42.140625 41.824219 Z M 43.742188 39.289062 L 42.730469 41.742188 L 42.96875 41.710938 L 43.980469 39.257812 Z M 42.320312 39.480469 L 42.082031 39.511719 L 41.070312 41.964844 L 41.3125 41.933594 Z M 39.003906 39.925781 L 38.761719 39.957031 L 37.753906 42.414062 L 37.992188 42.378906 Z M 38.171875 40.035156 L 37.933594 40.070312 L 36.921875 42.523438 L 37.164062 42.492188 Z M 39.832031 39.8125 L 39.59375 39.847656 L 38.582031 42.300781 L 38.820312 42.269531 Z M 41.492188 39.589844 L 41.253906 39.625 L 40.242188 42.078125 L 40.480469 42.046875 Z M 40.660156 39.703125 L 40.421875 39.734375 L 39.414062 42.1875 L 39.652344 42.15625 Z M 35.722656 3.578125 L 35.484375 3.613281 L 35.160156 4.394531 L 35.402344 4.359375 Z M 28.253906 4.582031 L 28.015625 4.613281 L 27.695312 5.394531 L 27.933594 5.363281 Z M 27.425781 4.695312 L 27.1875 4.726562 L 26.863281 5.507812 L 27.105469 5.476562 Z M 29.914062 4.359375 L 29.675781 4.390625 L 29.355469 5.171875 L 29.59375 5.140625 Z M 29.085938 4.472656 L 28.847656 4.503906 L 28.523438 5.285156 L 28.765625 5.253906 Z M 34.894531 3.691406 L 34.652344 3.722656 L 34.332031 4.503906 L 34.570312 4.472656 Z M 26.597656 4.804688 L 26.355469 4.835938 L 26.035156 5.617188 L 26.273438 5.585938 Z M 25.765625 4.917969 L 25.527344 4.949219 L 25.207031 5.730469 L 25.445312 5.699219 Z M 33.234375 3.914062 L 32.992188 3.945312 L 32.671875 4.726562 L 32.914062 4.695312 Z M 34.0625 3.800781 L 33.824219 3.835938 L 33.503906 4.617188 L 33.742188 4.582031 Z M 37.34375 40.148438 L 37.101562 40.179688 L 36.09375 42.636719 L 36.332031 42.601562 Z M 32.40625 4.023438 L 32.164062 4.058594 L 31.84375 4.839844 L 32.082031 4.804688 Z M 31.574219 4.136719 L 31.335938 4.167969 L 31.015625 4.949219 L 31.253906 4.917969 Z M 35.789062 34.875 L 35.546875 34.910156 L 34.539062 37.363281 L 34.777344 37.332031 Z M 21.738281 12.097656 L 21.496094 12.128906 L 20.488281 14.585938 L 20.726562 14.554688 Z M 27.953125 13.582031 L 28.195312 13.550781 L 29.203125 11.09375 L 28.964844 11.128906 Z M 19.898438 14.664062 L 20.90625 12.210938 L 20.667969 12.242188 L 19.65625 14.695312 Z M 21.316406 14.472656 L 21.558594 14.441406 L 22.566406 11.988281 L 22.328125 12.019531 Z M 19.007812 12.464844 L 18.792969 12.984375 L 18.851562 13.398438 L 19.25 12.433594 Z M 20.078125 12.320312 L 19.839844 12.355469 L 18.988281 14.421875 L 19.035156 14.78125 L 19.066406 14.777344 Z M 22.273438 36.691406 L 22.058594 37.210938 L 22.113281 37.625 L 22.511719 36.660156 Z M 22.976562 14.25 L 23.214844 14.21875 L 24.226562 11.765625 L 23.984375 11.796875 Z M 26.292969 13.804688 L 26.535156 13.773438 L 27.542969 11.320312 L 27.304688 11.351562 Z M 27.125 13.695312 L 27.363281 13.660156 L 28.375 11.207031 L 28.132812 11.238281 Z M 25.464844 13.917969 L 25.703125 13.882812 L 26.714844 11.429688 L 26.476562 11.460938 Z M 23.804688 14.140625 L 24.042969 14.109375 L 25.054688 11.652344 L 24.816406 11.683594 Z M 24.636719 14.027344 L 24.875 13.996094 L 25.882812 11.542969 L 25.644531 11.574219 Z M 23.394531 11.875 L 23.15625 11.90625 L 22.144531 14.363281 L 22.386719 14.332031 Z M 29.148438 35.769531 L 28.910156 35.800781 L 27.898438 38.253906 L 28.140625 38.222656 Z M 30.808594 35.546875 L 30.570312 35.578125 L 29.558594 38.03125 L 29.800781 38 Z M 29.980469 35.65625 L 29.738281 35.6875 L 28.730469 38.144531 L 28.96875 38.109375 Z M 31.640625 35.433594 L 31.398438 35.464844 L 30.390625 37.921875 L 30.628906 37.886719 Z M 23.34375 36.546875 L 23.101562 36.582031 L 22.25 38.648438 L 22.300781 39.007812 L 22.332031 39.003906 L 23.339844 36.546875 Z M 32.46875 35.320312 L 32.230469 35.355469 L 31.21875 37.808594 L 31.457031 37.777344 Z M 33.296875 35.210938 L 33.058594 35.242188 L 32.046875 37.699219 L 32.289062 37.664062 Z M 25 36.324219 L 24.761719 36.355469 L 23.75 38.8125 L 23.992188 38.78125 Z M 28.320312 35.878906 L 28.082031 35.910156 L 27.070312 38.367188 L 27.308594 38.332031 Z M 34.128906 35.097656 L 33.886719 35.132812 L 32.878906 37.585938 L 33.117188 37.554688 Z M 24.820312 38.667969 L 25.832031 36.214844 L 25.589844 36.246094 L 24.582031 38.699219 Z M 26.660156 36.101562 L 26.421875 36.132812 L 25.410156 38.589844 L 25.652344 38.558594 Z M 27.492188 35.992188 L 27.25 36.023438 L 26.242188 38.476562 L 26.480469 38.445312 Z M 23.160156 38.890625 L 24.171875 36.4375 L 23.933594 36.46875 L 22.921875 38.921875 Z M 42.652344 31.214844 L 41.640625 33.667969 L 41.882812 33.636719 L 42.890625 31.179688 Z M 42.472656 33.558594 L 42.710938 33.523438 L 43.5625 31.457031 L 43.511719 31.097656 L 43.480469 31.101562 Z M 39.570312 12.023438 L 39.808594 11.988281 L 40.660156 9.921875 L 40.609375 9.5625 L 40.578125 9.566406 Z M 40.992188 31.4375 L 39.980469 33.890625 L 40.222656 33.859375 L 41.230469 31.40625 Z M 43.539062 33.414062 L 43.753906 32.890625 L 43.699219 32.476562 L 43.300781 33.445312 Z M 40.636719 11.878906 L 40.851562 11.359375 L 40.796875 10.945312 L 40.398438 11.910156 Z M 40.8125 33.78125 L 41.050781 33.746094 L 42.0625 31.292969 L 41.820312 31.324219 Z M 37.082031 31.960938 L 36.84375 31.992188 L 35.832031 34.449219 L 36.074219 34.417969 Z M 36.253906 32.074219 L 36.015625 32.105469 L 35.003906 34.558594 L 35.242188 34.527344 Z M 28.78125 13.472656 L 29.023438 13.4375 L 30.03125 10.984375 L 29.792969 11.015625 Z M 37.492188 34.226562 L 37.734375 34.195312 L 38.742188 31.738281 L 38.503906 31.769531 Z M 39.152344 34.003906 L 39.390625 33.96875 L 40.402344 31.515625 L 40.164062 31.546875 Z M 39.574219 31.628906 L 39.332031 31.660156 L 38.324219 34.113281 L 38.5625 34.082031 Z M 37.914062 31.851562 L 37.671875 31.882812 L 36.664062 34.335938 L 36.902344 34.304688 Z M 39.75 9.679688 L 38.738281 12.132812 L 38.980469 12.101562 L 39.988281 9.648438 Z M 32.101562 13.023438 L 32.339844 12.992188 L 33.351562 10.539062 L 33.113281 10.570312 Z M 32.929688 12.914062 L 33.171875 12.882812 L 34.179688 10.425781 L 33.941406 10.460938 Z M 33.761719 12.800781 L 34 12.769531 L 35.011719 10.316406 L 34.769531 10.347656 Z M 30.441406 13.25 L 30.683594 13.214844 L 31.691406 10.761719 L 31.453125 10.792969 Z M 29.613281 13.359375 L 29.851562 13.328125 L 30.863281 10.871094 L 30.621094 10.90625 Z M 31.273438 13.136719 L 31.511719 13.105469 L 32.523438 10.648438 L 32.28125 10.683594 Z M 37.910156 12.246094 L 38.148438 12.214844 L 39.160156 9.757812 L 38.917969 9.789062 Z M 38.089844 9.902344 L 37.078125 12.355469 L 37.320312 12.324219 L 38.328125 9.871094 Z M 37.261719 10.011719 L 36.25 12.46875 L 36.488281 12.4375 L 37.5 9.980469 Z M 34.589844 12.691406 L 34.832031 12.660156 L 35.839844 10.203125 L 35.601562 10.238281 Z M 35.421875 12.578125 L 35.660156 12.546875 L 36.671875 10.09375 L 36.429688 10.125 Z M 35.886719 9.777344 L 36.125 9.746094 L 37.136719 7.289062 L 36.898438 7.320312 Z M 21.375 9.40625 L 21.136719 9.4375 L 20.125 11.894531 L 20.363281 11.863281 Z M 20.953125 11.78125 L 21.195312 11.75 L 22.203125 9.296875 L 21.964844 9.328125 Z M 19.296875 12.003906 L 19.535156 11.972656 L 20.542969 9.519531 L 20.304688 9.550781 Z M 19.714844 9.628906 L 19.476562 9.660156 L 18.625 11.730469 L 18.671875 12.089844 L 18.703125 12.085938 Z M 21.785156 11.671875 L 22.023438 11.636719 L 23.035156 9.183594 L 22.792969 9.214844 Z M 22.636719 39.382812 L 22.421875 39.90625 L 22.476562 40.320312 L 22.875 39.351562 Z M 34.957031 34.988281 L 34.71875 35.019531 L 33.707031 37.472656 L 33.949219 37.441406 Z M 27.589844 10.890625 L 27.832031 10.859375 L 28.839844 8.402344 L 28.601562 8.4375 Z M 25.929688 11.113281 L 26.171875 11.082031 L 27.179688 8.625 L 26.941406 8.660156 Z M 26.761719 11.003906 L 27 10.96875 L 28.011719 8.515625 L 27.769531 8.546875 Z M 22.613281 11.558594 L 22.851562 11.527344 L 23.863281 9.074219 L 23.621094 9.105469 Z M 23.441406 11.449219 L 23.683594 11.414062 L 24.691406 8.960938 L 24.453125 8.992188 Z M 24.273438 11.335938 L 24.511719 11.304688 L 25.523438 8.851562 L 25.28125 8.882812 Z M 25.101562 11.226562 L 25.339844 11.191406 L 26.351562 8.738281 L 26.113281 8.769531 Z M 32 38.125 L 31.761719 38.15625 L 30.75 40.613281 L 30.992188 40.578125 Z M 31.171875 38.238281 L 30.933594 38.269531 L 29.921875 40.722656 L 30.160156 40.691406 Z M 29.511719 38.460938 L 29.273438 38.492188 L 28.261719 40.945312 L 28.503906 40.914062 Z M 30.34375 38.347656 L 30.101562 38.378906 L 29.09375 40.835938 L 29.332031 40.804688 Z M 32.832031 38.015625 L 32.589844 38.046875 L 31.582031 40.5 L 31.820312 40.46875 Z M 33.660156 37.902344 L 33.421875 37.933594 L 32.410156 40.390625 L 32.652344 40.355469 Z M 23.523438 41.582031 L 24.535156 39.128906 L 24.296875 39.160156 L 23.285156 41.613281 Z M 26.195312 38.90625 L 25.953125 38.9375 L 24.945312 41.390625 L 25.183594 41.359375 Z M 25.363281 39.015625 L 25.125 39.050781 L 24.113281 41.503906 L 24.355469 41.472656 Z M 27.023438 38.792969 L 26.785156 38.828125 L 25.773438 41.28125 L 26.011719 41.25 Z M 27.851562 38.683594 L 27.613281 38.714844 L 26.605469 41.167969 L 26.84375 41.136719 Z M 28.683594 38.570312 L 28.441406 38.601562 L 27.433594 41.058594 L 27.671875 41.027344 Z M 18.644531 9.773438 L 18.429688 10.292969 L 18.488281 10.707031 L 18.886719 9.742188 Z M 39.515625 36.695312 L 39.757812 36.664062 L 40.765625 34.207031 L 40.527344 34.238281 Z M 41.175781 36.472656 L 41.414062 36.4375 L 42.425781 33.984375 L 42.1875 34.015625 Z M 41.59375 34.097656 L 41.355469 34.128906 L 40.347656 36.582031 L 40.585938 36.550781 Z M 43.015625 33.90625 L 42.003906 36.359375 L 42.246094 36.328125 L 43.253906 33.875 Z M 28.421875 10.78125 L 28.660156 10.746094 L 29.671875 8.292969 L 29.429688 8.324219 Z M 42.832031 36.25 L 43.074219 36.214844 L 43.925781 34.148438 L 43.875 33.789062 L 43.84375 33.792969 L 42.835938 36.25 Z M 36.617188 34.765625 L 36.378906 34.796875 L 35.367188 37.25 L 35.605469 37.21875 Z M 39.933594 34.320312 L 39.695312 34.351562 L 38.6875 36.804688 L 38.925781 36.773438 Z M 35.425781 32.183594 L 35.183594 32.214844 L 34.175781 34.671875 L 34.414062 34.640625 Z M 37.445312 34.652344 L 37.207031 34.6875 L 36.195312 37.140625 L 36.4375 37.109375 Z M 40.273438 9.1875 L 40.488281 8.664062 L 40.433594 8.25 L 40.035156 9.21875 Z M 38.277344 34.542969 L 38.035156 34.574219 L 37.027344 37.027344 L 37.265625 36.996094 Z M 39.105469 34.429688 L 38.867188 34.460938 L 37.855469 36.917969 L 38.09375 36.886719 Z M 43.902344 36.105469 L 44.117188 35.585938 L 44.0625 35.167969 L 43.664062 36.136719 Z M 31.738281 10.332031 L 31.980469 10.300781 L 32.988281 7.847656 L 32.75 7.878906 Z M 32.570312 10.222656 L 32.808594 10.191406 L 33.816406 7.734375 L 33.578125 7.765625 Z M 30.910156 10.445312 L 31.148438 10.414062 L 32.160156 7.957031 L 31.917969 7.992188 Z M 30.078125 10.554688 L 30.320312 10.523438 L 31.328125 8.070312 L 31.089844 8.101562 Z M 29.25 10.667969 L 29.488281 10.636719 L 30.5 8.179688 L 30.261719 8.214844 Z M 39.386719 6.988281 L 38.375 9.441406 L 38.617188 9.410156 L 39.625 6.957031 Z M 33.398438 10.109375 L 33.636719 10.078125 L 34.648438 7.625 L 34.410156 7.65625 Z M 38.558594 7.097656 L 37.546875 9.554688 L 37.785156 9.519531 L 38.796875 7.066406 Z M 36.71875 9.664062 L 36.957031 9.632812 L 37.964844 7.179688 L 37.726562 7.210938 Z M 35.058594 9.886719 L 35.296875 9.855469 L 36.308594 7.402344 L 36.066406 7.433594 Z M 34.226562 10 L 34.46875 9.96875 L 35.476562 7.511719 L 35.238281 7.542969 Z M 34.492188 37.792969 L 34.25 37.824219 L 33.242188 40.277344 L 33.480469 40.246094 Z M 34.492188 37.792969 "/><path style=" stroke:none;fill-rule:nonzero;fill:#0400e9;fill-opacity:1;" d="M 10.507812 12.222656 C 9.855469 9.785156 11.300781 7.277344 13.738281 6.625 L 26.234375 3.277344 C 28.675781 2.621094 31.179688 4.070312 31.832031 6.507812 L 39.8125 36.289062 C 40.464844 38.726562 39.019531 41.234375 36.582031 41.886719 L 24.085938 45.234375 C 21.644531 45.886719 19.140625 44.441406 18.488281 42.003906 Z M 10.507812 12.222656 "/><path style=" stroke:none;fill-rule:nonzero;fill:#ffffff;fill-opacity:1;" d="M 14.75 7.4375 L 13.839844 7.679688 C 12.054688 8.160156 10.992188 9.996094 11.472656 11.78125 L 19.542969 41.902344 C 20.019531 43.6875 21.855469 44.746094 23.644531 44.269531 L 36.480469 40.828125 C 38.265625 40.351562 39.328125 38.515625 38.847656 36.730469 L 30.777344 6.609375 C 30.296875 4.820312 28.460938 3.761719 26.675781 4.242188 L 25.765625 4.484375 L 26.011719 5.394531 C 26.160156 5.953125 25.828125 6.527344 25.269531 6.675781 L 16.273438 9.085938 C 15.714844 9.234375 15.144531 8.90625 14.992188 8.347656 Z M 14.75 7.4375 "/><path style=" stroke:none;fill-rule:nonzero;fill:#598ee5;fill-opacity:1;" d="M 25.15625 9.785156 C 25.109375 9.617188 25.210938 9.441406 25.378906 9.394531 L 29.394531 8.300781 C 29.5625 8.257812 29.734375 8.355469 29.78125 8.527344 C 29.824219 8.699219 29.726562 8.871094 29.558594 8.917969 L 25.539062 10.011719 C 25.371094 10.058594 25.199219 9.957031 25.15625 9.785156 Z M 25.15625 9.785156 "/><path style=" stroke:none;fill-rule:nonzero;fill:#598ee5;fill-opacity:1;" d="M 25.5625 11.324219 C 25.515625 11.15625 25.617188 10.980469 25.785156 10.933594 L 29.800781 9.839844 C 29.96875 9.796875 30.140625 9.898438 30.1875 10.066406 C 30.230469 10.238281 30.132812 10.414062 29.964844 10.457031 L 25.945312 11.550781 C 25.777344 11.597656 25.605469 11.496094 25.5625 11.324219 Z M 25.5625 11.324219 "/><path style=" stroke:none;fill-rule:nonzero;fill:#598ee5;fill-opacity:1;" d="M 26.191406 12.476562 C 26.023438 12.519531 25.921875 12.695312 25.96875 12.867188 C 26.011719 13.035156 26.183594 13.136719 26.351562 13.089844 L 28.855469 12.410156 C 29.023438 12.363281 29.121094 12.191406 29.078125 12.019531 C 29.03125 11.851562 28.859375 11.75 28.691406 11.792969 Z M 26.191406 12.476562 "/><path style=" stroke:none;fill-rule:nonzero;fill:#3b2de0;fill-opacity:1;" d="M 17.203125 18.695312 C 16.878906 18.78125 16.6875 19.117188 16.773438 19.441406 C 16.863281 19.765625 17.195312 19.957031 17.515625 19.871094 L 19.433594 19.359375 C 19.515625 19.335938 19.609375 19.371094 19.65625 19.445312 L 24.414062 27.0625 C 24.746094 27.59375 25.378906 27.84375 25.980469 27.683594 L 30.960938 26.347656 C 31.285156 26.261719 31.476562 25.929688 31.386719 25.605469 C 31.300781 25.28125 30.96875 25.085938 30.644531 25.171875 L 25.664062 26.507812 C 25.578125 26.53125 25.488281 26.496094 25.441406 26.417969 L 24.957031 25.648438 L 30.164062 24.253906 C 30.523438 24.15625 30.769531 23.828125 30.761719 23.457031 L 30.671875 18.441406 C 30.664062 17.914062 30.164062 17.53125 29.65625 17.667969 L 21.363281 19.890625 L 20.683594 18.800781 C 20.351562 18.273438 19.714844 18.023438 19.117188 18.183594 Z M 17.203125 18.695312 "/><path style=" stroke:none;fill-rule:nonzero;fill:#3b2de0;fill-opacity:1;" d="M 27.375 28.570312 C 27.519531 29.109375 27.199219 29.667969 26.660156 29.8125 C 26.121094 29.957031 25.570312 29.632812 25.421875 29.09375 C 25.277344 28.550781 25.597656 27.996094 26.136719 27.851562 C 26.675781 27.707031 27.230469 28.027344 27.375 28.570312 Z M 27.375 28.570312 "/><path style=" stroke:none;fill-rule:nonzero;fill:#3b2de0;fill-opacity:1;" d="M 30.5625 28.765625 C 31.101562 28.621094 31.421875 28.066406 31.277344 27.523438 C 31.128906 26.984375 30.578125 26.660156 30.039062 26.804688 C 29.5 26.949219 29.179688 27.507812 29.324219 28.046875 C 29.46875 28.589844 30.023438 28.910156 30.5625 28.765625 Z M 30.5625 28.765625 "/><path style=" stroke:none;fill-rule:nonzero;fill:#598ee5;fill-opacity:1;" d="M 32.132812 32.675781 C 31.683594 32.796875 31.417969 33.261719 31.539062 33.707031 L 32.402344 36.933594 C 32.523438 37.382812 32.984375 37.648438 33.433594 37.53125 L 36.660156 36.664062 C 37.109375 36.542969 37.375 36.082031 37.253906 35.632812 L 36.390625 32.410156 C 36.269531 31.960938 35.808594 31.691406 35.359375 31.8125 Z M 32.132812 32.675781 "/><path style=" stroke:none;fill-rule:nonzero;fill:#598ee5;fill-opacity:1;" d="M 25.574219 35.308594 C 25.457031 34.859375 25.722656 34.394531 26.171875 34.277344 L 29.394531 33.410156 C 29.84375 33.292969 30.308594 33.558594 30.425781 34.007812 L 31.292969 37.230469 C 31.410156 37.679688 31.144531 38.144531 30.695312 38.261719 L 27.472656 39.128906 C 27.023438 39.246094 26.558594 38.980469 26.441406 38.53125 Z M 25.574219 35.308594 "/><path style=" stroke:none;fill-rule:nonzero;fill:#598ee5;fill-opacity:1;" d="M 19.613281 36.90625 C 19.492188 36.457031 19.757812 35.992188 20.207031 35.875 L 23.433594 35.007812 C 23.882812 34.890625 24.34375 35.15625 24.464844 35.605469 L 25.328125 38.828125 C 25.449219 39.277344 25.179688 39.742188 24.730469 39.859375 L 21.507812 40.726562 C 21.058594 40.84375 20.597656 40.578125 20.476562 40.128906 Z M 19.613281 36.90625 "/><g clip-rule="nonzero" clip-path="url(#87c86efe3d)"><path style=" stroke:none;fill-rule:nonzero;fill:#3b2de0;fill-opacity:1;" d="M 41.898438 26.304688 L 57.234375 30.414062 L 54.519531 49.214844 C 54.417969 49.925781 53.714844 50.390625 53.019531 50.203125 L 35.652344 45.550781 C 34.957031 45.363281 34.578125 44.613281 34.847656 43.941406 Z M 41.898438 26.304688 "/></g><path style=" stroke:none;fill-rule:nonzero;fill:#ffffff;fill-opacity:1;" d="M 42.714844 37.609375 C 42.433594 37.542969 42.1875 37.433594 41.96875 37.28125 C 41.757812 37.128906 41.585938 36.953125 41.453125 36.746094 C 41.324219 36.535156 41.238281 36.300781 41.203125 36.042969 C 41.164062 35.78125 41.183594 35.503906 41.253906 35.210938 C 41.324219 34.921875 41.4375 34.671875 41.59375 34.457031 C 41.746094 34.242188 41.929688 34.074219 42.140625 33.953125 C 42.355469 33.824219 42.589844 33.746094 42.851562 33.710938 C 43.109375 33.679688 43.382812 33.695312 43.664062 33.765625 C 43.941406 33.835938 44.1875 33.945312 44.402344 34.09375 C 44.617188 34.246094 44.792969 34.425781 44.921875 34.636719 C 45.054688 34.84375 45.136719 35.078125 45.175781 35.339844 C 45.210938 35.601562 45.195312 35.875 45.121094 36.164062 C 45.050781 36.457031 44.9375 36.710938 44.785156 36.925781 C 44.628906 37.136719 44.445312 37.304688 44.234375 37.429688 C 44.019531 37.550781 43.785156 37.628906 43.523438 37.664062 C 43.265625 37.695312 42.996094 37.679688 42.714844 37.609375 Z M 48.34375 35.242188 C 48.484375 35.132812 48.671875 35.09375 48.84375 35.136719 C 49.324219 35.257812 49.457031 35.875 49.0625 36.175781 L 42.417969 41.273438 C 42.277344 41.382812 42.09375 41.417969 41.917969 41.375 C 41.4375 41.257812 41.308594 40.640625 41.699219 40.339844 Z M 42.953125 36.640625 C 43.074219 36.667969 43.191406 36.675781 43.308594 36.65625 C 43.429688 36.636719 43.539062 36.59375 43.640625 36.53125 C 43.738281 36.464844 43.828125 36.378906 43.902344 36.273438 C 43.976562 36.167969 44.03125 36.042969 44.066406 35.90625 C 44.101562 35.765625 44.109375 35.628906 44.089844 35.5 C 44.074219 35.375 44.039062 35.257812 43.976562 35.15625 C 43.917969 35.050781 43.839844 34.960938 43.746094 34.890625 C 43.652344 34.816406 43.542969 34.765625 43.421875 34.738281 C 43.300781 34.707031 43.179688 34.703125 43.0625 34.722656 C 42.945312 34.742188 42.835938 34.785156 42.738281 34.851562 C 42.636719 34.914062 42.546875 34.996094 42.472656 35.101562 C 42.398438 35.210938 42.34375 35.332031 42.308594 35.472656 C 42.273438 35.609375 42.265625 35.746094 42.28125 35.875 C 42.300781 36.003906 42.339844 36.121094 42.398438 36.226562 C 42.457031 36.328125 42.53125 36.414062 42.625 36.488281 C 42.722656 36.558594 42.832031 36.609375 42.953125 36.640625 Z M 45.589844 40.347656 C 45.660156 40.058594 45.773438 39.808594 45.929688 39.59375 C 46.082031 39.378906 46.265625 39.210938 46.480469 39.089844 C 46.691406 38.960938 46.929688 38.882812 47.1875 38.847656 C 47.449219 38.816406 47.71875 38.832031 48 38.902344 C 48.277344 38.972656 48.527344 39.082031 48.738281 39.230469 C 48.953125 39.382812 49.128906 39.5625 49.257812 39.773438 C 49.390625 39.980469 49.472656 40.214844 49.511719 40.476562 C 49.546875 40.738281 49.53125 41.011719 49.460938 41.300781 C 49.386719 41.59375 49.273438 41.847656 49.121094 42.0625 C 48.964844 42.273438 48.78125 42.441406 48.570312 42.566406 C 48.355469 42.6875 48.121094 42.765625 47.859375 42.800781 C 47.601562 42.832031 47.332031 42.816406 47.050781 42.746094 C 46.769531 42.679688 46.523438 42.566406 46.304688 42.417969 C 46.09375 42.265625 45.921875 42.089844 45.789062 41.882812 C 45.660156 41.671875 45.574219 41.4375 45.539062 41.179688 C 45.5 40.917969 45.519531 40.640625 45.589844 40.347656 Z M 46.644531 40.609375 C 46.613281 40.746094 46.601562 40.882812 46.617188 41.011719 C 46.636719 41.140625 46.675781 41.257812 46.734375 41.363281 C 46.792969 41.464844 46.871094 41.550781 46.960938 41.625 C 47.058594 41.695312 47.167969 41.746094 47.289062 41.777344 C 47.410156 41.804688 47.53125 41.8125 47.644531 41.792969 C 47.765625 41.773438 47.875 41.730469 47.976562 41.667969 C 48.078125 41.601562 48.164062 41.515625 48.238281 41.410156 C 48.3125 41.304688 48.371094 41.179688 48.402344 41.042969 C 48.4375 40.902344 48.445312 40.765625 48.425781 40.636719 C 48.410156 40.511719 48.375 40.394531 48.316406 40.292969 C 48.257812 40.1875 48.179688 40.097656 48.082031 40.027344 C 47.988281 39.953125 47.878906 39.902344 47.757812 39.875 C 47.636719 39.84375 47.519531 39.839844 47.398438 39.859375 C 47.28125 39.878906 47.171875 39.921875 47.074219 39.988281 C 46.972656 40.050781 46.882812 40.132812 46.808594 40.238281 C 46.734375 40.347656 46.679688 40.46875 46.644531 40.609375 Z M 46.644531 40.609375 "/><g clip-rule="nonzero" clip-path="url(#2f0fb87cbd)"><path style=" stroke:none;fill-rule:nonzero;fill:#598ee5;fill-opacity:1;" d="M 55.839844 30.039062 L 57.234375 30.414062 L 54.519531 49.214844 C 54.417969 49.925781 53.714844 50.390625 53.019531 50.203125 L 49.449219 49.246094 Z M 55.839844 30.039062 "/></g><path style=" stroke:none;fill-rule:nonzero;fill:#0400e9;fill-opacity:1;" d="M 55.828125 10.8125 C 57.65625 13.976562 56.570312 18.023438 53.40625 19.847656 C 50.246094 21.675781 46.199219 20.59375 44.371094 17.429688 C 42.546875 14.265625 43.628906 10.21875 46.792969 8.390625 C 49.957031 6.566406 54.003906 7.648438 55.828125 10.8125 Z M 55.828125 10.8125 "/><path style=" stroke:none;fill-rule:evenodd;fill:#0400e9;fill-opacity:1;" d="M 44.523438 25.324219 C 45.203125 22.792969 47.808594 21.289062 50.34375 21.964844 C 52.878906 22.644531 54.382812 25.25 53.703125 27.785156 L 52.785156 31.214844 L 51.855469 30.964844 L 52.773438 27.535156 C 53.316406 25.515625 52.117188 23.4375 50.09375 22.894531 C 48.074219 22.355469 45.996094 23.554688 45.453125 25.574219 L 44.535156 29.003906 L 43.605469 28.753906 Z M 44.523438 25.324219 "/><path style=" stroke:none;fill-rule:nonzero;fill:#3b2de0;fill-opacity:1;" d="M 54.625 9.609375 C 56.453125 12.773438 55.367188 16.820312 52.207031 18.648438 C 49.042969 20.472656 44.996094 19.390625 43.167969 16.226562 C 41.34375 13.0625 42.425781 9.015625 45.589844 7.191406 C 48.753906 5.363281 52.800781 6.445312 54.625 9.609375 Z M 54.625 9.609375 "/><path style=" stroke:none;fill-rule:nonzero;fill:#598ee5;fill-opacity:1;" d="M 53.585938 10.210938 C 55.078125 12.800781 54.191406 16.109375 51.605469 17.605469 C 49.015625 19.097656 45.707031 18.210938 44.210938 15.625 C 42.714844 13.035156 43.601562 9.726562 46.191406 8.230469 C 48.78125 6.738281 52.089844 7.625 53.585938 10.210938 Z M 53.585938 10.210938 "/><path style=" stroke:none;fill-rule:nonzero;fill:#ffffff;fill-opacity:1;" d="M 47.101562 15.863281 C 47.117188 15.574219 47.355469 15.347656 47.648438 15.324219 C 47.664062 15.324219 47.683594 15.324219 47.703125 15.320312 C 47.890625 15.304688 48.078125 15.277344 48.261719 15.242188 C 48.449219 15.203125 48.636719 15.152344 48.824219 15.09375 C 49.015625 15.035156 49.207031 14.957031 49.398438 14.863281 L 48.695312 13.640625 C 48.597656 13.714844 48.503906 13.78125 48.414062 13.84375 C 48.324219 13.90625 48.234375 13.964844 48.144531 14.015625 C 47.933594 14.140625 47.714844 14.230469 47.484375 14.285156 C 47.257812 14.34375 47.035156 14.359375 46.820312 14.335938 C 46.605469 14.308594 46.40625 14.238281 46.222656 14.125 C 46.035156 14.007812 45.878906 13.839844 45.75 13.613281 C 45.640625 13.425781 45.570312 13.214844 45.539062 12.988281 C 45.511719 12.757812 45.542969 12.515625 45.632812 12.269531 C 45.722656 12.019531 45.878906 11.765625 46.101562 11.507812 C 46.324219 11.25 46.632812 10.996094 47.023438 10.75 L 46.691406 10.175781 C 46.574219 9.976562 46.644531 9.71875 46.839844 9.605469 C 47.039062 9.492188 47.292969 9.558594 47.410156 9.757812 L 47.753906 10.355469 C 48.109375 10.191406 48.464844 10.0625 48.824219 9.964844 C 48.988281 9.921875 49.148438 9.882812 49.304688 9.851562 C 49.597656 9.796875 49.863281 10.027344 49.871094 10.328125 C 49.882812 10.597656 49.679688 10.828125 49.414062 10.882812 C 49.3125 10.902344 49.207031 10.925781 49.097656 10.953125 C 48.824219 11.019531 48.546875 11.113281 48.261719 11.234375 L 48.832031 12.21875 C 48.921875 12.152344 49.015625 12.089844 49.109375 12.027344 C 49.203125 11.964844 49.292969 11.90625 49.386719 11.851562 C 49.667969 11.691406 49.929688 11.578125 50.183594 11.519531 C 50.4375 11.457031 50.671875 11.445312 50.886719 11.480469 C 51.097656 11.515625 51.292969 11.59375 51.464844 11.722656 C 51.636719 11.847656 51.78125 12.011719 51.902344 12.222656 C 52.050781 12.480469 52.132812 12.742188 52.144531 13.015625 C 52.15625 13.285156 52.105469 13.550781 51.992188 13.816406 C 51.882812 14.082031 51.710938 14.34375 51.476562 14.597656 C 51.246094 14.851562 50.960938 15.09375 50.625 15.320312 L 50.960938 15.902344 C 51.074219 16.101562 51.007812 16.355469 50.808594 16.472656 C 50.609375 16.585938 50.355469 16.515625 50.238281 16.316406 L 49.90625 15.738281 C 49.421875 15.980469 48.933594 16.160156 48.449219 16.273438 C 48.175781 16.335938 47.90625 16.382812 47.644531 16.410156 C 47.335938 16.4375 47.085938 16.175781 47.101562 15.863281 Z M 46.703125 12.941406 C 46.785156 13.085938 46.917969 13.167969 47.101562 13.1875 C 47.28125 13.203125 47.5 13.136719 47.761719 12.988281 C 47.820312 12.953125 47.882812 12.914062 47.953125 12.867188 C 48.019531 12.820312 48.089844 12.773438 48.160156 12.71875 L 47.527344 11.621094 C 47.304688 11.761719 47.125 11.898438 46.996094 12.027344 C 46.867188 12.15625 46.777344 12.277344 46.71875 12.390625 C 46.664062 12.503906 46.636719 12.605469 46.640625 12.699219 C 46.644531 12.792969 46.664062 12.871094 46.703125 12.941406 Z M 50.121094 14.453125 C 50.34375 14.308594 50.523438 14.164062 50.664062 14.023438 C 50.800781 13.882812 50.902344 13.75 50.964844 13.621094 C 51.027344 13.492188 51.058594 13.367188 51.054688 13.25 C 51.050781 13.136719 51.023438 13.027344 50.964844 12.929688 C 50.863281 12.753906 50.710938 12.65625 50.507812 12.636719 C 50.304688 12.617188 50.054688 12.691406 49.753906 12.867188 C 49.691406 12.902344 49.625 12.945312 49.558594 12.992188 C 49.492188 13.035156 49.425781 13.082031 49.359375 13.132812 Z M 50.121094 14.453125 "/></g></svg>