<svg xmlns="http://www.w3.org/2000/svg" xmlns:xlink="http://www.w3.org/1999/xlink" width="91" zoomAndPan="magnify" viewBox="0 0 68.25 54" height="72" preserveAspectRatio="xMidYMid meet" version="1.2"><defs><clipPath id="49817d7570"><path d="M 10.675781 2 L 57 2 L 57 26 L 10.675781 26 Z M 10.675781 2 "/></clipPath><clipPath id="a81770101b"><path d="M 13 27 L 55 27 L 55 51.5625 L 13 51.5625 Z M 13 27 "/></clipPath></defs><g id="1aa3d959dd"><g clip-rule="nonzero" clip-path="url(#49817d7570)"><path style=" stroke:none;fill-rule:nonzero;fill:#0400e9;fill-opacity:1;" d="M 26.09375 25.0625 L 13.355469 25.0625 C 11.171875 25.0625 10.707031 25.042969 10.707031 22.882812 L 10.703125 15.339844 C 10.6875 13.570312 12.09375 13.675781 13.394531 13.675781 L 25.4375 13.671875 C 25.203125 13.632812 24.972656 13.488281 24.75 13.398438 L 23.988281 13.09375 C 22.933594 12.664062 21.816406 12.214844 20.875 11.566406 C 17.1875 9.015625 17.636719 3.8125 22.28125 2.628906 C 26.75 1.488281 30.199219 4.558594 32.371094 8.210938 L 33.101562 9.511719 C 33.316406 9.917969 33.515625 10.335938 33.761719 10.726562 C 33.824219 10.660156 33.863281 10.5625 33.90625 10.480469 L 34.777344 8.871094 C 36.539062 5.832031 39.230469 2.441406 43.089844 2.402344 C 43.445312 2.402344 43.816406 2.386719 44.167969 2.421875 C 47.632812 2.75 50.234375 5.78125 48.707031 9.175781 C 47.804688 11.175781 45.929688 12.105469 44.003906 12.875 L 41.945312 13.679688 L 53.941406 13.675781 C 55.160156 13.679688 56.804688 13.503906 56.816406 15.222656 L 56.820312 22.941406 C 56.820312 23.839844 56.785156 24.890625 55.582031 25.054688 C 55.390625 25.078125 55.183594 25.0625 54.988281 25.0625 L 37.753906 25.0625 L 37.757812 15.304688 L 29.777344 15.289062 L 29.777344 25.0625 Z M 23.710938 4.945312 C 21.101562 5.078125 19.65625 7.382812 21.953125 9.335938 C 22.96875 10.199219 25.035156 10.820312 26.28125 11.222656 L 29.488281 12.222656 L 31.816406 12.851562 C 31.222656 12.175781 30.769531 11.398438 30.269531 10.652344 C 29.027344 8.785156 26.949219 5.625 24.675781 5.003906 C 24.394531 4.925781 24.003906 4.925781 23.710938 4.945312 Z M 43.371094 4.941406 C 41.460938 5.148438 40.0625 6.910156 38.941406 8.304688 L 35.65625 12.898438 L 38.316406 12.117188 C 40.230469 11.535156 42.167969 11.027344 44.003906 10.21875 C 44.964844 9.800781 45.820312 9.378906 46.332031 8.414062 C 47.5625 6.089844 45.445312 4.78125 43.371094 4.941406 Z M 43.371094 4.941406 "/></g><g clip-rule="nonzero" clip-path="url(#a81770101b)"><path style=" stroke:none;fill-rule:nonzero;fill:#0400e9;fill-opacity:1;" d="M 54.085938 28.542969 L 54.066406 48.761719 C 53.960938 50.144531 52.960938 51.332031 51.546875 51.464844 C 50.917969 51.527344 50.25 51.484375 49.621094 51.484375 L 17.859375 51.484375 C 17.199219 51.484375 16.503906 51.527344 15.84375 51.464844 C 14.59375 51.347656 13.585938 50.164062 13.445312 48.957031 C 13.40625 48.636719 13.433594 48.285156 13.433594 47.960938 L 13.433594 28.582031 C 13.433594 28.078125 13.410156 27.558594 13.460938 27.058594 L 29.765625 27.074219 C 29.792969 27.3125 29.773438 27.570312 29.773438 27.8125 L 29.777344 49.886719 L 37.753906 49.886719 L 37.746094 27.070312 L 54.074219 27.0625 C 54.125 27.542969 54.085938 28.058594 54.085938 28.542969 Z M 54.085938 28.542969 "/></g></g></svg>