<svg xmlns="http://www.w3.org/2000/svg" xmlns:xlink="http://www.w3.org/1999/xlink" width="91" zoomAndPan="magnify" viewBox="0 0 68.25 54" height="72" preserveAspectRatio="xMidYMid meet" version="1.2"><defs><clipPath id="a5a1e51553"><path d="M 12.695312 19.84375 L 26.023438 19.84375 L 26.023438 33.171875 L 12.695312 33.171875 Z M 12.695312 19.84375 "/></clipPath><clipPath id="7e969c57ca"><path d="M 19.359375 19.84375 C 15.679688 19.84375 12.695312 22.828125 12.695312 26.507812 C 12.695312 30.191406 15.679688 33.171875 19.359375 33.171875 C 23.042969 33.171875 26.023438 30.191406 26.023438 26.507812 C 26.023438 22.828125 23.042969 19.84375 19.359375 19.84375 Z M 19.359375 19.84375 "/></clipPath><clipPath id="1efb0248c8"><path d="M 41.5625 3.644531 L 54.890625 3.644531 L 54.890625 16.972656 L 41.5625 16.972656 Z M 41.5625 3.644531 "/></clipPath><clipPath id="c8ec2bc1fb"><path d="M 48.226562 3.644531 C 44.546875 3.644531 41.5625 6.628906 41.5625 10.308594 C 41.5625 13.988281 44.546875 16.972656 48.226562 16.972656 C 51.90625 16.972656 54.890625 13.988281 54.890625 10.308594 C 54.890625 6.628906 51.90625 3.644531 48.226562 3.644531 Z M 48.226562 3.644531 "/></clipPath><clipPath id="e2db7ff93c"><path d="M 41.5625 36.046875 L 54.890625 36.046875 L 54.890625 49.375 L 41.5625 49.375 Z M 41.5625 36.046875 "/></clipPath><clipPath id="abda801186"><path d="M 48.226562 36.046875 C 44.546875 36.046875 41.5625 39.027344 41.5625 42.710938 C 41.5625 46.390625 44.546875 49.375 48.226562 49.375 C 51.90625 49.375 54.890625 46.390625 54.890625 42.710938 C 54.890625 39.027344 51.90625 36.046875 48.226562 36.046875 Z M 48.226562 36.046875 "/></clipPath></defs><g id="aae8b9b907"><path style=" stroke:none;fill-rule:nonzero;fill:#0400e9;fill-opacity:1;" d="M 56.539062 42.917969 C 56.539062 43.53125 56.476562 44.140625 56.347656 44.738281 C 56.222656 45.339844 56.035156 45.917969 55.785156 46.476562 C 55.535156 47.039062 55.230469 47.566406 54.867188 48.058594 C 54.507812 48.554688 54.097656 49.007812 53.640625 49.417969 C 53.183594 49.828125 52.691406 50.183594 52.160156 50.488281 C 51.625 50.792969 51.070312 51.039062 50.484375 51.226562 C 49.902344 51.414062 49.304688 51.535156 48.695312 51.597656 C 48.085938 51.660156 47.476562 51.65625 46.867188 51.589844 C 46.257812 51.519531 45.660156 51.390625 45.078125 51.195312 C 44.5 51.003906 43.941406 50.75 43.414062 50.441406 C 42.886719 50.128906 42.394531 49.769531 41.945312 49.355469 C 41.492188 48.941406 41.085938 48.484375 40.730469 47.984375 C 40.375 47.484375 40.078125 46.953125 39.832031 46.390625 C 39.589844 45.828125 39.40625 45.25 39.285156 44.648438 C 39.164062 44.046875 39.109375 43.441406 39.113281 42.828125 C 39.121094 42.214844 39.191406 41.609375 39.328125 41.011719 L 25.589844 33.039062 C 25.175781 33.429688 24.726562 33.777344 24.246094 34.082031 C 23.761719 34.386719 23.257812 34.640625 22.722656 34.84375 C 22.191406 35.050781 21.644531 35.199219 21.085938 35.296875 C 20.523438 35.394531 19.957031 35.4375 19.386719 35.421875 C 18.816406 35.410156 18.253906 35.339844 17.699219 35.214844 C 17.144531 35.089844 16.605469 34.914062 16.082031 34.683594 C 15.5625 34.453125 15.066406 34.175781 14.601562 33.851562 C 14.132812 33.523438 13.703125 33.152344 13.308594 32.742188 C 12.914062 32.332031 12.5625 31.886719 12.257812 31.40625 C 11.949219 30.925781 11.691406 30.417969 11.484375 29.890625 C 11.277344 29.359375 11.125 28.8125 11.023438 28.25 C 10.921875 27.691406 10.875 27.125 10.886719 26.554688 C 10.898438 25.984375 10.960938 25.421875 11.082031 24.867188 C 11.203125 24.308594 11.378906 23.769531 11.605469 23.246094 C 11.832031 22.722656 12.105469 22.226562 12.429688 21.757812 C 12.753906 21.289062 13.121094 20.859375 13.53125 20.460938 C 13.941406 20.0625 14.382812 19.710938 14.863281 19.402344 C 15.339844 19.089844 15.84375 18.832031 16.375 18.621094 C 16.902344 18.410156 17.449219 18.25 18.007812 18.148438 C 18.566406 18.042969 19.132812 17.996094 19.703125 18.003906 C 20.273438 18.007812 20.835938 18.070312 21.394531 18.1875 C 21.953125 18.304688 22.492188 18.476562 23.015625 18.699219 C 23.539062 18.925781 24.039062 19.195312 24.507812 19.519531 C 24.980469 19.839844 25.414062 20.203125 25.8125 20.609375 L 39.394531 12.726562 C 39.308594 12.394531 39.238281 12.054688 39.191406 11.714844 C 39.144531 11.375 39.117188 11.03125 39.109375 10.6875 C 39.101562 10.34375 39.113281 10 39.148438 9.65625 C 39.179688 9.316406 39.234375 8.976562 39.308594 8.640625 C 39.378906 8.304688 39.472656 7.972656 39.585938 7.648438 C 39.699219 7.320312 39.828125 7.003906 39.980469 6.695312 C 40.128906 6.386719 40.296875 6.085938 40.480469 5.796875 C 40.667969 5.503906 40.871094 5.226562 41.089844 4.960938 C 41.308594 4.695312 41.539062 4.441406 41.789062 4.203125 C 42.035156 3.964844 42.296875 3.742188 42.574219 3.535156 C 42.847656 3.328125 43.132812 3.136719 43.429688 2.964844 C 43.726562 2.789062 44.035156 2.636719 44.351562 2.496094 C 44.664062 2.359375 44.988281 2.242188 45.316406 2.144531 C 45.648438 2.042969 45.980469 1.964844 46.320312 1.90625 C 46.660156 1.84375 47 1.804688 47.34375 1.785156 C 47.6875 1.765625 48.03125 1.769531 48.375 1.789062 C 48.71875 1.8125 49.058594 1.851562 49.398438 1.914062 C 49.738281 1.976562 50.070312 2.058594 50.398438 2.160156 C 50.730469 2.261719 51.050781 2.382812 51.363281 2.519531 C 51.679688 2.660156 51.984375 2.816406 52.28125 2.992188 C 52.578125 3.167969 52.863281 3.363281 53.136719 3.570312 C 53.410156 3.78125 53.667969 4.003906 53.914062 4.246094 C 54.160156 4.484375 54.394531 4.738281 54.609375 5.003906 C 54.828125 5.273438 55.027344 5.550781 55.210938 5.84375 C 55.394531 6.132812 55.558594 6.4375 55.707031 6.746094 C 55.855469 7.058594 55.984375 7.375 56.09375 7.703125 C 56.207031 8.027344 56.296875 8.359375 56.367188 8.695312 C 56.4375 9.03125 56.488281 9.371094 56.519531 9.714844 C 56.550781 10.058594 56.5625 10.402344 56.550781 10.746094 C 56.542969 11.089844 56.511719 11.433594 56.460938 11.773438 C 56.410156 12.113281 56.34375 12.449219 56.25 12.78125 C 56.160156 13.113281 56.050781 13.4375 55.921875 13.757812 C 55.796875 14.078125 55.648438 14.386719 55.484375 14.691406 C 55.316406 14.992188 55.132812 15.28125 54.933594 15.5625 C 54.734375 15.84375 54.519531 16.109375 54.289062 16.367188 C 54.054688 16.621094 53.8125 16.859375 53.550781 17.085938 C 53.289062 17.3125 53.019531 17.523438 52.734375 17.714844 C 52.449219 17.910156 52.152344 18.085938 51.847656 18.242188 C 51.542969 18.402344 51.230469 18.542969 50.90625 18.664062 C 50.585938 18.785156 50.257812 18.886719 49.921875 18.96875 C 49.589844 19.050781 49.25 19.113281 48.910156 19.15625 C 48.566406 19.199219 48.222656 19.21875 47.878906 19.222656 C 47.535156 19.222656 47.191406 19.207031 46.851562 19.167969 C 46.507812 19.128906 46.171875 19.070312 45.835938 18.992188 C 45.5 18.914062 45.171875 18.8125 44.847656 18.695312 C 44.523438 18.578125 44.207031 18.441406 43.902344 18.289062 C 43.59375 18.132812 43.296875 17.960938 43.011719 17.769531 C 42.722656 17.578125 42.449219 17.371094 42.1875 17.148438 L 28.191406 25.273438 C 28.269531 25.75 28.3125 26.230469 28.3125 26.714844 C 28.3125 27.304688 28.253906 27.890625 28.132812 28.472656 L 41.949219 36.488281 C 42.574219 35.917969 43.265625 35.449219 44.027344 35.082031 C 44.785156 34.710938 45.582031 34.457031 46.417969 34.320312 C 47.25 34.183594 48.085938 34.167969 48.925781 34.277344 C 49.761719 34.382812 50.570312 34.605469 51.34375 34.945312 C 52.117188 35.289062 52.824219 35.730469 53.46875 36.277344 C 54.113281 36.824219 54.664062 37.453125 55.125 38.160156 C 55.585938 38.867188 55.9375 39.628906 56.179688 40.4375 C 56.417969 41.246094 56.539062 42.074219 56.539062 42.917969 Z M 56.539062 42.917969 "/><g clip-rule="nonzero" clip-path="url(#a5a1e51553)"><g clip-rule="nonzero" clip-path="url(#7e969c57ca)"><path style=" stroke:none;fill-rule:nonzero;fill:#f6f6fe;fill-opacity:1;" d="M 12.695312 19.84375 L 26.023438 19.84375 L 26.023438 33.171875 L 12.695312 33.171875 Z M 12.695312 19.84375 "/></g></g><g clip-rule="nonzero" clip-path="url(#1efb0248c8)"><g clip-rule="nonzero" clip-path="url(#c8ec2bc1fb)"><path style=" stroke:none;fill-rule:nonzero;fill:#c5c4fb;fill-opacity:1;" d="M 41.5625 3.644531 L 54.890625 3.644531 L 54.890625 16.972656 L 41.5625 16.972656 Z M 41.5625 3.644531 "/></g></g><g clip-rule="nonzero" clip-path="url(#e2db7ff93c)"><g clip-rule="nonzero" clip-path="url(#abda801186)"><path style=" stroke:none;fill-rule:nonzero;fill:#c5c4fb;fill-opacity:1;" d="M 41.5625 36.046875 L 54.890625 36.046875 L 54.890625 49.375 L 41.5625 49.375 Z M 41.5625 36.046875 "/></g></g></g></svg>