<svg xmlns="http://www.w3.org/2000/svg" xmlns:xlink="http://www.w3.org/1999/xlink" width="91" zoomAndPan="magnify" viewBox="0 0 68.25 54" height="72" preserveAspectRatio="xMidYMid meet" version="1.2"><defs><clipPath id="fd8a77ea12"><path d="M 9.457031 0.515625 L 61.738281 0.515625 L 61.738281 52.796875 L 9.457031 52.796875 Z M 9.457031 0.515625 "/></clipPath></defs><g id="c9c7a89af4"><g clip-rule="nonzero" clip-path="url(#fd8a77ea12)"><path style=" stroke:none;fill-rule:nonzero;fill:#0400e9;fill-opacity:1;" d="M 21.21875 0.515625 L 49.945312 0.515625 C 53.195312 0.515625 56.132812 1.832031 58.277344 3.976562 C 60.390625 6.089844 61.738281 9.0625 61.738281 12.277344 L 61.738281 41.003906 C 61.738281 44.253906 60.390625 47.191406 58.277344 49.335938 C 56.132812 51.449219 53.195312 52.796875 49.945312 52.796875 L 21.21875 52.796875 C 18.003906 52.796875 15.03125 51.449219 12.917969 49.335938 C 10.773438 47.191406 9.457031 44.253906 9.457031 41.003906 L 9.457031 12.277344 C 9.457031 9.0625 10.773438 6.089844 12.917969 3.976562 C 15.03125 1.832031 18.003906 0.515625 21.21875 0.515625 Z M 49.945312 5.171875 L 21.21875 5.171875 C 19.257812 5.171875 17.480469 5.96875 16.195312 7.253906 C 14.910156 8.539062 14.113281 10.316406 14.113281 12.277344 L 14.113281 41.003906 C 14.113281 42.964844 14.910156 44.742188 16.195312 46.027344 C 17.480469 47.34375 19.257812 48.140625 21.21875 48.140625 L 49.945312 48.140625 C 51.90625 48.140625 53.683594 47.34375 54.96875 46.027344 C 56.285156 44.742188 57.082031 42.964844 57.082031 41.003906 L 57.082031 12.277344 C 57.082031 10.316406 56.285156 8.539062 54.96875 7.253906 C 53.683594 5.96875 51.90625 5.171875 49.945312 5.171875 Z M 49.945312 5.171875 "/></g><path style=" stroke:none;fill-rule:nonzero;fill:#0400e9;fill-opacity:1;" d="M 50.253906 9.640625 C 50.894531 9.640625 51.507812 9.886719 51.90625 10.316406 C 52.335938 10.746094 52.613281 11.328125 52.613281 11.96875 C 52.613281 12.613281 52.335938 13.226562 51.90625 13.625 C 51.507812 14.054688 50.894531 14.328125 50.253906 14.328125 C 49.609375 14.328125 49.027344 14.054688 48.597656 13.625 C 48.171875 13.226562 47.925781 12.613281 47.925781 11.96875 C 47.925781 11.328125 48.171875 10.746094 48.597656 10.316406 C 49.027344 9.886719 49.609375 9.640625 50.253906 9.640625 Z M 50.253906 9.640625 "/><path style=" stroke:none;fill-rule:nonzero;fill:#0400e9;fill-opacity:1;" d="M 35.582031 13.960938 C 39.105469 13.960938 42.257812 15.402344 44.554688 17.667969 C 46.851562 19.964844 48.292969 23.148438 48.292969 26.640625 C 48.292969 30.164062 46.851562 33.316406 44.554688 35.613281 C 42.257812 37.914062 39.105469 39.351562 35.582031 39.351562 C 32.089844 39.351562 28.90625 37.914062 26.609375 35.613281 C 24.34375 33.316406 22.902344 30.164062 22.902344 26.640625 C 22.902344 23.148438 24.34375 19.964844 26.609375 17.667969 C 28.90625 15.402344 32.089844 13.960938 35.582031 13.960938 Z M 41.25 21.003906 C 39.808594 19.566406 37.789062 18.648438 35.582031 18.648438 C 33.378906 18.648438 31.386719 19.566406 29.945312 21.003906 C 28.507812 22.445312 27.589844 24.4375 27.589844 26.640625 C 27.589844 28.847656 28.507812 30.867188 29.945312 32.308594 C 31.386719 33.746094 33.378906 34.636719 35.582031 34.636719 C 37.789062 34.636719 39.808594 33.746094 41.25 32.308594 C 42.6875 30.867188 43.578125 28.847656 43.578125 26.640625 C 43.578125 24.4375 42.6875 22.445312 41.25 21.003906 Z M 41.25 21.003906 "/></g></svg>