<svg xmlns="http://www.w3.org/2000/svg" xmlns:xlink="http://www.w3.org/1999/xlink" width="91" zoomAndPan="magnify" viewBox="0 0 68.25 54" height="72" preserveAspectRatio="xMidYMid meet" version="1.2"><defs><clipPath id="fddacc9323"><path d="M 8.351562 0 L 62 0 L 62 53.019531 L 8.351562 53.019531 Z M 8.351562 0 "/></clipPath><clipPath id="cb06a6bec2"><path d="M 20.648438 11.191406 L 25.066406 11.191406 L 25.066406 15.609375 L 20.648438 15.609375 Z M 20.648438 11.191406 "/></clipPath><clipPath id="30529f0683"><path d="M 22.859375 11.191406 C 21.636719 11.191406 20.648438 12.183594 20.648438 13.402344 C 20.648438 14.621094 21.636719 15.609375 22.859375 15.609375 C 24.078125 15.609375 25.066406 14.621094 25.066406 13.402344 C 25.066406 12.183594 24.078125 11.191406 22.859375 11.191406 Z M 22.859375 11.191406 "/></clipPath></defs><g id="43a8814798"><path style=" stroke:none;fill-rule:nonzero;fill:#0400e9;fill-opacity:1;" d="M 20.847656 18.851562 L 24.8125 18.851562 C 25.023438 18.851562 25.203125 18.925781 25.351562 19.074219 C 25.5 19.222656 25.574219 19.402344 25.574219 19.613281 L 25.574219 41.421875 C 25.574219 41.628906 25.5 41.808594 25.351562 41.957031 C 25.203125 42.105469 25.023438 42.179688 24.8125 42.179688 L 20.847656 42.179688 C 20.640625 42.179688 20.460938 42.105469 20.3125 41.957031 C 20.164062 41.808594 20.089844 41.628906 20.089844 41.421875 L 20.089844 19.613281 C 20.089844 19.402344 20.164062 19.222656 20.3125 19.074219 C 20.460938 18.925781 20.640625 18.851562 20.847656 18.851562 Z M 20.847656 18.851562 "/><path style=" stroke:none;fill-rule:nonzero;fill:#0400e9;fill-opacity:1;" d="M 26.023438 13.472656 C 26.019531 11.601562 24.679688 10.246094 22.832031 10.246094 C 20.984375 10.246094 19.59375 11.636719 19.59375 13.484375 C 19.59375 14.34375 19.90625 15.144531 20.476562 15.734375 C 21.058594 16.34375 21.863281 16.679688 22.742188 16.679688 C 23.714844 16.679688 24.582031 16.335938 25.183594 15.710938 C 25.75 15.125 26.046875 14.335938 26.027344 13.484375 C 26.027344 13.480469 26.023438 13.476562 26.023438 13.472656 Z M 26.023438 13.472656 "/><path style=" stroke:none;fill-rule:nonzero;fill:#0400e9;fill-opacity:1;" d="M 47.742188 20.386719 C 45.769531 18.621094 43.453125 18.355469 42.25 18.355469 C 40.453125 18.355469 38.738281 18.835938 37.296875 19.746094 C 36.664062 20.144531 36.09375 20.613281 35.585938 21.160156 L 35.484375 19.5625 C 35.472656 19.363281 35.390625 19.195312 35.246094 19.054688 C 35.097656 18.917969 34.925781 18.851562 34.722656 18.851562 L 31.210938 18.851562 C 30.992188 18.851562 30.804688 18.933594 30.65625 19.09375 C 30.503906 19.257812 30.4375 19.449219 30.453125 19.667969 C 30.578125 21.332031 30.632812 23.082031 30.632812 25.511719 L 30.632812 41.421875 C 30.632812 41.628906 30.707031 41.808594 30.855469 41.957031 C 31.003906 42.105469 31.183594 42.179688 31.390625 42.179688 L 35.355469 42.179688 C 35.566406 42.179688 35.746094 42.105469 35.894531 41.957031 C 36.042969 41.808594 36.117188 41.628906 36.117188 41.421875 L 36.117188 28.308594 C 36.117188 27.691406 36.199219 27.113281 36.34375 26.722656 C 36.347656 26.707031 36.351562 26.695312 36.355469 26.683594 C 36.890625 24.933594 38.519531 23.164062 40.945312 23.164062 C 42.445312 23.164062 43.523438 23.679688 44.242188 24.734375 C 44.886719 25.691406 45.230469 27.113281 45.230469 28.847656 L 45.230469 41.421875 C 45.230469 41.628906 45.304688 41.808594 45.453125 41.957031 C 45.601562 42.105469 45.78125 42.179688 45.988281 42.179688 L 49.953125 42.179688 C 50.164062 42.179688 50.34375 42.105469 50.492188 41.957031 C 50.640625 41.808594 50.714844 41.628906 50.714844 41.421875 L 50.714844 28.398438 C 50.714844 26.542969 50.433594 24.898438 49.882812 23.511719 C 49.386719 22.261719 48.664062 21.210938 47.742188 20.386719 Z M 47.742188 20.386719 "/><g clip-rule="nonzero" clip-path="url(#fddacc9323)"><path style=" stroke:none;fill-rule:nonzero;fill:#0400e9;fill-opacity:1;" d="M 54.980469 -0.589844 L 15.332031 -0.589844 C 11.484375 -0.589844 8.351562 2.542969 8.351562 6.390625 L 8.351562 46.039062 C 8.351562 49.886719 11.484375 53.015625 15.332031 53.015625 L 54.980469 53.015625 C 58.828125 53.015625 61.957031 49.886719 61.957031 46.039062 L 61.957031 6.390625 C 61.957031 2.542969 58.828125 -0.589844 54.980469 -0.589844 Z M 57.058594 6.726562 L 57.058594 45.699219 C 57.058594 46.019531 56.996094 46.328125 56.871094 46.625 C 56.75 46.917969 56.574219 47.179688 56.347656 47.40625 C 56.121094 47.632812 55.859375 47.808594 55.566406 47.929688 C 55.269531 48.054688 54.960938 48.117188 54.640625 48.117188 L 15.667969 48.117188 C 15.347656 48.117188 15.039062 48.054688 14.746094 47.929688 C 14.449219 47.808594 14.1875 47.632812 13.960938 47.40625 C 13.734375 47.179688 13.558594 46.917969 13.4375 46.625 C 13.3125 46.328125 13.253906 46.019531 13.253906 45.699219 L 13.253906 6.726562 C 13.253906 6.40625 13.3125 6.097656 13.4375 5.804688 C 13.558594 5.507812 13.734375 5.246094 13.960938 5.019531 C 14.1875 4.792969 14.449219 4.617188 14.746094 4.496094 C 15.039062 4.371094 15.347656 4.3125 15.667969 4.3125 L 54.640625 4.3125 C 54.960938 4.3125 55.269531 4.371094 55.566406 4.496094 C 55.859375 4.617188 56.121094 4.792969 56.347656 5.019531 C 56.574219 5.246094 56.75 5.507812 56.871094 5.804688 C 56.996094 6.097656 57.058594 6.40625 57.058594 6.726562 Z M 57.058594 6.726562 "/></g><g clip-rule="nonzero" clip-path="url(#cb06a6bec2)"><g clip-rule="nonzero" clip-path="url(#30529f0683)"><path style=" stroke:none;fill-rule:nonzero;fill:#c5c4fb;fill-opacity:1;" d="M 20.648438 11.191406 L 25.066406 11.191406 L 25.066406 15.609375 L 20.648438 15.609375 Z M 20.648438 11.191406 "/></g></g></g></svg>