<svg xmlns="http://www.w3.org/2000/svg" xmlns:xlink="http://www.w3.org/1999/xlink" width="91" zoomAndPan="magnify" viewBox="0 0 68.25 54" height="72" preserveAspectRatio="xMidYMid meet" version="1.2"><defs><clipPath id="f39cb25c1f"><path d="M 9.457031 0 L 61.738281 0 L 61.738281 52.28125 L 9.457031 52.28125 Z M 9.457031 0 "/></clipPath></defs><g id="f9a0658155"><g clip-rule="nonzero" clip-path="url(#f39cb25c1f)"><path style=" stroke:none;fill-rule:nonzero;fill:#0400e9;fill-opacity:1;" d="M 55.167969 0.101562 L 16.011719 0.101562 C 12.414062 0.101562 9.457031 3.054688 9.457031 6.636719 L 9.457031 45.613281 C 9.457031 49.195312 12.414062 52.179688 16.011719 52.179688 L 35.496094 52.179688 L 35.496094 34.207031 L 29.0625 34.207031 L 29.0625 26.242188 L 35.496094 26.242188 L 35.496094 19.628906 C 35.496094 14.246094 39.972656 10.007812 45.378906 10.007812 L 52.039062 10.007812 L 52.039062 18.074219 L 48.640625 18.074219 C 46.839844 18.074219 45.402344 17.835938 45.402344 19.628906 L 45.402344 26.242188 L 53.535156 26.242188 L 50.273438 34.207031 L 45.402344 34.207031 L 45.402344 52.179688 L 55.167969 52.179688 C 58.765625 52.179688 61.738281 49.195312 61.738281 45.613281 L 61.738281 6.636719 C 61.738281 3.054688 58.765625 0.101562 55.167969 0.101562 Z M 55.167969 0.101562 "/></g></g></svg>