<svg width="1330" height="560" viewBox="0 0 1330 560" fill="none" xmlns="http://www.w3.org/2000/svg">
<path d="M32.0583 269.076C32.0583 232.328 32.0861 195.83 32.0001 159.332C31.9939 156.707 32.9058 155.286 35.1205 154.012C78.0716 129.292 120.983 104.504 163.903 79.7306C190.953 64.1169 218.015 48.5226 245.031 32.8505C247.035 31.6885 248.569 31.735 250.543 32.8811C273.591 46.2636 296.683 59.5708 319.765 72.8953C361.598 97.0436 403.432 121.191 445.265 145.337C450.459 148.335 455.618 151.395 460.87 154.286C462.889 155.398 463.596 156.843 463.594 159.112C463.551 240.024 463.551 320.936 463.595 401.849C463.596 404.129 462.833 405.5 460.841 406.646C428.859 425.047 396.913 443.512 364.959 461.961C335.531 478.953 306.102 495.943 276.673 512.934C267.874 518.015 259.055 523.062 250.294 528.207C248.489 529.266 247.02 529.245 245.206 528.195C203.614 504.124 161.998 480.094 120.38 456.067C91.9636 439.662 63.5497 423.252 35.0937 406.915C32.8711 405.639 31.9952 404.188 32 401.569C32.0817 357.488 32.0583 313.407 32.0583 269.076ZM393.383 141.035C388.17 143.554 386.24 150.354 389.79 155.312C391.965 158.348 395.046 159.481 398.684 159.476C412.1 159.458 425.517 159.469 438.933 159.469C439.816 159.469 440.699 159.469 441.654 159.469C441.654 160.679 441.654 161.558 441.654 162.438C441.294 162.537 441.062 162.657 440.83 162.658C426.164 162.667 411.497 162.779 396.833 162.618C389.73 162.54 384.07 155.91 384.706 148.814C385.158 143.777 387.657 140.02 392.318 137.91C393.688 137.29 394.577 136.613 395.019 135.039C395.838 132.128 397.8 129.963 400.369 128.37C400.922 128.027 401.489 127.707 402.358 127.195C350.67 97.3522 299.202 67.6368 247.761 37.9362C177.98 78.2256 108.389 118.405 38.4349 158.795C45.9802 162.952 50.3772 169.018 51.9149 177.288C59.3348 175.934 66.0958 176.947 72.1333 181.811C71.3838 182.709 70.7656 183.45 70.1014 184.245C69.4961 183.865 69.0765 183.613 68.6683 183.344C65.0803 180.976 61.1471 179.761 56.8465 180.072C55.0377 180.203 53.2479 180.659 51.462 181.027C49.6313 181.405 49.0246 181.037 48.7006 179.198C48.6429 178.871 48.6369 178.535 48.5956 178.204C48.0074 173.493 46.0246 169.437 42.7235 166.054C41.4167 164.715 40.0232 163.417 38.1781 162.701C37.6211 164.716 37.5161 224.743 38.0549 227.685C38.9014 227.685 39.7985 227.685 40.6956 227.685C51.0285 227.685 61.3615 227.686 71.6945 227.685C79.3609 227.685 87.0275 227.725 94.6935 227.67C99.3801 227.636 103.283 224.287 104.03 219.827C104.816 215.132 102.284 210.73 97.8014 209.104C96.9526 208.796 96.0295 208.67 95.1299 208.529C93.3902 208.256 93.2761 208.072 93.0168 206.377C92.7318 204.514 92.2862 202.675 91.8705 200.628C92.5562 200.233 93.3871 199.754 94.5579 199.079C95.2962 201.305 95.9393 203.244 96.6109 205.269C97.1123 205.399 97.675 205.526 98.2267 205.691C105.033 207.719 108.982 214.925 107 221.69C105.329 227.391 100.433 231.002 94.2632 231.007C76.4306 231.021 58.5979 231.011 40.7652 231.016C39.8021 231.016 38.839 231.066 37.7224 231.098C37.7224 232.399 37.7224 233.392 37.7224 234.385C37.7224 289.133 37.7224 343.881 37.7226 398.629C37.7226 399.212 37.7593 399.798 37.7172 400.378C37.6491 401.317 37.9869 401.968 38.8561 402.384C39.4546 402.67 40.0002 403.065 40.5773 403.398C72.0287 421.551 103.483 439.697 134.932 457.853C169.05 477.551 203.162 497.258 237.278 516.958C240.736 518.954 244.205 520.931 247.692 522.93C248.447 522.536 249.119 522.216 249.761 521.845C274.937 507.315 300.11 492.782 325.283 478.248C363.512 456.176 401.74 434.104 439.968 412.031C445.378 408.907 450.758 405.73 456.209 402.68C457.487 401.965 458.056 401.145 457.884 399.719C457.805 399.062 457.871 398.387 457.871 397.721C457.871 338.973 457.871 280.225 457.871 221.477C457.871 203.311 457.873 185.145 457.866 166.979C457.866 166.013 457.794 165.048 457.745 163.816C454.702 163.816 451.913 163.816 449.053 163.816C449.053 162.639 449.053 161.752 449.053 160.51C452.001 160.51 454.848 160.51 457.65 160.51C457.961 158.883 456.856 158.683 456.138 158.265C450.164 154.787 444.171 151.341 438.185 147.884C428.448 142.261 418.724 136.614 408.957 131.045C408.004 130.502 406.763 130.135 405.687 130.199C402.116 130.413 398.664 133.261 398.136 136.789C397.772 139.223 396.697 140.333 394.411 140.586C394.173 140.613 393.949 140.767 393.383 141.035Z" fill="#9F65FC"/>
<path d="M855.004 318.156C851.39 311.623 849.574 304.702 848.755 297.549C847.487 286.471 847.646 275.418 850.575 264.563C853.671 253.087 859.767 243.742 870.291 237.727C877.536 233.587 885.464 231.914 893.73 231.53C904.205 231.044 914.318 232.626 924.018 236.672C924.477 236.864 924.923 237.088 925.478 237.346C925.478 239.805 925.478 242.281 925.478 245.041C924.684 244.832 923.998 244.692 923.34 244.473C914.997 241.694 906.52 239.73 897.643 239.902C891.274 240.025 885.024 240.705 879.014 242.984C869.644 246.539 863.67 253.258 860.514 262.648C858.91 267.42 858.084 272.34 857.815 277.347C857.358 285.846 857.174 294.361 859.156 302.708C859.957 306.083 861.111 309.444 862.603 312.573C866.483 320.71 873.103 325.88 881.625 328.389C894.075 332.056 906.621 331.659 919.125 328.441C919.356 328.382 919.558 328.212 919.888 328.031C919.888 316.529 919.888 304.992 919.888 293.193C910.987 293.193 902.199 293.193 893.238 293.193C893.238 290.408 893.238 287.882 893.238 285.2C905.095 285.2 916.886 285.2 928.674 285.2C929.136 286.943 929.291 329.483 928.834 332.91C924.329 335.187 919.52 336.773 914.518 337.745C902.839 340.014 891.173 340.143 879.615 337.039C868.911 334.163 860.583 328.071 855.004 318.156Z" fill="#9F65FC"/>
<path d="M591.252 279.076C591.253 263.516 591.253 248.206 591.253 232.754C594.301 232.754 597.097 232.754 600.094 232.754C600.16 233.345 600.292 233.974 600.293 234.603C600.303 256.179 600.321 277.755 600.289 299.331C600.279 305.774 599.618 312.135 597.314 318.229C592.971 329.715 584.586 336.481 572.738 339.055C564.827 340.774 556.849 340.798 548.927 339.104C535.382 336.206 526.675 328.097 522.964 314.686C521.687 310.071 521.153 305.364 521.145 300.606C521.109 278.863 521.129 257.12 521.129 235.378C521.129 234.561 521.129 233.745 521.129 232.774C524.229 232.774 527.093 232.774 530.18 232.774C530.18 233.806 530.18 234.793 530.18 235.781C530.18 257.773 530.175 279.766 530.185 301.758C530.187 306.461 530.874 311.057 532.619 315.449C535.356 322.34 540.193 327.173 547.187 329.617C555.963 332.684 564.91 332.741 573.685 329.805C583.579 326.494 588.815 319.056 590.536 309.017C591.025 306.161 591.182 303.223 591.221 300.319C591.317 293.323 591.252 286.324 591.252 279.076Z" fill="#9F65FC"/>
<path d="M1166.42 362.561C1166.42 328.817 1166.42 295.319 1166.42 261.615C1168.93 261.615 1171.37 261.615 1174.06 261.615C1174.3 264.1 1174.56 266.629 1174.85 269.616C1175.91 268.87 1176.63 268.374 1177.34 267.861C1183.36 263.487 1189.87 260.279 1197.36 259.401C1213.14 257.552 1225.14 264.742 1230.54 279.455C1234.06 289.069 1234.28 299.01 1232.76 309.039C1231.61 316.61 1228.86 323.493 1223.78 329.316C1218.59 335.247 1212.04 338.447 1204.2 339.168C1194.06 340.101 1185.12 337.226 1177.21 330.904C1176.66 330.459 1176.05 330.082 1175.1 329.423C1175.1 342.758 1175.1 355.699 1175.1 368.793C1172.14 368.793 1169.43 368.793 1166.42 368.793C1166.42 366.766 1166.42 364.787 1166.42 362.561ZM1180.35 325.059C1187.41 329.915 1195.13 332.176 1203.73 331.104C1210.79 330.225 1216.36 326.997 1219.91 320.744C1221.05 318.737 1221.93 316.532 1222.59 314.317C1224.64 307.521 1224.8 300.543 1224.29 293.519C1223.91 288.238 1222.91 283.119 1220.46 278.369C1217.9 273.393 1213.98 269.984 1208.61 268.309C1204.64 267.074 1200.58 266.868 1196.49 267.346C1189.27 268.19 1182.97 271.249 1177.05 275.332C1175.59 276.343 1175.03 277.43 1175.04 279.215C1175.12 291.213 1175.08 303.211 1175.09 315.209C1175.09 317.118 1174.57 319.353 1175.38 320.849C1176.29 322.535 1178.44 323.556 1180.35 325.059Z" fill="#9F65FC"/>
<path d="M684.435 322.701C681.928 317.509 680.763 312.145 680.285 306.643C679.647 299.307 679.77 291.989 681.578 284.789C683.631 276.607 687.588 269.656 694.645 264.731C699.496 261.345 704.986 259.788 710.791 259.268C716.063 258.797 721.314 259.08 726.348 260.83C734.736 263.746 739.762 269.79 742.042 278.252C743.558 283.882 743.589 289.62 743.194 295.376C743.07 297.192 742.782 298.996 742.542 301.037C724.646 301.037 706.934 301.037 688.999 301.037C688.999 302.257 688.876 303.248 689.021 304.198C689.586 307.892 689.902 311.668 690.918 315.24C693.75 325.2 700.837 330.291 710.845 331.571C720.558 332.814 729.933 331.245 739.037 327.798C739.737 327.534 740.432 327.256 741.138 327.011C741.276 326.963 741.456 327.035 741.918 327.083C741.918 329.007 741.892 330.97 741.928 332.933C741.95 334.149 740.975 334.414 740.198 334.805C736.381 336.726 732.364 338.11 728.166 338.878C720.982 340.191 713.776 340.478 706.551 339.11C696.596 337.225 689.034 332.119 684.435 322.701ZM693.894 276.217C690.428 281.536 689.215 287.461 688.956 293.66C691.794 294.21 732.93 294.101 734.813 293.549C735.154 289.009 735.071 284.475 733.758 280.016C731.73 273.131 727.163 269.025 720.18 267.571C716.137 266.729 712.077 266.78 708.02 267.493C702.291 268.499 697.516 271.09 693.894 276.217Z" fill="#9F65FC"/>
<path d="M1062.81 318.87C1057.55 332.232 1047.69 338.927 1033.74 339.908C1028.79 340.256 1023.9 339.835 1019.15 338.431C1009.36 335.542 1002.89 329.025 999.02 319.731C997.179 315.304 996.224 310.654 995.839 305.91C995.118 297.034 995.508 288.243 998.814 279.832C1003.3 268.424 1011.57 261.588 1023.73 259.645C1030.32 258.592 1036.88 258.873 1043.25 260.936C1053.65 264.304 1060.24 271.628 1063.39 281.844C1067.17 294.103 1066.97 306.465 1062.81 318.87ZM1006 286.394C1005.53 290.521 1004.76 294.641 1004.64 298.778C1004.47 305.124 1005.11 311.423 1007.5 317.418C1010.42 324.757 1015.61 329.456 1023.39 331.191C1027.34 332.07 1031.3 332.212 1035.31 331.697C1044.59 330.505 1051.21 325.717 1054.18 316.799C1058.15 304.904 1058.18 292.861 1053.73 281.056C1051.16 274.229 1046.06 269.877 1038.93 268.099C1033.67 266.788 1028.37 266.755 1023.09 267.981C1016.25 269.569 1011.23 273.481 1008.3 279.904C1007.41 281.864 1006.82 283.957 1006 286.394Z" fill="#9F65FC"/>
<path d="M1098.46 339.115C1089.36 336.512 1084.52 330.462 1083.59 320.724C1083.5 319.731 1083.45 318.729 1083.45 317.731C1083.44 299.487 1083.45 281.243 1083.45 262.999C1083.45 262.589 1083.45 262.179 1083.45 261.587C1086.32 261.587 1089.1 261.587 1092.18 261.587C1092.18 262.47 1092.18 263.357 1092.18 264.243C1092.18 280.821 1092.12 297.399 1092.24 313.976C1092.25 316.853 1092.73 319.789 1093.44 322.584C1094.77 327.8 1098.39 330.748 1103.65 331.598C1109.96 332.618 1116.09 331.621 1122.07 329.553C1126.27 328.102 1130.08 325.874 1133.84 323.543C1135.21 322.693 1135.68 321.714 1135.67 320.1C1135.61 301.524 1135.63 282.946 1135.63 264.369C1135.63 263.471 1135.63 262.572 1135.63 261.556C1138.64 261.556 1141.43 261.556 1144.32 261.556C1144.32 286.915 1144.32 312.122 1144.32 337.488C1141.76 337.488 1139.32 337.488 1136.73 337.488C1136.41 334.962 1136.11 332.52 1135.75 329.666C1134.74 330.3 1133.99 330.745 1133.27 331.223C1126.28 335.838 1118.74 338.932 1110.33 339.768C1106.4 340.159 1102.52 340.06 1098.46 339.115Z" fill="#9F65FC"/>
<path d="M666.086 307.559C671.964 318.111 668.499 330.343 658.147 336.145C653.985 338.477 649.454 339.524 644.765 339.834C635.393 340.454 626.32 339.136 617.708 335.213C617.259 335.009 616.83 334.759 616.284 334.473C616.284 332.18 616.284 329.893 616.284 327.347C617.31 327.661 618.17 327.908 619.02 328.187C626.104 330.51 633.334 332.021 640.819 332.113C644.419 332.157 647.97 331.87 651.401 330.639C657.247 328.542 660.362 324.136 660.412 317.924C660.438 314.698 659.299 311.954 656.698 310.12C654.472 308.55 652.049 307.16 649.535 306.121C644.304 303.959 638.907 302.2 633.675 300.04C630.849 298.873 628.066 297.455 625.534 295.749C614.567 288.362 614.921 271.053 626.322 263.667C630.041 261.257 634.089 259.852 638.457 259.389C647.529 258.429 656.168 260.179 664.653 263.595C664.653 265.932 664.653 268.149 664.653 270.725C663.803 270.528 663.031 270.385 662.281 270.169C656.501 268.503 650.646 267.248 644.613 267.023C640.849 266.883 637.116 267.039 633.541 268.447C626.93 271.049 623.947 278.905 627.184 285.266C628.038 286.944 629.375 288.168 630.942 289.187C634.96 291.799 639.452 293.354 643.877 295.066C648.147 296.718 652.464 298.265 656.661 300.088C660.367 301.698 663.607 304.04 666.086 307.559Z" fill="#9F65FC"/>
<path d="M1261.49 269.388C1255.98 272.527 1255.21 279.311 1256.57 283.782C1257.22 285.936 1258.48 287.748 1260.44 288.813C1263.65 290.553 1266.91 292.234 1270.27 293.648C1274.56 295.454 1279.03 296.837 1283.32 298.656C1286.14 299.851 1288.91 301.278 1291.45 302.979C1296.72 306.51 1298.98 311.738 1298.88 317.967C1298.74 326.938 1294.42 333.25 1286.34 337.048C1282.43 338.886 1278.26 339.668 1274 339.89C1265.24 340.346 1256.72 339.141 1248.61 335.629C1247.78 335.269 1246.98 334.849 1246.22 334.481C1246.22 332.082 1246.22 329.85 1246.22 327.367C1248.01 327.914 1249.65 328.424 1251.3 328.913C1258.6 331.082 1266.04 332.499 1273.69 332.007C1276.4 331.833 1279.16 331.315 1281.73 330.444C1287.22 328.579 1290.28 324.099 1290.44 318.287C1290.53 315.004 1289.34 312.271 1286.8 310.161C1284.19 308.002 1281.15 306.659 1278.03 305.479C1273.2 303.657 1268.31 301.995 1263.55 300C1260.66 298.785 1257.78 297.344 1255.23 295.537C1244.54 287.969 1245.45 272.034 1254.74 264.822C1259.33 261.258 1264.54 259.558 1270.22 259.209C1278.24 258.716 1285.97 260.22 1293.43 263.124C1293.81 263.272 1294.17 263.485 1294.61 263.706C1294.61 265.969 1294.61 268.192 1294.61 270.801C1293.23 270.428 1291.98 270.099 1290.74 269.755C1284.62 268.059 1278.42 266.912 1272.03 266.99C1268.41 267.034 1264.9 267.557 1261.49 269.388Z" fill="#9F65FC"/>
<path d="M563.055 157.418C564.863 157.418 566.434 157.418 568.246 157.418C570.32 167.334 572.372 177.146 574.423 186.958C574.605 186.962 574.787 186.966 574.97 186.97C577.005 177.55 579.041 168.129 581.106 158.573C584.204 158.573 587.25 158.573 590.543 158.573C592.722 167.844 594.621 177.313 596.813 186.71C597.011 186.699 597.21 186.688 597.408 186.677C599.409 176.966 601.409 167.256 603.414 157.526C606.693 157.526 609.74 157.526 613.08 157.526C609.306 171.216 605.58 184.732 601.834 198.32C598.556 198.32 595.414 198.32 592.045 198.32C590.015 189.355 587.979 180.363 585.948 171.392C585.736 171.409 585.654 171.413 585.573 171.423C585.493 171.432 585.349 171.433 585.342 171.462C583.352 180.389 581.371 189.317 579.37 198.331C576.166 198.331 573.023 198.331 569.675 198.331C565.93 184.809 562.188 171.296 558.345 157.418C560.051 157.418 561.434 157.418 563.055 157.418Z" fill="white"/>
<path d="M959.09 336.992C958.19 337.371 957.325 337.597 956.453 337.624C954.548 337.684 952.639 337.643 950.577 337.643C950.577 312.214 950.577 286.954 950.577 261.41C951.841 261.41 953.065 261.41 954.29 261.41C955.452 261.41 956.614 261.41 958.083 261.41C958.387 264.834 958.683 268.175 959.034 272.124C963.344 267.97 967.338 264.237 972.648 262.444C977.883 260.676 983.206 260.304 988.817 261.325C988.817 263.785 988.817 266.235 988.817 268.857C987.527 268.857 986.229 268.905 984.935 268.848C980.922 268.673 976.962 268.85 973.07 270.015C967.696 271.625 963.463 274.89 959.851 279.031C959.333 279.624 959.174 280.69 959.164 281.542C959.104 286.787 959.135 292.033 959.133 297.28C959.13 310.436 959.125 323.593 959.09 336.992Z" fill="#9F65FC"/>
<path d="M781.353 270.729C777.352 272.425 774.187 274.949 771.245 277.832C770.015 279.037 769.546 280.301 769.551 282.013C769.603 299.51 769.583 317.007 769.583 334.503C769.583 335.414 769.583 336.325 769.583 337.572C766.7 337.714 763.917 337.628 760.966 337.625C760.966 312.203 760.966 286.933 760.966 261.536C763.455 261.536 765.841 261.536 768.475 261.536C768.793 264.9 769.109 268.237 769.482 272.173C774.846 266.598 780.398 262.355 787.737 261.214C791.548 260.621 795.339 260.571 799.289 261.354C799.289 263.85 799.289 266.298 799.289 269.071C793.236 268.646 787.25 268.409 781.353 270.729Z" fill="#9F65FC"/>
<path d="M525.659 185.073C528.933 175.802 532.135 166.715 535.368 157.543C538.668 157.543 541.885 157.543 545.312 157.543C550.062 171.036 554.823 184.559 559.661 198.3C556.311 198.3 553.267 198.3 549.967 198.3C549.008 195.333 548.017 192.27 547.016 189.172C542.366 189.172 537.811 189.172 533.183 189.172C532.236 192.255 531.314 195.259 530.373 198.324C527.304 198.324 524.34 198.324 521.044 198.324C522.604 193.836 524.096 189.546 525.659 185.073ZM539.235 168.558C537.875 173.152 536.516 177.745 535.11 182.494C538.515 182.494 541.714 182.494 545.159 182.494C543.522 177.107 541.93 171.867 540.339 166.628C540.174 166.638 540.01 166.648 539.846 166.658C539.689 167.17 539.533 167.682 539.235 168.558Z" fill="white"/>
<path d="M622.822 158.34C628.734 155.646 637.687 155.854 643.118 158.754C643.118 160.77 643.118 162.831 643.118 165.179C642.327 165.027 641.645 164.857 640.954 164.768C637.829 164.365 634.71 163.875 631.572 163.654C630.387 163.57 629.064 163.926 627.967 164.433C624.922 165.842 624.692 169.439 627.577 171.152C629.276 172.161 631.215 172.77 633.055 173.538C635.202 174.434 637.409 175.203 639.502 176.211C643.723 178.243 645.905 181.611 645.818 186.376C645.729 191.193 643.771 194.95 639.416 197.135C637.589 198.052 635.547 198.704 633.53 199.044C628.952 199.816 624.4 199.292 619.932 198.092C618.983 197.837 618.082 197.403 617.228 197.078C617.228 194.769 617.228 192.633 617.228 190.413C619.719 190.89 622.058 191.466 624.433 191.756C626.652 192.027 628.918 192.152 631.147 192.033C632.416 191.965 633.799 191.509 634.876 190.826C637.455 189.19 637.391 185.57 634.8 183.964C633.54 183.184 632.112 182.663 630.734 182.087C628.204 181.029 625.615 180.106 623.121 178.972C614.063 174.855 614.885 162.105 622.822 158.34Z" fill="white"/>
<path d="M644.039 368.792C644.801 368.85 645.36 368.909 646.006 368.976C646.006 379.965 646.006 390.834 646.006 401.841C644.77 401.841 643.638 401.841 642.32 401.841C642.194 401.119 642.062 400.362 641.909 399.484C641.58 399.669 641.32 399.733 641.195 399.898C638.483 403.494 631.678 403.112 628.389 399.111C627.408 397.916 626.577 396.497 626.052 395.046C624.736 391.4 624.897 387.669 626.12 384.023C628.323 377.453 635.071 375.311 640.715 379.329C640.957 379.501 641.244 379.612 641.929 379.972C641.929 377.925 641.929 376.219 641.929 374.512C641.929 372.769 641.929 371.026 641.929 369.06C642.605 368.965 643.22 368.878 644.039 368.792ZM638.77 397.639C640.325 396.811 641.313 395.513 641.772 393.84C642.539 391.048 642.502 388.241 641.588 385.499C640.709 382.863 638.374 381.207 635.771 381.201C633.103 381.195 630.934 382.784 630.052 385.56C629.228 388.152 629.194 390.82 629.93 393.428C631.074 397.479 634.378 399.135 638.77 397.639Z" fill="#9F65FC"/>
<path d="M591.479 379.298C591.517 375.761 591.517 372.446 591.517 368.965C592.931 368.965 594.141 368.965 595.531 368.965C595.531 379.884 595.531 390.815 595.531 401.862C594.34 401.862 593.206 401.862 591.919 401.862C591.784 401.14 591.652 400.434 591.504 399.644C591.29 399.703 591.031 399.699 590.885 399.825C586.33 403.762 580.146 403.006 577.007 397.825C573.764 392.472 573.929 386.814 577 381.46C579.722 376.715 586.7 375.904 590.046 379.088C590.362 379.389 590.97 379.384 591.479 379.298ZM590.472 383.995C590.208 383.674 589.974 383.322 589.676 383.037C586.249 379.762 581.121 380.989 579.675 385.488C578.736 388.412 578.717 391.39 579.833 394.293C580.823 396.87 583.271 398.507 585.805 398.396C588.455 398.279 590.822 396.343 591.467 393.563C592.196 390.418 592.148 387.296 590.472 383.995Z" fill="#9F65FC"/>
<path d="M658.506 388.065C661.489 387.589 664.263 387.138 666.921 386.706C667.517 383.45 666.711 382.104 663.966 381.492C663.163 381.313 662.321 381.272 661.494 381.244C658.672 381.148 656.379 381.984 655.412 385.054C654.089 384.917 652.879 384.791 651.455 384.643C651.876 381.896 653.029 379.869 655.33 378.719C659.161 376.804 663.197 376.737 667.23 377.966C670.014 378.814 671.414 380.885 671.503 383.767C671.594 386.677 671.515 389.593 671.628 392.502C671.748 395.551 672.008 398.595 672.217 401.803C671.25 401.803 669.967 401.803 668.52 401.803C668.214 401.112 667.856 400.306 667.457 399.405C666.876 399.741 666.36 399.996 665.889 400.318C663.041 402.265 659.873 402.642 656.566 402.153C653.412 401.687 651.167 399.459 650.71 396.498C650.255 393.552 651.716 390.624 654.505 389.277C655.685 388.706 657.028 388.474 658.506 388.065ZM662.588 397.992C666.547 396.31 667.678 394.507 667.046 390.699C666.333 390.827 665.622 390.963 664.909 391.081C662.615 391.462 660.305 391.766 658.029 392.234C656.19 392.613 655.131 393.811 655.138 395.193C655.146 396.597 656.162 397.823 658.033 398.132C659.384 398.355 660.811 398.12 662.588 397.992Z" fill="#9F65FC"/>
<path d="M570.763 401.976C569.653 401.979 568.744 401.979 567.76 401.979C567.416 401.119 567.115 400.363 566.742 399.429C566.178 399.728 565.584 399.975 565.064 400.33C562.29 402.222 559.209 402.612 555.979 402.181C552.733 401.748 550.405 399.579 549.981 396.697C549.474 393.251 550.969 390.271 554.229 389.071C556.309 388.306 558.589 388.074 560.785 387.637C562.642 387.267 564.508 386.944 566.267 386.62C566.655 383.291 565.852 382.049 563.072 381.472C562.185 381.288 561.257 381.258 560.346 381.242C557.697 381.196 555.61 382.104 554.631 385.02C553.324 384.893 552.054 384.769 550.654 384.633C551.233 380.872 553.335 378.778 556.647 377.837C559.583 377.003 562.583 376.964 565.546 377.663C568.813 378.434 570.423 380.238 570.632 383.604C570.839 386.923 570.691 390.264 570.853 393.588C570.969 395.984 571.308 398.373 571.613 400.756C571.695 401.396 571.867 401.929 570.763 401.976ZM566.471 393.103C566.471 392.317 566.471 391.531 566.471 390.693C563.3 391.205 560.43 391.624 557.579 392.145C555.487 392.527 554.451 393.566 554.405 395.099C554.357 396.691 555.549 397.868 557.637 398.297C560.886 398.964 565.812 397.066 566.471 393.103Z" fill="#9F65FC"/>
<path d="M708.025 399.722C707.389 399.8 706.826 399.963 706.366 400.278C703.601 402.169 700.529 402.603 697.295 402.206C693.971 401.799 691.598 399.597 691.139 396.579C690.649 393.357 692.158 390.329 695.298 389.127C697.364 388.336 699.645 388.092 701.839 387.653C703.698 387.281 705.571 386.98 707.326 386.667C707.919 383.463 707.098 382.101 704.354 381.489C703.551 381.31 702.708 381.275 701.882 381.243C699.058 381.134 696.807 382.03 695.777 385.045C694.478 384.916 693.263 384.795 691.893 384.659C692.206 381.893 693.423 379.894 695.699 378.735C699.52 376.788 703.566 376.744 707.599 377.951C710.386 378.784 711.8 380.871 711.908 383.74C712.019 386.65 711.982 389.565 712.018 392.477C712.056 395.541 711.787 398.635 713.209 401.788C711.635 401.788 710.36 401.788 708.876 401.788C708.664 401.233 708.404 400.555 708.025 399.722ZM704.134 397.538C707.384 395.548 708.268 393.617 707.246 390.761C704.379 391.227 701.506 391.639 698.655 392.175C696.646 392.554 695.534 393.732 695.542 395.204C695.549 396.667 696.697 397.802 698.667 398.244C700.43 398.639 702.129 398.375 704.134 397.538Z" fill="#9F65FC"/>
<path d="M549.095 368.79C550.02 368.79 550.751 368.79 551.895 368.79C547.463 379.985 543.161 390.85 538.815 401.827C537.379 401.827 536.002 401.827 534.359 401.827C530.129 391.029 525.865 380.145 521.496 368.993C523.197 368.993 524.64 368.993 526.417 368.993C529.687 377.993 533.018 387.162 536.546 396.871C536.996 395.926 537.257 395.47 537.438 394.985C540.47 386.885 543.509 378.787 546.497 370.672C546.938 369.477 547.381 368.506 549.095 368.79Z" fill="#9F65FC"/>
<path d="M620.914 382.246C623.208 386.565 622.987 390.902 621.899 395.285C621.742 395.921 621.429 396.539 621.085 397.103C618.473 401.388 614.462 402.737 609.731 402.236C605.357 401.773 602.354 399.391 600.928 395.181C599.887 392.111 599.836 388.983 600.52 385.821C601.43 381.613 603.883 378.736 608.05 377.671C612.532 376.525 616.656 377.29 619.928 380.885C620.262 381.252 620.523 381.686 620.914 382.246ZM609.422 398.082C613.481 398.902 616.677 397.334 617.838 393.802C618.687 391.218 618.734 388.553 617.919 385.939C617.004 383.008 614.363 381.161 611.312 381.202C608.234 381.243 605.724 383.089 604.964 386.192C604.576 387.778 604.491 389.483 604.551 391.124C604.665 394.26 605.969 396.734 609.422 398.082Z" fill="#9F65FC"/>
<path d="M677.314 379.307C677.366 378.678 677.418 378.274 677.484 377.753C678.612 377.753 679.67 377.753 680.922 377.753C681.104 378.312 681.316 378.963 681.609 379.862C684.117 376.817 686.984 376.588 690.431 378.359C690.02 379.58 689.618 380.777 689.25 381.87C688.899 381.908 688.808 381.945 688.735 381.922C684.497 380.582 682.662 381.637 681.911 386.001C681.659 387.466 681.637 388.981 681.621 390.474C681.583 394.209 681.609 397.945 681.609 401.828C680.125 401.828 678.848 401.828 677.313 401.828C677.313 394.317 677.313 386.924 677.314 379.307Z" fill="#9F65FC"/>
<path d="M286.25 261.784C294.317 257.83 302.653 258.045 311.113 260.176C311.355 260.237 311.587 260.34 311.83 260.396C312.95 260.654 314.012 261.061 313.854 262.458C313.705 263.782 312.585 263.716 311.564 263.841C308.431 264.224 305.24 264.417 302.192 265.172C290.871 267.977 283.57 277.679 281.788 288.164C291.658 289.217 301.486 289.123 311.325 288.177C321.159 287.232 330.688 285.063 340.012 281.17C339.784 280.304 339.601 279.526 339.376 278.761C334.827 263.281 340.364 246.487 353.211 236.836C353.742 236.437 354.264 235.943 354.87 235.759C355.348 235.614 356.161 235.689 356.445 236.006C356.815 236.421 357.007 237.204 356.912 237.767C356.808 238.38 356.296 238.927 355.947 239.493C342.849 260.718 354.609 288.259 379.01 293.275C388.012 295.126 396.57 293.62 404.504 288.884C405.147 288.501 405.726 287.91 406.416 287.734C407.047 287.573 407.925 287.636 408.447 287.978C409.132 288.428 409.077 289.282 408.591 289.99C408.167 290.607 407.741 291.226 407.276 291.813C391.747 311.431 362.464 311.709 346.552 292.395C346.03 291.761 345.492 291.141 344.972 290.528C333.95 297.481 334.279 296.844 324.961 299.385C324.961 329.515 324.961 359.717 324.961 390.104C323.766 390.104 322.824 390.104 321.645 390.104C321.645 360.016 321.645 329.976 321.645 299.847C317.528 300.012 313.645 300.167 309.522 300.332C309.522 339.895 309.522 379.431 309.522 419.141C308.336 419.141 307.389 419.141 306.169 419.141C306.169 379.55 306.169 340.022 306.169 300.309C301.008 300.218 296.112 299.944 291.342 301.433C284.463 303.58 280.884 308.799 281.306 315.975C281.365 316.971 281.397 317.971 281.397 318.968C281.402 344.133 281.361 369.298 281.42 394.463C281.445 405.163 283.407 415.495 287.99 425.24C290.963 431.561 294.813 437.255 300.154 441.84C300.907 442.486 301.503 443.119 301.139 444.165C300.748 445.287 299.761 445.196 298.841 445.201C298.425 445.204 298.008 445.202 297.591 445.202C268.593 445.202 239.596 445.202 210.598 445.202C209.848 445.202 209.085 445.276 208.351 445.165C206.82 444.935 206.368 443.623 207.366 442.418C207.576 442.164 207.852 441.964 208.102 441.744C215.029 435.626 219.497 427.912 222.552 419.311C225.453 411.144 226.678 402.691 226.673 394.037C226.658 368.955 226.668 343.874 226.667 318.792C226.667 316.798 226.827 314.785 226.618 312.811C226.07 307.635 223.279 304.039 218.475 302.053C217.328 301.58 216.116 301.227 214.903 300.959C210.647 300.016 206.34 300.202 201.761 300.323C201.761 340.037 201.761 379.565 201.761 419.204C200.605 419.204 199.722 419.204 198.594 419.204C198.594 379.611 198.594 340.078 198.594 300.354C194.415 300.174 190.468 300.003 186.245 299.821C186.245 329.926 186.245 359.955 186.245 390.136C185.101 390.136 184.223 390.136 183.05 390.136C183.05 359.888 183.05 329.621 183.05 299.239C175.611 297.94 169.192 294.91 163.235 290.363C162.558 291.189 161.946 291.942 161.328 292.69C145.447 311.893 115.45 311.213 100.462 291.31C100.161 290.911 99.7071 290.542 99.6091 290.097C99.4626 289.431 99.3287 288.578 99.6227 288.042C100.099 287.174 101.044 287.362 101.843 287.746C102.214 287.925 102.529 288.216 102.883 288.436C122.454 300.617 147.695 292 155.515 270.291C159.355 259.632 158.075 249.311 152.251 239.577C151.909 239.006 151.373 238.486 151.24 237.875C151.117 237.312 151.22 236.456 151.585 236.1C151.95 235.744 152.781 235.714 153.373 235.795C153.814 235.855 154.216 236.297 154.607 236.606C166.685 246.124 171.773 258.525 169.811 273.767C169.505 276.147 168.795 278.474 168.189 281.196C170.161 281.945 172.281 282.838 174.457 283.563C185.385 287.202 196.667 288.69 208.134 288.835C213.207 288.898 218.285 288.63 223.359 288.486C224.262 288.46 225.161 288.303 226.259 288.185C226.171 287.416 226.165 286.781 226.02 286.179C223.018 273.689 212.969 265.115 200.131 264.075C198.886 263.974 197.64 263.877 196.393 263.818C195.436 263.774 194.475 263.721 194.295 262.527C194.107 261.278 194.896 260.777 195.98 260.475C201.16 259.035 206.412 258.217 211.784 258.905C214.228 259.218 216.633 259.832 219.369 260.371C219.051 259.692 218.861 259.117 218.54 258.628C210.48 246.331 201.237 234.977 191.116 224.329C188.476 221.552 185.738 218.87 183.045 216.145C182.695 215.791 182.184 215.491 182.037 215.067C181.844 214.508 181.678 213.601 181.971 213.294C182.387 212.859 183.271 212.6 183.885 212.699C184.571 212.809 185.186 213.395 185.821 213.79C192.615 218.025 199.601 221.896 207.069 224.825C210.718 226.256 214.437 227.508 218.386 227.771C219.697 227.858 221.063 227.786 222.346 227.514C224.856 226.98 226.269 225.333 226.284 222.756C226.296 220.688 226.114 218.585 225.722 216.555C224.232 208.837 221.48 201.508 218.581 194.235C217.657 191.916 216.656 189.628 215.688 187.326C215.527 186.942 215.326 186.573 215.196 186.179C214.904 185.295 215.024 184.489 215.924 184.046C216.799 183.617 217.551 183.878 218.056 184.72C218.441 185.363 218.79 186.026 219.153 186.682C224.794 196.892 230.641 206.979 237.728 216.274C239.69 218.847 241.98 221.172 244.15 223.583C244.59 224.072 245.128 224.504 245.692 224.844C247.192 225.749 248.713 225.136 248.802 223.417C248.955 220.443 248.844 217.456 248.844 214.873C245.878 213.308 243.025 212.223 240.663 210.476C233.735 205.353 230.889 198.285 231.654 189.741C231.72 188.999 231.802 188.196 232.14 187.563C232.406 187.066 233.07 186.509 233.576 186.489C234.082 186.47 234.776 186.978 235.09 187.452C235.489 188.053 235.573 188.857 235.819 189.564C238.603 197.575 245.928 202.719 254.341 202.576C262.615 202.437 269.932 196.871 272.37 188.834C272.703 187.734 272.691 186.395 274.333 186.409C275.451 186.418 275.848 187.078 276.134 189.247C277.595 200.292 271.574 210.092 261.099 213.723C260.56 213.91 260.029 214.118 259.332 214.376C259.332 217.407 259.238 220.395 259.368 223.374C259.444 225.113 260.981 225.841 262.402 224.842C263.617 223.988 264.712 222.926 265.731 221.837C271.11 216.088 275.429 209.55 279.51 202.865C282.979 197.181 286.214 191.355 289.552 185.592C289.76 185.232 289.881 184.69 290.189 184.546C290.803 184.259 291.57 183.957 292.18 184.09C293.017 184.272 293.224 185.129 292.99 185.923C292.78 186.636 292.42 187.306 292.128 187.995C288.458 196.661 284.911 205.377 282.831 214.591C282.266 217.093 281.885 219.678 281.8 222.237C281.692 225.454 283.285 227.123 286.475 227.658C290.126 228.269 293.601 227.346 297.012 226.239C305.945 223.341 314.112 218.859 322.062 213.947C322.77 213.51 323.439 212.883 324.208 212.712C324.8 212.581 325.676 212.848 326.148 213.258C326.806 213.83 326.55 214.663 325.957 215.245C325.304 215.885 324.583 216.457 323.88 217.044C314.73 224.694 305.961 232.741 298.169 241.799C294.252 246.354 290.606 251.112 287.777 256.439C286.998 257.906 286.364 259.452 285.574 261.282C285.562 262.412 285.907 262.093 286.25 261.784ZM281.208 206.088C281.023 206.435 280.837 206.782 280.43 207.459C280.26 207.642 280.066 207.807 279.925 208.009C276.932 212.29 274.081 216.68 270.905 220.82C269.099 223.175 266.831 225.196 264.646 227.234C263.047 228.726 261.061 228.986 259.063 228.055C256.972 227.08 256.007 225.361 256.041 223.035C256.083 220.203 256.046 217.371 256.052 214.539C256.058 211.823 256.063 211.826 258.794 211.05C265.451 209.158 269.902 204.916 272.207 198.411C272.401 197.864 272.433 197.26 272.54 196.682C271.365 198.184 270.038 199.322 268.634 200.358C267.231 201.393 265.825 202.466 264.286 203.263C262.748 204.059 261.081 204.681 259.402 205.106C257.804 205.511 256.119 205.702 254.469 205.73C252.733 205.759 250.956 205.648 249.262 205.292C247.57 204.936 245.891 204.342 244.329 203.595C242.767 202.847 241.289 201.872 239.9 200.829C238.571 199.832 237.405 198.619 236.167 197.501C235.81 198.15 235.746 198.571 235.902 198.881C236.757 200.582 237.496 202.378 238.592 203.914C241.364 207.797 245.224 210.117 249.848 211.246C252.05 211.783 252.049 211.851 252.061 214.119C252.076 217.2 252.075 220.282 252.06 223.364C252.05 225.475 251.071 227.052 249.205 227.986C247.338 228.921 245.446 228.789 243.797 227.491C242.429 226.414 241.127 225.23 239.925 223.969C235.83 219.673 232.485 214.798 229.196 209.881C228.771 209.245 228.569 208.33 227.534 208.225C226.9 209.113 227.522 209.872 227.702 210.601C228.66 214.484 229.64 218.354 229.559 222.401C229.466 227.065 227.167 229.835 222.589 230.762C218.881 231.514 215.29 230.791 211.746 229.822C206.017 228.255 200.666 225.75 195.289 222.817C194.962 222.714 194.634 222.611 194.307 222.508C194.24 222.601 194.173 222.694 194.107 222.787C194.439 223.15 194.771 223.514 195.41 224.116C195.75 224.482 196.093 224.845 196.43 225.214C207.349 237.177 217.338 249.844 225.608 263.809C225.989 264.453 226.344 265.114 226.69 265.778C227.094 266.554 226.972 267.403 226.256 267.746C225.698 268.013 224.829 267.921 224.211 267.688C223.628 267.468 223.213 266.83 222.689 266.42C218.552 263.181 213.81 261.959 208.584 261.973C208.639 262.309 208.626 262.442 208.67 262.465C208.96 262.621 209.255 262.773 209.562 262.889C220.47 267.029 226.596 275.248 229.382 286.253C230.544 290.842 230.251 291.114 225.472 291.54C214.731 292.5 204.007 292.371 193.305 291.05C184.423 289.953 175.778 287.884 167.498 284.434C163.889 282.93 163.978 282.911 165.2 279.137C168.792 268.045 167.278 257.617 160.945 247.866C160.636 247.39 160.161 247.023 159.763 246.605C159.594 246.662 159.425 246.72 159.256 246.777C163.065 261.812 160.213 275.239 149.069 286.131C137.91 297.037 124.4 299.467 109.47 295.495C109.921 296.091 110.365 296.564 110.881 296.939C122.285 305.228 138.564 305.644 150.437 297.973C154.62 295.271 158.132 291.893 160.951 287.781C162.112 286.087 162.777 285.995 164.406 287.132C164.747 287.37 165.071 287.633 165.398 287.89C172.085 293.132 179.686 296.094 188.148 296.554C194.713 296.911 201.297 296.939 207.874 297.04C211.39 297.094 214.845 297.389 218.219 298.474C225.485 300.811 229.941 306.744 230.037 314.35C230.059 316.098 229.964 317.847 229.963 319.596C229.958 343.677 230.01 367.758 229.917 391.839C229.898 396.74 229.656 401.684 228.967 406.529C227.174 419.141 222.65 430.64 214.152 440.359C213.806 440.755 213.529 441.213 213.083 441.831C240.545 441.831 267.704 441.831 295.145 441.831C294.592 441.145 294.217 440.718 293.885 440.261C291.834 437.434 289.572 434.731 287.787 431.745C281.122 420.59 278.286 408.304 278.193 395.458C277.996 368.462 278.078 341.465 278.086 314.468C278.089 306.829 282.52 300.892 289.784 298.508C293.067 297.43 296.44 297.065 299.876 297.049C305.291 297.023 310.708 297.048 316.119 296.887C325.842 296.598 334.853 294.119 342.636 287.972C345.619 285.616 345.668 285.675 347.824 288.703C359.144 304.598 381.851 308.259 397.531 296.705C397.931 296.41 398.24 295.991 398.961 295.251C383.55 299.481 370.081 296.946 358.928 286.022C347.809 275.131 345.211 261.668 348.891 246.504C347.409 247.044 347.045 248.018 346.562 248.809C340.447 258.834 339.428 269.389 343.328 280.446C344.099 282.631 343.963 282.963 341.889 283.884C336.005 286.496 329.864 288.301 323.572 289.602C312.744 291.841 301.782 292.429 290.761 292.041C287.27 291.918 283.782 291.589 280.305 291.227C278.361 291.024 277.9 290.416 278.251 288.616C280.508 277.042 286.242 268.086 297.477 263.323C298.197 263.018 298.894 262.661 299.601 262.328C294.185 261.967 289.334 263.261 285.144 266.646C284.691 267.012 284.31 267.482 283.823 267.788C282.629 268.538 281.422 268.018 281.209 266.636C281.11 265.994 281.123 265.274 281.312 264.658C282.089 262.12 282.749 259.517 283.827 257.105C286.326 251.515 289.824 246.507 293.853 241.943C298.698 236.454 303.829 231.219 309.143 225.692C309.215 225.438 309.287 225.185 309.36 224.932C309.018 225.07 308.677 225.208 307.98 225.404C303.531 227.027 299.134 228.819 294.614 230.214C291.429 231.196 288.076 231.47 284.742 230.61C281.03 229.654 278.682 226.925 278.594 223.09C278.547 221.023 278.685 218.913 279.061 216.882C279.659 213.649 280.058 210.346 281.609 207.132C281.618 206.806 281.627 206.481 281.836 206.033C281.819 205.835 281.802 205.638 281.786 205.44C281.675 205.626 281.565 205.811 281.208 206.088ZM235.762 196.67C235.663 196.9 235.563 197.13 235.464 197.36C235.639 197.431 235.813 197.503 235.988 197.575C236.014 197.389 236.04 197.203 235.762 196.67ZM226.953 207.84C227.129 207.919 227.304 207.998 227.48 208.077C227.485 207.837 227.491 207.598 227.497 207.358C227.263 207.359 227.03 207.36 226.953 207.84ZM159.573 246.028C159.414 245.984 159.255 245.939 159.096 245.894C159.117 246.094 159.138 246.293 159.159 246.493C159.345 246.47 159.531 246.447 159.573 246.028ZM348.797 246.076C348.78 246.226 348.763 246.376 348.747 246.526C348.847 246.46 348.947 246.393 348.797 246.076Z" fill="white"/>
<path d="M91.9791 161.801C98.2728 162.423 100.572 164.008 105.292 170.832C112.922 167.737 119.921 170.349 123.673 177.09C124.985 177.219 126.322 177.241 127.612 177.496C133.31 178.622 137.088 183.789 136.515 189.577C135.961 195.186 131.253 199.464 125.53 199.494C116.533 199.541 107.536 199.549 98.5395 199.574C97.8892 199.575 97.2389 199.574 96.4358 199.574C96.4358 198.504 96.4358 197.623 96.4358 196.383C97.2898 196.383 98.1685 196.387 99.0471 196.382C107.875 196.334 116.703 196.321 125.531 196.221C130.76 196.162 134.275 191.542 133.058 186.473C132.242 183.074 129.15 180.57 125.638 180.525C124.813 180.514 123.979 180.647 123.159 180.774C122.094 180.939 121.377 180.588 121.032 179.538C120.928 179.223 120.791 178.917 120.645 178.619C118.62 174.489 114.649 172.335 110.237 172.969C105.621 173.632 102.382 176.784 101.587 181.392C101.517 181.798 101.472 182.208 101.391 182.789C100.41 182.789 99.4651 182.789 98.5167 182.789C98.1588 179.42 99.0529 177.115 102.24 173.162C100.76 167.637 95.3301 164.207 89.6076 165.182C83.9936 166.138 79.8265 171.415 80.2735 177.008C80.3 177.34 80.3639 177.668 80.4028 177.999C80.66 180.184 80.657 180.179 78.6632 181.243C78.0768 181.556 77.5082 181.902 76.6873 182.373C76.0671 181.711 75.417 181.018 74.6121 180.159C75.474 179.454 76.2191 178.845 76.9639 178.236C77.2874 167.886 82.5151 162.08 91.9791 161.801Z" fill="white"/>
<path d="M341.549 424.993C344.627 424.993 347.456 424.993 350.494 424.993C350.494 418.985 350.494 413.106 350.494 407.086C351.664 407.086 352.622 407.086 353.848 407.086C353.848 413.026 353.848 418.898 353.848 424.937C359.911 424.937 365.715 424.937 371.713 424.937C371.713 426.039 371.713 426.974 371.713 428.101C365.892 428.101 360.084 428.101 353.92 428.101C353.755 431.217 353.859 434.178 353.839 437.132C353.821 440.042 353.835 442.952 353.835 446.045C352.775 446.045 351.829 446.045 350.621 446.045C350.621 440.165 350.621 434.294 350.621 428.202C344.497 428.202 338.617 428.202 332.632 428.202C332.632 427.088 332.632 426.197 332.632 424.993C335.538 424.993 338.419 424.993 341.549 424.993Z" fill="white"/>
<path d="M259.534 190.543C258.113 192.996 256.901 195.369 255.358 197.503C253.874 199.552 252.763 199.458 251.298 197.389C245.703 189.481 244.593 181.089 248.957 172.282C250.052 170.072 251.537 168.027 253.037 166.055C254.287 164.411 255.482 164.558 256.476 166.418C260.527 173.993 262.447 181.872 259.534 190.543ZM251.404 174.734C248.472 181.715 249.479 190.709 253.566 194.043C259.381 188.743 258.283 175.01 254.036 170.033C253.171 171.535 252.352 172.957 251.404 174.734Z" fill="white"/>
<path d="M297.82 217.845C295.846 218.754 294.066 219.686 292.19 220.338C289.864 221.146 289.126 220.663 288.877 218.262C288.244 212.171 290 206.745 293.713 201.938C296.933 197.77 301.064 194.724 305.783 192.458C308.209 191.293 309.232 191.867 309.332 194.542C309.696 204.293 306.55 212.356 297.82 217.845ZM305.062 196.624C303.225 197.906 301.253 199.034 299.579 200.501C295.579 204.004 292.889 208.329 292.161 213.698C292.036 214.619 292.144 215.571 292.144 216.411C292.572 216.505 292.664 216.558 292.73 216.535C300.89 213.719 305.906 205.989 306.005 197.56C306.009 197.237 305.65 196.91 305.062 196.624Z" fill="white"/>
<path d="M237.993 166.127C231.797 158.865 231.151 150.69 233.357 142.023C233.866 140.021 234.643 138.065 235.502 136.182C236.39 134.234 237.441 134.075 238.931 135.583C248.4 145.169 248.749 157.033 243.006 166.391C242.788 166.745 242.583 167.116 242.313 167.427C241.393 168.491 240.646 168.562 239.531 167.659C239.016 167.243 238.576 166.733 237.993 166.127ZM236.497 157.245C237.445 159.679 238.475 162.058 240.608 163.855C245.681 155.618 243.727 144.876 237.729 139.606C235.294 144.47 234.807 150.678 236.497 157.245Z" fill="#9F65FC"/>
<path d="M180.722 277.753C184.635 272.836 189.338 269.438 195.438 268.299C200.032 267.441 204.56 267.836 208.928 269.533C211.205 270.417 211.425 271.229 210.071 273.289C206.341 278.966 200.994 282.227 194.404 283.435C190.03 284.237 185.625 284.095 181.264 283.146C180.778 283.04 180.273 282.961 179.822 282.764C178.682 282.265 178.348 281.453 178.931 280.365C179.399 279.492 180.044 278.714 180.722 277.753ZM198.486 278.872C201.785 277.445 204.596 275.44 206.66 272.319C198.984 269.316 188.437 271.866 183.382 280.195C188.474 281.095 193.351 280.826 198.486 278.872Z" fill="#9F65FC"/>
<path d="M200.85 254.157C191.48 253.465 185.189 248.613 181.074 240.654C180.352 239.259 179.758 237.774 179.306 236.269C178.876 234.835 179.535 233.894 181.013 233.922C186.922 234.032 192.545 235.314 197.68 238.371C202.203 241.064 205.398 244.893 207.378 249.751C207.629 250.366 207.852 251.002 207.992 251.65C208.307 253.11 207.795 253.94 206.287 254.071C204.558 254.221 202.81 254.144 200.85 254.157ZM194.483 240.347C189.244 237.932 186.025 237.216 183.696 237.947C186.276 246.022 195.559 252.074 204.061 250.763C202.38 246.01 199.073 242.845 194.483 240.347Z" fill="white"/>
<path d="M200.636 209.474C197.885 204.58 197.172 199.445 197.47 194.118C197.582 192.122 198.427 191.552 200.221 192.111C210.171 195.208 218.366 206.784 217.988 217.211C217.858 220.781 217.122 221.282 213.673 220.055C208.148 218.091 203.736 214.729 200.636 209.474ZM213.192 208.738C210.756 202.974 206.369 199.161 200.927 196.129C199.862 205.971 207.4 215.3 214.393 216.348C214.76 213.569 214.572 212.252 213.192 208.738Z" fill="white"/>
<path d="M308.335 267.925C316.923 268.591 322.922 273.059 327.476 279.786C328.639 281.505 328.212 282.539 326.131 283.002C319.669 284.439 313.254 284.393 307.032 281.88C302.676 280.121 299.222 277.192 296.648 273.257C295.321 271.23 295.576 270.431 297.854 269.515C301.146 268.192 304.591 267.784 308.335 267.925ZM309.034 271.178C306.068 271.019 303.121 271.002 300.292 272.244C303.781 278.816 317.043 283.124 323.184 279.806C320.515 275.432 315.713 272.431 309.034 271.178Z" fill="#9F65FC"/>
<path d="M384.797 250.324C390.432 245.85 396.816 244.031 403.712 243.777C406.175 243.686 406.807 244.51 405.996 246.801C401.962 258.201 392.853 264.963 380.385 264.077C380.054 264.053 379.722 264.008 379.397 263.94C377.572 263.559 377.004 262.887 377.644 261.143C378.411 259.05 379.341 256.962 380.558 255.105C381.682 253.39 383.277 251.984 384.797 250.324ZM395.672 256.476C398.569 254.03 400.708 251.066 402.192 247.469C394.179 246.477 382.985 253.799 381.658 260.855C386.734 260.946 391.348 259.834 395.672 256.476Z" fill="white"/>
<path d="M110.328 282.78C108.167 281.208 106.077 279.832 104.191 278.218C102.656 276.904 102.803 275.768 104.553 274.94C112.779 271.048 121.208 269.634 129.795 273.666C131.939 274.673 133.863 276.243 135.702 277.776C137.542 279.31 137.406 280.339 135.334 281.658C128.286 286.144 120.841 287.211 112.966 284.048C112.119 283.708 111.313 283.267 110.328 282.78ZM116.079 274.72C113.347 275.213 110.593 275.634 108.042 277.029C115.359 284.179 126.579 283.886 132.59 279.216C131.22 278.32 129.988 277.361 128.625 276.654C124.824 274.682 120.736 274.255 116.079 274.72Z" fill="#9F65FC"/>
<path d="M118.619 248.001C123.189 250.753 126.474 254.397 128.443 259.185C128.633 259.646 128.831 260.106 128.979 260.581C129.719 262.969 129.223 263.835 126.679 264.03C117.541 264.733 109.931 261.782 104.555 254.156C102.993 251.94 101.865 249.378 100.798 246.864C99.8561 244.644 100.568 243.724 102.959 243.775C108.453 243.892 113.64 245.226 118.619 248.001ZM115.358 259.069C118.476 260.401 121.682 261.081 125.167 260.72C123.206 253.359 111.158 245.764 104.617 247.61C106.775 252.622 110.133 256.461 115.358 259.069Z" fill="white"/>
<path d="M141.166 239.46C148.07 245.228 150.543 252.549 149.643 261.157C149.38 263.673 148.585 264.122 146.142 263.223C140.136 261.012 135.837 256.903 133.127 251.173C131.039 246.759 130.049 242.048 129.995 237.159C129.966 234.59 130.834 233.912 133.211 235.024C135.902 236.283 138.432 237.888 141.166 239.46ZM141.336 244.051C139.139 241.793 136.711 239.9 133.583 238.814C133.296 247.839 139.569 257.968 146.52 259.501C146.889 253.737 145.445 248.643 141.336 244.051Z" fill="#9F65FC"/>
<path d="M376.689 273.71C385.494 269.73 393.887 271.035 402.124 274.894C403.879 275.717 404.034 276.859 402.625 278.196C393.08 287.251 381.742 287.933 371.985 282.07C371.842 281.985 371.703 281.893 371.566 281.8C369.328 280.279 369.186 279.33 371.268 277.561C372.904 276.17 374.763 275.04 376.689 273.71ZM382.541 282.5C389.236 282.948 396.285 280.47 398.441 276.909C390.159 273.064 379.549 273.895 374.262 279.482C376.626 281.204 379.328 281.915 382.541 282.5Z" fill="#9F65FC"/>
<path d="M211.948 165.681C210.161 162.433 209.053 159.132 208.329 155.697C208.158 154.888 208.017 154.053 208.02 153.23C208.024 151.929 208.565 151.484 209.901 151.509C210.149 151.514 210.401 151.548 210.643 151.601C223.195 154.339 230.38 163.078 231.014 174.8C231.032 175.132 231.031 175.466 231.014 175.798C230.914 177.742 230.241 178.321 228.297 177.94C223.42 176.984 219.182 174.776 215.857 171.061C214.426 169.462 213.3 167.59 211.948 165.681ZM219.359 170.024C221.723 172.005 224.219 173.727 227.389 174.236C228.176 166.158 219.387 155.773 211.674 155.675C212.866 161.094 215.144 165.871 219.359 170.024Z" fill="#9F65FC"/>
<path d="M299.354 249.893C302.271 242.452 307.745 238.002 314.979 235.729C318.111 234.745 321.455 234.354 324.733 233.944C327.368 233.614 328.073 234.694 327.152 237.184C324.296 244.914 319.421 250.666 311.33 253.229C308.039 254.271 304.664 254.463 301.241 254.149C298.707 253.916 298.259 253.261 299.03 250.776C299.104 250.538 299.197 250.307 299.354 249.893ZM312.128 249.487C317.633 247.162 321.158 242.996 323.465 237.513C316.202 237.368 304.729 242.528 302.79 250.997C305.929 251.303 308.867 250.604 312.128 249.487Z" fill="white"/>
<path d="M290.501 171.53C287.148 174.822 283.339 176.906 278.902 177.828C276.36 178.356 275.792 177.89 275.784 175.237C275.755 165.798 281.321 157.272 290.01 153.62C291.991 152.787 294.07 152.125 296.162 151.632C298.237 151.142 298.965 151.896 298.648 154.024C297.671 160.592 295.192 166.485 290.501 171.53ZM292.423 156.107C285.092 158.602 278.792 166.366 279.396 174.19C287.354 173.077 294.563 162.656 294.71 155.364C294.047 155.573 293.42 155.771 292.423 156.107Z" fill="#9F65FC"/>
<path d="M175.262 181.489C181.55 183.807 186.631 187.35 189.829 193.209C192.388 197.898 193.171 202.913 192.488 208.173C192.196 210.424 191.431 210.885 189.283 210.135C183.42 208.087 179.145 204.189 176.338 198.706C173.908 193.959 172.826 188.861 172.88 183.535C172.899 181.711 173.072 181.611 175.262 181.489ZM187.069 194.867C184.686 190.451 181.015 187.539 176.414 185.469C175.957 193.121 181.488 204.65 189.43 206.306C189.731 202.382 188.989 198.696 187.069 194.867Z" fill="#9F65FC"/>
<path d="M270.841 163.373C269.676 164.798 268.694 166.154 267.529 167.329C266.114 168.757 265.256 168.668 264.137 166.97C260.604 161.609 259.195 155.74 260.312 149.376C261.233 144.127 263.868 139.743 267.5 135.927C269.386 133.946 270.4 134.108 271.483 136.654C274.603 143.993 275.853 151.487 272.941 159.212C272.417 160.603 271.616 161.89 270.841 163.373ZM269.901 141.582C269.641 140.911 269.38 140.24 269.097 139.511C262.6 144.879 261.184 157.639 266.315 163.76C267.882 162.316 268.903 160.52 269.71 158.594C272.014 153.096 271.618 147.54 269.901 141.582Z" fill="#9F65FC"/>
<path d="M333.949 183.795C333.636 190.603 332.173 196.83 328.181 202.267C325.492 205.93 321.965 208.458 317.745 210.052C315.334 210.963 314.533 210.528 314.227 207.972C313.042 198.077 317.158 189.054 326.277 183.868C327.788 183.01 329.39 182.281 331.014 181.662C332.969 180.916 333.467 181.304 333.949 183.795ZM328.889 194.095C329.733 191.362 330.574 188.63 330.453 185.626C321.675 188.707 315.003 199.807 317.808 206.458C318.188 206.298 318.581 206.164 318.947 205.976C323.792 203.481 326.844 199.459 328.889 194.095Z" fill="#9F65FC"/>
<path d="M342.185 213.684C346.766 212.319 351.205 212.2 355.689 213.053C358.224 213.535 358.713 214.473 357.335 216.609C354.27 221.359 350.406 225.3 345.403 228.04C340.698 230.616 335.672 231.271 330.43 230.475C327.261 229.993 326.779 229.029 328.272 226.093C331.085 220.565 335.206 216.399 341.068 214.111C341.378 213.99 341.685 213.864 342.185 213.684ZM337.519 219.773C334.996 221.792 332.854 224.104 331.497 227.162C338.96 229.181 349.18 223.678 353.491 215.927C347.711 215.191 342.508 216.215 337.519 219.773Z" fill="#9F65FC"/>
<path d="M173.446 219.176C175.885 221.523 177.611 224.158 178.91 227.069C179.783 229.025 179.387 229.838 177.263 230.27C172.323 231.275 167.479 230.933 162.866 228.79C157.027 226.076 152.636 221.729 149.259 216.323C148.128 214.512 148.564 213.512 150.63 213.128C159.109 211.552 166.86 212.853 173.446 219.176ZM155.914 215.677C155.069 215.8 154.225 215.923 153.272 216.061C157.812 224.039 169.188 229.637 175.212 226.92C174.742 226.129 174.332 225.32 173.815 224.586C169.567 218.545 163.654 215.742 155.914 215.677Z" fill="#9F65FC"/>
<path d="M376.138 243.167C374.655 250.686 371.473 256.918 364.992 261.026C363.527 261.954 361.914 262.69 360.294 263.318C358.209 264.126 357.352 263.583 357.1 261.318C356.091 252.279 358.825 244.671 366.148 239.076C368.3 237.432 370.834 236.227 373.317 235.093C375.917 233.904 376.68 234.461 376.623 237.235C376.584 239.143 376.334 241.047 376.138 243.167ZM367.677 241.932C362.079 246.456 359.838 252.384 360.125 259.502C367.223 258.125 373.695 247.379 373.119 238.71C372.705 238.874 372.299 238.972 371.961 239.18C370.615 240.005 369.291 240.865 367.677 241.932Z" fill="#9F65FC"/>
<path d="M407.969 211.683C407.741 210.669 407.687 209.785 407.617 208.627C412.214 208.627 416.586 208.627 421.057 208.627C421.688 206.21 421.32 203.978 421.383 201.781C421.447 199.553 421.398 197.322 421.398 194.964C422.578 194.964 423.525 194.964 424.705 194.964C424.705 199.487 424.705 203.869 424.705 208.536C429.383 208.536 433.834 208.536 438.42 208.536C438.42 209.707 438.42 210.586 438.42 211.787C436.171 212.051 433.872 211.873 431.589 211.906C429.366 211.938 427.143 211.913 424.729 211.913C424.729 216.616 424.729 221.003 424.729 225.53C423.575 225.53 422.616 225.53 421.453 225.53C421.453 221.079 421.453 216.695 421.453 212.009C416.889 211.942 412.517 211.878 407.969 211.683Z" fill="#9F65FC"/>
<path d="M114.054 404.159C114.054 406.88 114.054 409.363 114.054 412.158C117.816 412.158 121.42 412.158 125.171 412.158C125.171 413.418 125.171 414.362 125.171 415.552C121.51 415.552 117.973 415.552 114.127 415.552C114.127 419.387 114.127 422.994 114.127 426.751C112.873 426.751 111.93 426.751 110.743 426.751C110.743 423.096 110.743 419.551 110.743 415.71C106.913 415.452 103.281 415.709 99.5139 415.546C99.5139 414.458 99.5139 413.507 99.5139 412.254C103.187 412.254 106.793 412.254 110.607 412.254C110.607 408.415 110.607 404.87 110.607 401.116C111.834 401.116 112.847 401.116 114.054 401.116C114.054 402.117 114.054 403.019 114.054 404.159Z" fill="#9F65FC"/>
<path d="M53.9703 308.134C53.9703 309.097 53.9703 309.821 53.9703 310.792C56.0702 310.792 57.9425 310.792 59.9053 310.792C59.9053 311.928 59.9053 312.814 59.9053 313.967C57.9897 313.967 56.1261 313.967 54.0651 313.967C54.0651 316.099 54.0651 317.977 54.0651 320.021C52.9116 320.021 51.959 320.021 50.7593 320.021C50.7593 318.132 50.7593 316.263 50.7593 314.146C48.657 314.146 46.7891 314.146 44.7289 314.146C44.7289 312.961 44.7289 312.019 44.7289 310.842C46.5686 310.842 48.4431 310.842 50.6069 310.842C50.6069 308.77 50.6069 306.914 50.6069 304.889C51.828 304.889 52.7627 304.889 53.9703 304.889C53.9703 305.948 53.9703 306.921 53.9703 308.134Z" fill="white"/>
<path d="M85.5214 193.311C88.5336 193.067 90.4381 194.888 92.6637 196.797C91.8493 197.56 91.1569 198.209 90.452 198.87C88.6229 197.823 86.8597 196.815 84.8887 195.687C85.0445 195.042 85.2337 194.258 85.5214 193.311Z" fill="#9F65FC"/>
<path d="M195.351 222.921C195.33 223.156 195.247 223.288 195.133 223.649C194.771 223.514 194.439 223.15 194.107 222.787C194.173 222.694 194.24 222.601 194.307 222.508C194.634 222.611 194.962 222.714 195.351 222.921Z" fill="#9F65FC"/>
<path d="M281.527 207.217C281.31 207.283 281.175 207.265 280.846 207.188C280.837 206.782 281.023 206.435 281.377 206.081C281.546 206.075 281.636 206.155 281.636 206.155C281.627 206.481 281.618 206.806 281.527 207.217Z" fill="#9F65FC"/>
<path d="M281.5 206.035C281.565 205.811 281.675 205.626 281.786 205.44C281.802 205.638 281.819 205.835 281.736 206.094C281.636 206.155 281.546 206.075 281.5 206.035Z" fill="#9F65FC"/>
<path d="M251.469 174.556C252.352 172.957 253.171 171.535 254.036 170.033C258.283 175.01 259.381 188.743 253.566 194.043C249.479 190.709 248.472 181.715 251.469 174.556Z" fill="#9F65FC"/>
<path d="M305.261 196.604C305.65 196.91 306.009 197.237 306.005 197.56C305.906 205.989 300.89 213.719 292.73 216.535C292.664 216.558 292.572 216.505 292.144 216.411C292.144 215.571 292.036 214.619 292.161 213.698C292.889 208.329 295.579 204.004 299.579 200.501C301.253 199.034 303.225 197.906 305.261 196.604Z" fill="#9F65FC"/>
<path d="M194.648 240.432C199.073 242.845 202.38 246.01 204.061 250.763C195.559 252.074 186.276 246.022 183.696 237.947C186.025 237.216 189.244 237.932 194.648 240.432Z" fill="#9F65FC"/>
<path d="M213.273 208.914C214.572 212.252 214.76 213.569 214.393 216.348C207.4 215.3 199.862 205.971 200.927 196.129C206.369 199.161 210.756 202.974 213.273 208.914Z" fill="#9F65FC"/>
<path d="M395.519 256.571C391.348 259.834 386.734 260.946 381.658 260.855C382.985 253.799 394.179 246.477 402.192 247.469C400.708 251.066 398.569 254.03 395.519 256.571Z" fill="#9F65FC"/>
<path d="M115.178 259.007C110.133 256.461 106.775 252.622 104.617 247.61C111.158 245.764 123.206 253.359 125.167 260.72C121.682 261.081 118.476 260.401 115.178 259.007Z" fill="#9F65FC"/>
<path d="M311.948 249.562C308.867 250.604 305.929 251.303 302.79 250.997C304.729 242.528 316.202 237.368 323.465 237.513C321.158 242.996 317.633 247.162 311.948 249.562Z" fill="#9F65FC"/>
</svg>
