<svg xmlns="http://www.w3.org/2000/svg" xmlns:xlink="http://www.w3.org/1999/xlink" width="91" zoomAndPan="magnify" viewBox="0 0 68.25 54" height="72" preserveAspectRatio="xMidYMid meet" version="1.2"><defs><clipPath id="9f38b8f8f7"><path d="M 9.101562 1.875 L 58.441406 1.875 L 58.441406 51.210938 L 9.101562 51.210938 Z M 9.101562 1.875 "/></clipPath></defs><g id="4b2ff59e13"><g clip-rule="nonzero" clip-path="url(#9f38b8f8f7)"><path style=" stroke:none;fill-rule:nonzero;fill:#0400e9;fill-opacity:1;" d="M 33.691406 51.132812 C 30.316406 51.132812 27.128906 50.476562 24.136719 49.171875 C 21.140625 47.867188 18.53125 46.097656 16.300781 43.871094 C 14.070312 41.640625 12.320312 39.027344 11.03125 36.035156 C 9.742188 33.039062 9.101562 29.839844 9.101562 26.464844 C 9.101562 23.089844 9.742188 19.902344 11.03125 16.910156 C 12.320312 13.914062 14.070312 11.304688 16.300781 9.074219 C 18.53125 6.84375 21.140625 5.09375 24.136719 3.804688 C 27.128906 2.515625 30.316406 1.878906 33.691406 1.878906 C 37.113281 1.878906 40.316406 2.515625 43.308594 3.804688 C 46.300781 5.09375 48.914062 6.84375 51.144531 9.074219 C 53.375 11.304688 55.140625 13.898438 56.445312 16.878906 C 57.753906 19.855469 58.40625 23.054688 58.40625 26.464844 C 58.40625 29.886719 57.753906 33.105469 56.445312 36.097656 C 55.140625 39.09375 53.375 41.703125 51.144531 43.933594 C 48.914062 46.164062 46.285156 47.914062 43.277344 49.203125 C 40.265625 50.492188 37.066406 51.132812 33.691406 51.132812 Z M 45.378906 38.023438 C 45.109375 38.421875 45.125 38.964844 45.441406 39.617188 C 45.761719 40.269531 46.191406 40.890625 46.765625 41.480469 C 47.320312 42.070312 47.941406 42.515625 48.628906 42.835938 C 49.296875 43.152344 49.871094 43.199219 50.316406 42.976562 C 52.433594 40.957031 54.105469 38.488281 55.316406 35.605469 C 56.527344 32.722656 57.148438 29.679688 57.148438 26.480469 C 57.148438 23.230469 56.542969 20.191406 55.316406 17.355469 C 54.105469 14.519531 52.417969 12.035156 50.285156 9.917969 C 48.148438 7.800781 45.648438 6.128906 42.816406 4.917969 C 39.980469 3.707031 36.9375 3.085938 33.691406 3.085938 C 30.441406 3.085938 27.417969 3.675781 24.613281 4.902344 C 21.828125 6.113281 19.34375 7.785156 17.175781 9.902344 C 16.90625 10.398438 16.921875 10.953125 17.242188 11.558594 C 17.558594 12.164062 18.003906 12.738281 18.59375 13.277344 C 19.183594 13.820312 19.804688 14.25 20.457031 14.570312 C 21.109375 14.886719 21.683594 14.96875 22.175781 14.839844 C 23.65625 13.535156 25.3125 12.417969 27.113281 11.496094 C 28.914062 10.570312 31.09375 10.109375 33.675781 10.109375 C 35.96875 10.109375 38.117188 10.539062 40.125 11.398438 C 42.128906 12.257812 43.882812 13.421875 45.394531 14.917969 C 46.90625 16.398438 48.085938 18.152344 48.945312 20.15625 C 49.804688 22.164062 50.234375 24.296875 50.234375 26.542969 C 50.234375 28.710938 49.835938 30.8125 49.027344 32.867188 C 48.214844 34.902344 46.988281 36.625 45.378906 38.023438 Z M 33.707031 42.898438 C 36 42.898438 38.195312 42.453125 40.300781 41.578125 C 42.402344 40.699219 44.089844 39.523438 45.394531 38.023438 C 45.714844 37.578125 45.679688 37.007812 45.332031 36.335938 C 44.964844 35.667969 44.488281 35.046875 43.882812 34.472656 C 43.277344 33.917969 42.625 33.472656 41.957031 33.152344 C 41.285156 32.832031 40.777344 32.785156 40.472656 33.023438 C 39.566406 33.933594 38.53125 34.617188 37.335938 35.128906 C 36.144531 35.621094 34.886719 35.875 33.578125 35.875 C 32.273438 35.875 31.046875 35.621094 29.933594 35.128906 C 28.800781 34.632812 27.8125 33.949219 26.953125 33.105469 C 26.09375 32.246094 25.425781 31.257812 24.933594 30.125 C 24.4375 28.996094 24.183594 27.785156 24.183594 26.480469 C 24.183594 25.175781 24.4375 23.949219 24.933594 22.800781 C 25.425781 21.65625 26.125 20.652344 27.035156 19.792969 C 27.304688 19.394531 27.289062 18.882812 27.003906 18.261719 C 26.714844 17.65625 26.285156 17.070312 25.746094 16.511719 C 25.203125 15.953125 24.597656 15.492188 23.914062 15.125 C 23.246094 14.761719 22.671875 14.679688 22.226562 14.855469 C 20.695312 16.304688 19.484375 18.039062 18.609375 20.0625 C 17.734375 22.085938 17.289062 24.25 17.289062 26.542969 C 17.289062 28.804688 17.71875 30.921875 18.578125 32.898438 C 19.4375 34.886719 20.601562 36.625 22.097656 38.105469 C 23.578125 39.585938 25.3125 40.765625 27.304688 41.625 C 29.261719 42.46875 31.398438 42.898438 33.707031 42.898438 Z M 33.5625 34.617188 C 34.695312 34.617188 35.761719 34.410156 36.765625 33.980469 C 37.78125 33.550781 38.660156 32.960938 39.390625 32.230469 C 40.140625 31.480469 40.714844 30.621094 41.144531 29.632812 C 41.574219 28.644531 41.78125 27.578125 41.78125 26.464844 C 41.78125 25.332031 41.574219 24.28125 41.144531 23.296875 C 40.714844 22.308594 40.125 21.433594 39.390625 20.699219 C 38.644531 19.949219 37.765625 19.378906 36.765625 18.949219 C 35.746094 18.519531 34.679688 18.3125 33.5625 18.3125 C 32.433594 18.3125 31.382812 18.519531 30.394531 18.949219 C 29.40625 19.378906 28.53125 19.96875 27.796875 20.699219 C 27.050781 21.449219 26.476562 22.308594 26.046875 23.296875 C 25.617188 24.28125 25.410156 25.347656 25.410156 26.464844 C 25.410156 27.59375 25.617188 28.644531 26.046875 29.632812 C 26.476562 30.621094 27.066406 31.496094 27.796875 32.230469 C 28.546875 32.976562 29.40625 33.550781 30.394531 33.980469 C 31.382812 34.410156 32.433594 34.617188 33.5625 34.617188 Z M 33.5625 34.617188 "/></g></g></svg>